<svg width="33" height="32" viewBox="0 0 33 32" fill="none" xmlns="http://www.w3.org/2000/svg">
<path d="M3.44002 0L2.7533 0.647692L1.03832 2.36267L0.390625 3.0494L0.885847 3.84956L3.44002 8.11872L3.78278 8.7286H7.36765L12.2467 13.5698C7.88727 17.9488 2.34102 23.5133 2.14586 23.7097C0.234496 25.6198 0.230836 28.7497 2.18245 30.5708C4.08894 32.4517 7.19566 32.5005 9.007 30.5708L9.0436 30.5318L16.5524 22.9851L24.1003 30.5696L24.2137 30.6465C26.1288 32.4517 29.1745 32.4761 30.9615 30.5696V30.533H30.998C32.8667 28.6217 32.8862 25.5149 30.9615 23.7085L30.9224 23.6719L24.5577 17.3438C28.8403 16.9437 32.1946 13.3271 32.2568 8.95791H32.2947C32.2995 8.93352 32.2947 8.90546 32.2947 8.88107V8.84326C32.4142 7.43321 32.1092 6.08416 31.3798 4.91685L30.5431 3.62268L24.8627 9.30189L23.1477 7.51006L28.9415 1.7162L27.2644 1.0307C26.1948 0.559051 25.0399 0.312032 23.871 0.30494C19.1822 0.30494 15.3327 4.1545 15.3327 8.84326C15.3327 9.35312 15.4425 9.79589 15.523 10.2533C14.9899 10.7876 14.5898 11.2254 13.9604 11.8548L9.11922 7.01362V3.39215L8.50934 3.0494L4.24019 0.495222L3.44002 0ZM23.871 2.74446C24.0418 2.74446 24.1613 2.84448 24.3284 2.85912L19.7165 7.47103L20.5545 8.34803L23.9856 11.8927L24.8236 12.7697L29.6648 7.92844C29.6892 8.20898 29.8893 8.4139 29.8551 8.7286V8.84326C29.8551 12.2025 27.1156 14.9421 23.7563 14.9421C23.3087 14.9421 22.7659 14.8372 22.156 14.7127L21.5071 14.5993L21.0497 15.0567L7.2908 28.8546H7.25177V28.8937C6.38574 29.8414 4.86958 29.8646 3.85962 28.8546V28.8168H3.82059C2.87283 27.9508 2.84966 26.4346 3.85962 25.4247C4.32191 24.9612 13.2737 15.9325 17.6575 11.5499L18.154 11.0547L17.9625 10.368C17.8457 9.86781 17.7819 9.35676 17.7722 8.84326C17.7722 5.48404 20.5118 2.74446 23.871 2.74446ZM3.82059 3.0494L6.6797 4.80341V6.02317L6.4138 6.28908H5.19404L3.44002 3.43118L3.82059 3.0494ZM21.6596 17.8768L29.2465 25.4247V25.4625H29.2831C30.232 26.3285 30.2552 27.8447 29.2465 28.8546H29.2074V28.8937C28.3414 29.8414 26.8252 29.8646 25.8153 28.8546L18.2674 21.2702L21.6596 17.8768Z" fill="black"/>
</svg>
