<svg width="68" height="68" viewBox="0 0 68 68" fill="none" xmlns="http://www.w3.org/2000/svg">
<path d="M37.2955 42.4133C30.0233 45.3222 26.3872 46.7766 24.3126 45.3663C23.8196 45.0314 23.3944 44.6063 23.0596 44.1133C21.6492 42.0355 23.1037 38.4026 26.0126 31.1303C26.6327 29.5783 26.9413 28.8007 27.4764 28.1931C27.6129 28.0378 27.7587 27.893 27.914 27.7587C28.5216 27.2235 29.2992 26.915 30.8481 26.2948C38.1203 23.3859 41.7533 21.9315 43.8311 23.3418C44.3241 23.6767 44.7492 24.1018 45.084 24.5948C46.4944 26.6726 45.04 30.3055 42.1311 37.5777C41.5109 39.1298 41.1992 39.9042 40.6672 40.5118C40.5286 40.6648 40.3825 40.8108 40.2296 40.9494C39.622 41.4846 38.8444 41.7931 37.2955 42.4133Z" stroke="#550413" stroke-width="3.77778"/>
<path d="M18.3306 7.08434C23.114 4.31624 28.5447 2.863 34.0713 2.87211C51.4585 2.87211 65.5528 16.9664 65.5528 34.3536C65.5528 51.7408 51.4585 65.8351 34.0713 65.8351C16.6841 65.8351 2.58984 51.7408 2.58984 34.3536C2.58984 28.6208 4.12299 23.2406 6.80207 18.6129" stroke="#550413" stroke-width="3.77778" stroke-linecap="round"/>
</svg>
