<svg width="61" height="61" viewBox="0 0 61 61" fill="none" xmlns="http://www.w3.org/2000/svg">
<path d="M31.621 27.4902H51.1209L60.1208 36.4902V10.9902C60.1208 7.69023 57.4208 4.99023 54.1208 4.99023H31.621C28.3211 4.99023 25.6211 7.69023 25.6211 10.9902V21.4902C25.6211 24.7902 28.3211 27.4902 31.621 27.4902Z" fill="#550413"/>
<path d="M28.6208 22.9902H9.12101L0.121094 31.9902V6.49023C0.121094 3.19023 2.82107 0.490234 6.12104 0.490234H28.6208C31.9208 0.490234 34.6208 3.19023 34.6208 6.49023V16.9902C34.6208 20.2902 31.9208 22.9902 28.6208 22.9902Z" fill="#550413"/>
<path d="M12.121 48.4902C16.2631 48.4902 19.621 45.1324 19.621 40.9902C19.621 36.8481 16.2631 33.4902 12.121 33.4902C7.97893 33.4902 4.62109 36.8481 4.62109 40.9902C4.62109 45.1324 7.97893 48.4902 12.121 48.4902Z" fill="#550413"/>
<path d="M48.121 48.4902C52.2631 48.4902 55.621 45.1324 55.621 40.9902C55.621 36.8481 52.2631 33.4902 48.121 33.4902C43.9789 33.4902 40.6211 36.8481 40.6211 40.9902C40.6211 45.1324 43.9789 48.4902 48.121 48.4902Z" fill="#550413"/>
<path d="M24.1209 57.4902C24.1209 57.4902 20.8209 51.4902 12.121 51.4902C3.42106 51.4902 0.121094 57.4902 0.121094 57.4902V60.4902H24.1209V57.4902ZM60.1206 57.4902C60.1206 57.4902 56.8206 51.4902 48.1207 51.4902C39.4207 51.4902 36.1208 57.4902 36.1208 57.4902V60.4902H60.1206V57.4902Z" fill="#550413"/>
</svg>
