<svg width="32" height="33" viewBox="0 0 32 33" fill="none" xmlns="http://www.w3.org/2000/svg">
<g filter="url(#filter0_ii_1797_1949)">
<path d="M5.82701 28.6456C5.82701 29.5557 6.18855 30.4285 6.83209 31.072C7.15073 31.3907 7.52903 31.6434 7.94536 31.8159C8.36169 31.9883 8.80792 32.0771 9.25855 32.0771H28.5347V3.42858C28.5347 2.51849 28.1731 1.64567 27.5296 1.00214C26.886 0.358603 26.0132 -0.00292969 25.1031 -0.00292969H2.81641V-0.0017858L2.91478 -0.00292969C3.68706 -0.00262654 4.42762 0.304292 4.9737 0.85037C5.51979 1.39645 5.82671 2.137 5.82701 2.90928V28.6456Z" fill="#550413"/>
<path d="M5.82701 28.6456C5.82701 29.5557 6.18855 30.4285 6.83209 31.072C7.15073 31.3907 7.52903 31.6434 7.94536 31.8159C8.36169 31.9883 8.80792 32.0771 9.25855 32.0771H28.5347V3.42858C28.5347 2.51849 28.1731 1.64567 27.5296 1.00214C26.886 0.358603 26.0132 -0.00292969 25.1031 -0.00292969H2.81641V-0.0017858L2.91478 -0.00292969C3.68706 -0.00262654 4.42762 0.304292 4.9737 0.85037C5.51979 1.39645 5.82671 2.137 5.82701 2.90928V28.6456Z" fill="#550413"/>
<path d="M5.82701 28.6456C5.82701 29.5557 6.18855 30.4285 6.83209 31.072C7.15073 31.3907 7.52903 31.6434 7.94536 31.8159C8.36169 31.9883 8.80792 32.0771 9.25855 32.0771H28.5347V3.42858C28.5347 2.51849 28.1731 1.64567 27.5296 1.00214C26.886 0.358603 26.0132 -0.00292969 25.1031 -0.00292969H2.81641V-0.0017858L2.91478 -0.00292969C3.68706 -0.00262654 4.42762 0.304292 4.9737 0.85037C5.51979 1.39645 5.82671 2.137 5.82701 2.90928V28.6456Z" fill="#CDB987"/>
<path d="M5.82701 28.6456C5.82701 29.5557 6.18855 30.4285 6.83209 31.072C7.15073 31.3907 7.52903 31.6434 7.94536 31.8159C8.36169 31.9883 8.80792 32.0771 9.25855 32.0771H28.5347V3.42858C28.5347 2.51849 28.1731 1.64567 27.5296 1.00214C26.886 0.358603 26.0132 -0.00292969 25.1031 -0.00292969H2.81641V-0.0017858L2.91478 -0.00292969C3.68706 -0.00262654 4.42762 0.304292 4.9737 0.85037C5.51979 1.39645 5.82671 2.137 5.82701 2.90928V28.6456Z" fill="#550413"/>
<path d="M5.82701 28.6456C5.82701 29.5557 6.18855 30.4285 6.83209 31.072C7.15073 31.3907 7.52903 31.6434 7.94536 31.8159C8.36169 31.9883 8.80792 32.0771 9.25855 32.0771H28.5347V3.42858C28.5347 2.51849 28.1731 1.64567 27.5296 1.00214C26.886 0.358603 26.0132 -0.00292969 25.1031 -0.00292969H2.81641V-0.0017858L2.91478 -0.00292969C3.68706 -0.00262654 4.42762 0.304292 4.9737 0.85037C5.51979 1.39645 5.82671 2.137 5.82701 2.90928V28.6456Z" fill="#550413"/>
</g>
<g filter="url(#filter1_i_1797_1949)">
<path d="M2.91338 -0.00292969C2.1409 -0.00292975 1.40004 0.303855 0.853713 0.849966C0.307382 1.39608 0.000303289 2.13681 0 2.90928V3.71568C0 3.74602 0.0120514 3.77511 0.0335027 3.79656C0.054954 3.81801 0.0840481 3.83006 0.114385 3.83006H5.82561V2.90928C5.82531 2.13681 5.51823 1.39608 4.9719 0.849966C4.42557 0.303855 3.68585 -0.00292975 2.91338 -0.00292969Z" fill="#550413"/>
</g>
<g filter="url(#filter2_i_1797_1949)">
<path d="M13.6827 28.8057C13.6069 28.8057 13.5341 28.8358 13.4805 28.8894C13.4269 28.943 13.3968 29.0158 13.3968 29.0916V29.1054H13.3922C13.3087 30.9252 11.8365 32.0759 9.99609 32.0759H28.849C29.6851 32.0759 30.4869 31.7438 31.0781 31.1526C31.6693 30.5614 32.0014 29.7596 32.0014 28.9235C32.0014 28.8922 31.989 28.8623 31.9669 28.8402C31.9448 28.8181 31.9148 28.8057 31.8836 28.8057H13.6827Z" fill="#CDB987"/>
<path d="M13.6827 28.8057C13.6069 28.8057 13.5341 28.8358 13.4805 28.8894C13.4269 28.943 13.3968 29.0158 13.3968 29.0916V29.1054H13.3922C13.3087 30.9252 11.8365 32.0759 9.99609 32.0759H28.849C29.6851 32.0759 30.4869 31.7438 31.0781 31.1526C31.6693 30.5614 32.0014 29.7596 32.0014 28.9235C32.0014 28.8922 31.989 28.8623 31.9669 28.8402C31.9448 28.8181 31.9148 28.8057 31.8836 28.8057H13.6827Z" fill="#550413"/>
</g>
<g filter="url(#filter3_ii_1797_1949)">
<path d="M24.4252 11.5908H9.67644C9.35679 11.5908 9.09766 11.8499 9.09766 12.1696C9.09766 12.4893 9.35679 12.7484 9.67644 12.7484H24.4252C24.7449 12.7484 25.004 12.4893 25.004 12.1696C25.004 11.8499 24.7449 11.5908 24.4252 11.5908Z" fill="#CDB987"/>
</g>
<g filter="url(#filter4_ii_1797_1949)">
<path d="M24.4252 15.0127H9.67644C9.35679 15.0127 9.09766 15.2718 9.09766 15.5915C9.09766 15.9111 9.35679 16.1703 9.67644 16.1703H24.4252C24.7449 16.1703 25.004 15.9111 25.004 15.5915C25.004 15.2718 24.7449 15.0127 24.4252 15.0127Z" fill="#CDB987"/>
</g>
<g filter="url(#filter5_ii_1797_1949)">
<path d="M24.4252 18.4346H9.67644C9.35679 18.4346 9.09766 18.6937 9.09766 19.0134C9.09766 19.333 9.35679 19.5921 9.67644 19.5921H24.4252C24.7449 19.5921 25.004 19.333 25.004 19.0134C25.004 18.6937 24.7449 18.4346 24.4252 18.4346Z" fill="#CDB987"/>
</g>
<g filter="url(#filter6_ii_1797_1949)">
<path d="M18.8226 21.8604H9.67644C9.35679 21.8604 9.09766 22.1195 9.09766 22.4391C9.09766 22.7588 9.35679 23.0179 9.67644 23.0179H18.8226C19.1423 23.0179 19.4014 22.7588 19.4014 22.4391C19.4014 22.1195 19.1423 21.8604 18.8226 21.8604Z" fill="#CDB987"/>
</g>
<defs>
<filter id="filter0_ii_1797_1949" x="2.55681" y="-0.262525" width="26.2379" height="32.3397" filterUnits="userSpaceOnUse" color-interpolation-filters="sRGB">
<feFlood flood-opacity="0" result="BackgroundImageFix"/>
<feBlend mode="normal" in="SourceGraphic" in2="BackgroundImageFix" result="shape"/>
<feColorMatrix in="SourceAlpha" type="matrix" values="0 0 0 0 0 0 0 0 0 0 0 0 0 0 0 0 0 0 127 0" result="hardAlpha"/>
<feOffset dx="-0.259595"/>
<feGaussianBlur stdDeviation="0.324494"/>
<feComposite in2="hardAlpha" operator="arithmetic" k2="-1" k3="1"/>
<feColorMatrix type="matrix" values="0 0 0 0 0.996078 0 0 0 0 0.917647 0 0 0 0 0.592157 0 0 0 1 0"/>
<feBlend mode="normal" in2="shape" result="effect1_innerShadow_1797_1949"/>
<feColorMatrix in="SourceAlpha" type="matrix" values="0 0 0 0 0 0 0 0 0 0 0 0 0 0 0 0 0 0 127 0" result="hardAlpha"/>
<feOffset dx="0.259595" dy="-0.259595"/>
<feGaussianBlur stdDeviation="0.324494"/>
<feComposite in2="hardAlpha" operator="arithmetic" k2="-1" k3="1"/>
<feColorMatrix type="matrix" values="0 0 0 0 0.866667 0 0 0 0 0.627451 0 0 0 0 0.498039 0 0 0 1 0"/>
<feBlend mode="normal" in2="effect1_innerShadow_1797_1949" result="effect2_innerShadow_1797_1949"/>
</filter>
<filter id="filter1_i_1797_1949" x="0" y="-0.00292969" width="5.95402" height="3.96281" filterUnits="userSpaceOnUse" color-interpolation-filters="sRGB">
<feFlood flood-opacity="0" result="BackgroundImageFix"/>
<feBlend mode="normal" in="SourceGraphic" in2="BackgroundImageFix" result="shape"/>
<feColorMatrix in="SourceAlpha" type="matrix" values="0 0 0 0 0 0 0 0 0 0 0 0 0 0 0 0 0 0 127 0" result="hardAlpha"/>
<feOffset dx="0.129798" dy="0.129798"/>
<feGaussianBlur stdDeviation="0.129798"/>
<feComposite in2="hardAlpha" operator="arithmetic" k2="-1" k3="1"/>
<feColorMatrix type="matrix" values="0 0 0 0 0.807843 0 0 0 0 0.494118 0 0 0 0 0.411765 0 0 0 1 0"/>
<feBlend mode="normal" in2="shape" result="effect1_innerShadow_1797_1949"/>
</filter>
<filter id="filter2_i_1797_1949" x="9.99609" y="28.8057" width="22.2635" height="3.27051" filterUnits="userSpaceOnUse" color-interpolation-filters="sRGB">
<feFlood flood-opacity="0" result="BackgroundImageFix"/>
<feBlend mode="normal" in="SourceGraphic" in2="BackgroundImageFix" result="shape"/>
<feColorMatrix in="SourceAlpha" type="matrix" values="0 0 0 0 0 0 0 0 0 0 0 0 0 0 0 0 0 0 127 0" result="hardAlpha"/>
<feOffset dx="0.259595"/>
<feGaussianBlur stdDeviation="0.259595"/>
<feComposite in2="hardAlpha" operator="arithmetic" k2="-1" k3="1"/>
<feColorMatrix type="matrix" values="0 0 0 0 0.72549 0 0 0 0 0.427451 0 0 0 0 0.203922 0 0 0 1 0"/>
<feBlend mode="normal" in2="shape" result="effect1_innerShadow_1797_1949"/>
</filter>
<filter id="filter3_ii_1797_1949" x="8.96786" y="11.461" width="16.1658" height="1.41682" filterUnits="userSpaceOnUse" color-interpolation-filters="sRGB">
<feFlood flood-opacity="0" result="BackgroundImageFix"/>
<feBlend mode="normal" in="SourceGraphic" in2="BackgroundImageFix" result="shape"/>
<feColorMatrix in="SourceAlpha" type="matrix" values="0 0 0 0 0 0 0 0 0 0 0 0 0 0 0 0 0 0 127 0" result="hardAlpha"/>
<feOffset dx="0.129798" dy="-0.129798"/>
<feGaussianBlur stdDeviation="0.0648988"/>
<feComposite in2="hardAlpha" operator="arithmetic" k2="-1" k3="1"/>
<feColorMatrix type="matrix" values="0 0 0 0 0.721569 0 0 0 0 0.384314 0 0 0 0 0.262745 0 0 0 1 0"/>
<feBlend mode="normal" in2="shape" result="effect1_innerShadow_1797_1949"/>
<feColorMatrix in="SourceAlpha" type="matrix" values="0 0 0 0 0 0 0 0 0 0 0 0 0 0 0 0 0 0 127 0" result="hardAlpha"/>
<feOffset dx="-0.129798" dy="0.129798"/>
<feGaussianBlur stdDeviation="0.0648988"/>
<feComposite in2="hardAlpha" operator="arithmetic" k2="-1" k3="1"/>
<feColorMatrix type="matrix" values="0 0 0 0 0.972549 0 0 0 0 0.635294 0 0 0 0 0.380392 0 0 0 1 0"/>
<feBlend mode="normal" in2="effect1_innerShadow_1797_1949" result="effect2_innerShadow_1797_1949"/>
</filter>
<filter id="filter4_ii_1797_1949" x="8.96786" y="14.8829" width="16.1658" height="1.41682" filterUnits="userSpaceOnUse" color-interpolation-filters="sRGB">
<feFlood flood-opacity="0" result="BackgroundImageFix"/>
<feBlend mode="normal" in="SourceGraphic" in2="BackgroundImageFix" result="shape"/>
<feColorMatrix in="SourceAlpha" type="matrix" values="0 0 0 0 0 0 0 0 0 0 0 0 0 0 0 0 0 0 127 0" result="hardAlpha"/>
<feOffset dx="0.129798" dy="-0.129798"/>
<feGaussianBlur stdDeviation="0.0648988"/>
<feComposite in2="hardAlpha" operator="arithmetic" k2="-1" k3="1"/>
<feColorMatrix type="matrix" values="0 0 0 0 0.721569 0 0 0 0 0.384314 0 0 0 0 0.262745 0 0 0 1 0"/>
<feBlend mode="normal" in2="shape" result="effect1_innerShadow_1797_1949"/>
<feColorMatrix in="SourceAlpha" type="matrix" values="0 0 0 0 0 0 0 0 0 0 0 0 0 0 0 0 0 0 127 0" result="hardAlpha"/>
<feOffset dx="-0.129798" dy="0.129798"/>
<feGaussianBlur stdDeviation="0.0648988"/>
<feComposite in2="hardAlpha" operator="arithmetic" k2="-1" k3="1"/>
<feColorMatrix type="matrix" values="0 0 0 0 0.972549 0 0 0 0 0.635294 0 0 0 0 0.380392 0 0 0 1 0"/>
<feBlend mode="normal" in2="effect1_innerShadow_1797_1949" result="effect2_innerShadow_1797_1949"/>
</filter>
<filter id="filter5_ii_1797_1949" x="8.96786" y="18.3048" width="16.1658" height="1.41682" filterUnits="userSpaceOnUse" color-interpolation-filters="sRGB">
<feFlood flood-opacity="0" result="BackgroundImageFix"/>
<feBlend mode="normal" in="SourceGraphic" in2="BackgroundImageFix" result="shape"/>
<feColorMatrix in="SourceAlpha" type="matrix" values="0 0 0 0 0 0 0 0 0 0 0 0 0 0 0 0 0 0 127 0" result="hardAlpha"/>
<feOffset dx="0.129798" dy="-0.129798"/>
<feGaussianBlur stdDeviation="0.0648988"/>
<feComposite in2="hardAlpha" operator="arithmetic" k2="-1" k3="1"/>
<feColorMatrix type="matrix" values="0 0 0 0 0.721569 0 0 0 0 0.384314 0 0 0 0 0.262745 0 0 0 1 0"/>
<feBlend mode="normal" in2="shape" result="effect1_innerShadow_1797_1949"/>
<feColorMatrix in="SourceAlpha" type="matrix" values="0 0 0 0 0 0 0 0 0 0 0 0 0 0 0 0 0 0 127 0" result="hardAlpha"/>
<feOffset dx="-0.129798" dy="0.129798"/>
<feGaussianBlur stdDeviation="0.0648988"/>
<feComposite in2="hardAlpha" operator="arithmetic" k2="-1" k3="1"/>
<feColorMatrix type="matrix" values="0 0 0 0 0.972549 0 0 0 0 0.635294 0 0 0 0 0.380392 0 0 0 1 0"/>
<feBlend mode="normal" in2="effect1_innerShadow_1797_1949" result="effect2_innerShadow_1797_1949"/>
</filter>
<filter id="filter6_ii_1797_1949" x="8.96786" y="21.7306" width="10.5643" height="1.41682" filterUnits="userSpaceOnUse" color-interpolation-filters="sRGB">
<feFlood flood-opacity="0" result="BackgroundImageFix"/>
<feBlend mode="normal" in="SourceGraphic" in2="BackgroundImageFix" result="shape"/>
<feColorMatrix in="SourceAlpha" type="matrix" values="0 0 0 0 0 0 0 0 0 0 0 0 0 0 0 0 0 0 127 0" result="hardAlpha"/>
<feOffset dx="0.129798" dy="-0.129798"/>
<feGaussianBlur stdDeviation="0.0648988"/>
<feComposite in2="hardAlpha" operator="arithmetic" k2="-1" k3="1"/>
<feColorMatrix type="matrix" values="0 0 0 0 0.721569 0 0 0 0 0.384314 0 0 0 0 0.262745 0 0 0 1 0"/>
<feBlend mode="normal" in2="shape" result="effect1_innerShadow_1797_1949"/>
<feColorMatrix in="SourceAlpha" type="matrix" values="0 0 0 0 0 0 0 0 0 0 0 0 0 0 0 0 0 0 127 0" result="hardAlpha"/>
<feOffset dx="-0.129798" dy="0.129798"/>
<feGaussianBlur stdDeviation="0.0648988"/>
<feComposite in2="hardAlpha" operator="arithmetic" k2="-1" k3="1"/>
<feColorMatrix type="matrix" values="0 0 0 0 0.972549 0 0 0 0 0.635294 0 0 0 0 0.380392 0 0 0 1 0"/>
<feBlend mode="normal" in2="effect1_innerShadow_1797_1949" result="effect2_innerShadow_1797_1949"/>
</filter>
</defs>
</svg>
