<svg width="36" height="38" viewBox="0 0 36 38" fill="none" xmlns="http://www.w3.org/2000/svg">
<path d="M2.00391 3.41042C2.00391 3.12752 2.11629 2.85621 2.31633 2.65617C2.51636 2.45613 2.78768 2.34375 3.07057 2.34375H32.9372C33.2201 2.34375 33.4914 2.45613 33.6915 2.65617C33.8915 2.85621 34.0039 3.12752 34.0039 3.41042V27.9437C34.0039 28.0838 33.9763 28.2225 33.9227 28.3519C33.8691 28.4814 33.7905 28.5989 33.6915 28.698C33.5924 28.797 33.4748 28.8756 33.3454 28.9292C33.216 28.9828 33.0773 29.0104 32.9372 29.0104H25.5772C25.4314 29.0102 25.287 29.0399 25.1531 29.0977C25.0191 29.1555 24.8985 29.2401 24.7986 29.3464L18.7808 35.7411C18.6811 35.8471 18.5607 35.9316 18.4271 35.9893C18.2935 36.0471 18.1495 36.0768 18.0039 36.0768C17.8584 36.0768 17.7143 36.0471 17.5807 35.9893C17.4471 35.9316 17.3268 35.8471 17.227 35.7411L11.2092 29.3464C11.1093 29.2401 10.9887 29.1555 10.8547 29.0977C10.7208 29.0399 10.5764 29.0102 10.4306 29.0104H3.07057C2.78768 29.0104 2.51636 28.898 2.31633 28.698C2.11629 28.498 2.00391 28.2266 2.00391 27.9437V3.41042Z" stroke="black" stroke-width="3.69368"/>
<path d="M18.0056 9.45508L20.539 14.0329L25.1168 16.5662L20.539 19.0995L18.0056 23.6773L15.4723 19.0995L10.8945 16.5662L15.4723 14.0329L18.0056 9.45508Z" stroke="black" stroke-width="3.69368" stroke-linecap="round" stroke-linejoin="round"/>
</svg>
