<svg width="68" height="69" viewBox="0 0 68 69" fill="none" xmlns="http://www.w3.org/2000/svg">
<path d="M8.09724 53.577C8.09724 52.9508 7.84848 52.3502 7.40568 51.9074C6.96289 51.4646 6.36233 51.2159 5.73612 51.2159C5.10992 51.2159 4.50936 51.4646 4.06657 51.9074C3.62377 52.3502 3.37501 52.9508 3.37501 53.577H8.09724ZM3.37501 40.9844C3.37501 41.6106 3.62377 42.2111 4.06657 42.6539C4.50936 43.0967 5.10992 43.3455 5.73612 43.3455C6.36233 43.3455 6.96289 43.0967 7.40568 42.6539C7.84848 42.2111 8.09724 41.6106 8.09724 40.9844H3.37501ZM18.3287 24.4566C21.3635 24.4566 23.4035 24.4629 24.9241 24.6675C26.3754 24.8627 26.9987 25.1996 27.408 25.612L30.745 22.2686C29.3126 20.8362 27.5276 20.2538 25.5506 19.9862C23.6428 19.7281 21.2313 19.7344 18.3287 19.7344V24.4566ZM33.2824 34.6881C33.2824 31.7855 33.2887 29.374 33.0306 27.4662C32.7661 25.4892 32.1806 23.7011 30.745 22.2686L27.408 25.612C27.8172 26.0212 28.1541 26.6414 28.3524 28.0959C28.5539 29.6133 28.5602 31.6533 28.5602 34.6881H33.2824ZM18.3287 19.7344C15.4261 19.7344 13.0146 19.7281 11.1069 19.9862C9.12983 20.2507 7.34483 20.8362 5.91242 22.2686L9.24946 25.6088C9.65872 25.1996 10.2821 24.8627 11.7365 24.6644C13.2539 24.4629 15.2939 24.4566 18.3287 24.4566V19.7344ZM8.09724 34.6881C8.09724 31.6533 8.10353 29.6133 8.30816 28.0927C8.50335 26.6414 8.83705 26.0181 9.24946 25.6088L5.90927 22.2718C4.47687 23.7042 3.89446 25.4892 3.62687 27.4662C3.36872 29.374 3.37501 31.7855 3.37501 34.6881H8.09724ZM8.09724 66.1696V53.577H3.37501V66.1696H8.09724ZM8.09724 40.9844V34.6881H3.37501V40.9844H8.09724Z" fill="#550413"/>
<path d="M18.3306 66.17V47.2811C18.3306 41.3437 18.3306 38.3781 20.1754 36.5333C22.0202 34.6885 24.9858 34.6885 30.9232 34.6885H37.2195M37.2195 34.6885C43.1569 34.6885 46.1224 34.6885 47.9672 36.5333C49.4532 38.0161 49.7428 40.2293 49.7995 44.133M37.2195 34.6885V21.3781C37.2195 13.1237 37.2195 8.99962 39.93 7.11703C42.6406 5.24074 46.5034 6.68888 54.2321 9.58833C58.1861 11.068 60.1632 11.8109 61.2839 13.4291C62.4047 15.0472 62.4047 17.1596 62.4047 21.3781M49.8121 66.17V57.5126M62.4047 66.17V34.6885M8.88614 22.0959V17.3737C8.88614 14.405 8.88614 12.9222 9.80855 11.9998C10.731 11.0774 12.2137 11.0774 15.1824 11.0774H21.4787C24.4474 11.0774 25.9302 11.0774 26.8526 11.9998C27.775 12.9222 27.775 14.405 27.775 17.3737V22.0959M18.3306 9.50333V3.20703M65.5528 66.17H2.58984M27.775 44.133H29.3491M40.3676 44.133H35.6454M27.775 53.5774H40.3676" stroke="#550413" stroke-width="4.72222" stroke-linecap="round"/>
</svg>
