<svg width="16" height="16" viewBox="0 0 16 16" fill="none" xmlns="http://www.w3.org/2000/svg">
<path d="M7.83724 11.2745C7.71502 11.2745 7.60043 11.2555 7.49349 11.2176C7.38655 11.1798 7.28724 11.1147 7.19557 11.0224L3.89557 7.7224C3.71224 7.53907 3.62424 7.32518 3.63157 7.08073C3.63891 6.83629 3.72691 6.6224 3.89557 6.43907C4.07891 6.25573 4.29677 6.1604 4.54916 6.15307C4.80155 6.14573 5.0191 6.23343 5.20182 6.41615L6.92057 8.1349V1.58073C6.92057 1.32101 7.00857 1.10345 7.18457 0.928066C7.36057 0.752677 7.57813 0.664677 7.83724 0.664066C8.09635 0.663455 8.31421 0.751455 8.49082 0.928066C8.66743 1.10468 8.75513 1.32223 8.75391 1.58073V8.1349L10.4727 6.41615C10.656 6.23282 10.8739 6.14482 11.1262 6.15215C11.3786 6.15948 11.5962 6.25512 11.7789 6.43907C11.947 6.6224 12.035 6.83629 12.0429 7.08073C12.0508 7.32518 11.9629 7.53907 11.7789 7.7224L8.47891 11.0224C8.38724 11.1141 8.28793 11.1791 8.18099 11.2176C8.07405 11.2561 7.95946 11.2751 7.83724 11.2745ZM2.33724 15.3307C1.83307 15.3307 1.40163 15.1514 1.04291 14.7926C0.684184 14.4339 0.504517 14.0022 0.503906 13.4974V11.6641C0.503906 11.4043 0.591906 11.1868 0.767906 11.0114C0.943906 10.836 1.16146 10.748 1.42057 10.7474C1.67968 10.7468 1.89754 10.8348 2.07416 11.0114C2.25077 11.188 2.33846 11.4056 2.33724 11.6641V13.4974H13.3372V11.6641C13.3372 11.4043 13.4252 11.1868 13.6012 11.0114C13.7772 10.836 13.9948 10.748 14.2539 10.7474C14.513 10.7468 14.7309 10.8348 14.9075 11.0114C15.0841 11.188 15.1718 11.4056 15.1706 11.6641V13.4974C15.1706 14.0016 14.9912 14.4333 14.6325 14.7926C14.2738 15.152 13.842 15.3313 13.3372 15.3307H2.33724Z" fill="black"/>
</svg>
