<svg width="22" height="22" viewBox="0 0 22 22" fill="none" xmlns="http://www.w3.org/2000/svg">
<path d="M11.3721 13.207C11.1284 13.2073 10.8949 13.3042 10.7226 13.4765C10.5503 13.6488 10.4534 13.8823 10.4531 14.126V18.7248C10.4534 18.9684 10.5503 19.202 10.7226 19.3743C10.8949 19.5466 11.1284 19.6435 11.3721 19.6437H12.7515V21.4836L15.0509 19.6437H20.5686C20.8123 19.6435 21.0459 19.5466 21.2181 19.3743C21.3904 19.202 21.4873 18.9684 21.4876 18.7248V14.126C21.4873 13.8823 21.3904 13.6488 21.2181 13.4765C21.0459 13.3042 20.8123 13.2073 20.5686 13.207H11.3721Z" fill="#550413"/>
<path d="M10.4515 0.332031C10.6953 0.332297 10.929 0.429338 11.1013 0.601835C11.2736 0.774331 11.3704 1.00817 11.3704 1.25199V5.84977C11.3704 6.09358 11.2736 6.32742 11.1013 6.49992C10.929 6.67242 10.6953 6.76946 10.4515 6.76972H9.07202V9.06911L6.77263 6.76972H1.25489C1.01108 6.76946 0.77734 6.67242 0.605032 6.49992C0.432723 6.32742 0.335937 6.09358 0.335938 5.84977V1.25199C0.335937 1.00817 0.432723 0.774331 0.605032 0.601835C0.77734 0.429338 1.01108 0.332297 1.25489 0.332031H10.4515Z" fill="#550413"/>
<path d="M1.25489 0.332031C1.01108 0.332297 0.77734 0.429338 0.605032 0.601835C0.432723 0.774331 0.335937 1.00817 0.335938 1.25199V5.84977C0.335937 6.09358 0.432723 6.32742 0.605032 6.49992C0.77734 6.67242 1.01108 6.76946 1.25489 6.76972H1.84579L8.28248 0.332031H1.25489Z" fill="#550413"/>
<path d="M11.3721 13.207C11.1284 13.2073 10.8949 13.3042 10.7226 13.4765C10.5503 13.6488 10.4534 13.8823 10.4531 14.126V18.7248C10.4534 18.9684 10.5503 19.202 10.7226 19.3743C10.8949 19.5466 11.1284 19.6435 11.3721 19.6437H11.963L18.3997 13.207H11.3721Z" fill="#550413"/>
<path d="M13.2101 11.3679C13.1886 10.8187 13.281 10.271 13.4814 9.75922C13.6818 9.24743 13.9858 8.78262 14.3744 8.39398C14.7631 8.00534 15.2279 7.70128 15.7397 7.5009C16.2515 7.30052 16.7992 7.20815 17.3484 7.2296C17.8976 7.20815 18.4453 7.30052 18.9571 7.5009C19.4688 7.70128 19.9337 8.00534 20.3223 8.39398C20.7109 8.78262 21.015 9.24743 21.2154 9.75922C21.4157 10.271 21.5081 10.8187 21.4867 11.3679H13.2101Z" fill="#550413"/>
<path d="M20.0807 2.70583C19.5946 2.96575 19.0508 3.09861 18.4996 3.09207C17.8517 3.09206 17.2169 2.9102 16.6673 2.5672C16.1176 2.22419 15.6753 1.73381 15.3906 1.15183C15.7523 0.787292 16.2084 0.530908 16.7079 0.411531C17.2073 0.292154 17.7301 0.314521 18.2175 0.476117C18.7049 0.637712 19.1375 0.932122 19.4667 1.32622C19.7958 1.72031 20.0085 2.19745 20.0807 2.70583Z" fill="#550413"/>
<path d="M20.1115 3.09258C20.1118 3.54586 20.0005 3.99223 19.7873 4.39224C19.5741 4.79225 19.2656 5.13357 18.8891 5.38602C18.5127 5.63847 18.0798 5.79427 17.6288 5.83965C17.1778 5.88502 16.7226 5.81858 16.3034 5.64618C15.8841 5.47379 15.5139 5.20076 15.2253 4.85124C14.9366 4.50172 14.7386 4.08647 14.6486 3.64221C14.5587 3.19795 14.5796 2.73837 14.7094 2.3041C14.8393 1.86983 15.0742 1.47425 15.3933 1.15234C15.6779 1.73416 16.1201 2.22445 16.6695 2.56744C17.219 2.91044 17.8536 3.09238 18.5013 3.09258C19.0528 3.09929 19.597 2.96643 20.0834 2.70634C20.1015 2.83542 20.1115 2.96417 20.1115 3.09258Z" fill="#550413"/>
<path d="M0.338932 21.4851C0.317637 20.9359 0.41011 20.3883 0.610543 19.8766C0.810977 19.3649 1.11504 18.9001 1.50365 18.5115C1.89225 18.1229 2.35701 17.8188 2.86873 17.6184C3.38044 17.418 3.92807 17.3255 4.47723 17.3468C5.02643 17.3253 5.57413 17.4177 6.08592 17.6181C6.5977 17.8185 7.06252 18.1225 7.45115 18.5112C7.83979 18.8998 8.14385 19.3646 8.34423 19.8764C8.54461 20.3882 8.63698 20.9359 8.61553 21.4851H0.338932Z" fill="#550413"/>
<path d="M7.21108 12.8399C6.73131 13.0897 6.19693 13.2163 5.65608 13.2081C5.00481 13.2079 4.36683 13.0239 3.81545 12.6773C3.26406 12.3307 2.82166 11.8356 2.53906 11.2488C2.90369 10.8888 3.36138 10.6374 3.86084 10.5229C4.36029 10.4084 4.88177 10.4352 5.36682 10.6004C5.85188 10.7656 6.28134 11.0626 6.60709 11.4582C6.93283 11.8537 7.14197 12.3322 7.21108 12.8399Z" fill="#550413"/>
<path d="M7.23258 13.2093C7.23275 13.6636 7.12073 14.1109 6.90645 14.5115C6.69218 14.9122 6.38228 15.2536 6.0043 15.5057C5.62631 15.7577 5.19193 15.9125 4.73974 15.9564C4.28754 16.0002 3.83152 15.9316 3.41218 15.7568C2.99285 15.582 2.62317 15.3063 2.33598 14.9543C2.04879 14.6023 1.85298 14.1848 1.76595 13.7389C1.67891 13.293 1.70334 12.8325 1.83706 12.3983C1.97078 11.9641 2.20965 11.5697 2.53247 11.25C2.81514 11.8369 3.2577 12.3321 3.80928 12.6787C4.36086 13.0253 4.99906 13.2092 5.65049 13.2093C6.19105 13.2177 6.72517 13.0912 7.20449 12.8411C7.22255 12.9622 7.23191 13.0849 7.23258 13.2093Z" fill="#550413"/>
</svg>
