<svg width="66" height="52" viewBox="0 0 66 52" fill="none" xmlns="http://www.w3.org/2000/svg">
<path d="M20.9256 0.0644531C19.331 0.0644531 17.752 0.378538 16.2787 0.988773C14.8055 1.59901 13.4669 2.49344 12.3393 3.62101C11.2117 4.74858 10.3173 6.0872 9.70706 7.56044C9.09682 9.03368 8.78274 10.6127 8.78274 12.2073C8.78274 13.8019 9.09682 15.3809 9.70706 16.8542C10.3173 18.3274 11.2117 19.666 12.3393 20.7936C13.4669 21.9212 14.8055 22.8156 16.2787 23.4258C17.752 24.0361 19.331 24.3502 20.9256 24.3502C24.1461 24.3502 27.2347 23.0708 29.5119 20.7936C31.7891 18.5164 33.0685 15.4278 33.0685 12.2073C33.0685 8.98682 31.7891 5.89824 29.5119 3.62101C27.2347 1.34379 24.1461 0.0644532 20.9256 0.0644531ZM12.8304 12.2073C12.8304 11.1442 13.0397 10.0916 13.4466 9.1094C13.8534 8.12724 14.4497 7.23483 15.2014 6.48311C15.9531 5.7314 16.8455 5.13511 17.8277 4.72829C18.8098 4.32146 19.8625 4.11207 20.9256 4.11207C21.9887 4.11207 23.0414 4.32146 24.0235 4.72829C25.0057 5.13511 25.8981 5.7314 26.6498 6.48311C27.4015 7.23483 27.9978 8.12724 28.4046 9.1094C28.8114 10.0916 29.0208 11.1442 29.0208 12.2073C29.0208 14.3543 28.1679 16.4134 26.6498 17.9315C25.1316 19.4497 23.0726 20.3025 20.9256 20.3025C18.7786 20.3025 16.7196 19.4497 15.2014 17.9315C13.6832 16.4134 12.8304 14.3543 12.8304 12.2073ZM49.2589 5.46128C46.7541 5.46128 44.3519 6.45632 42.5807 8.22749C40.8095 9.99867 39.8145 12.4009 39.8145 14.9057C39.8145 17.4105 40.8095 19.8128 42.5807 21.584C44.3519 23.3551 46.7541 24.3502 49.2589 24.3502C51.7638 24.3502 54.166 23.3551 55.9372 21.584C57.7083 19.8128 58.7034 17.4105 58.7034 14.9057C58.7034 12.4009 57.7083 9.99867 55.9372 8.22749C54.166 6.45632 51.7638 5.46128 49.2589 5.46128ZM43.8621 14.9057C43.8621 13.4744 44.4307 12.1017 45.4428 11.0896C46.4549 10.0775 47.8276 9.5089 49.2589 9.5089C50.6903 9.5089 52.063 10.0775 53.0751 11.0896C54.0872 12.1017 54.6558 13.4744 54.6558 14.9057C54.6558 16.3371 54.0872 17.7098 53.0751 18.7219C52.063 19.734 50.6903 20.3025 49.2589 20.3025C47.8276 20.3025 46.4549 19.734 45.4428 18.7219C44.4307 17.7098 43.8621 16.3371 43.8621 14.9057ZM0.6875 35.8184C0.6875 34.2082 1.32717 32.6639 2.46578 31.5253C3.60439 30.3867 5.14869 29.747 6.75893 29.747H35.0923C36.7025 29.747 38.2468 30.3867 39.3854 31.5253C40.524 32.6639 41.1637 34.2082 41.1637 35.8184V37.2513C41.1616 37.4697 41.1463 37.6878 41.1178 37.9043C41.0571 38.461 40.9579 39.0128 40.821 39.5557C40.374 41.3274 39.5787 42.9923 38.4815 44.4533C35.7453 48.1043 30.5266 51.3343 20.9256 51.3343C11.3246 51.3343 6.10591 48.1043 3.36972 44.4533C2.27344 42.9921 1.47906 41.3272 1.0329 39.5557C0.856301 38.8504 0.743413 38.1306 0.695595 37.4051L0.6875 37.2513V35.8184ZM4.73512 37.1541V37.2027L4.75941 37.4726C4.78639 37.7262 4.84036 38.1067 4.95909 38.5735C5.2737 39.8216 5.83321 40.9948 6.60512 42.0248C8.42385 44.4452 12.3123 47.2867 20.9256 47.2867C29.5389 47.2867 33.4273 44.4452 35.2434 42.0248C36.1878 40.7673 36.6573 39.5099 36.8894 38.5735C37.0032 38.1238 37.0781 37.6652 37.1134 37.2027L37.1161 37.1541V35.8184C37.1161 35.2817 36.9029 34.7669 36.5233 34.3874C36.1438 34.0078 35.629 33.7946 35.0923 33.7946H6.75893C6.22218 33.7946 5.70742 34.0078 5.32788 34.3874C4.94834 34.7669 4.73512 35.2817 4.73512 35.8184V37.1541ZM41.4335 44.9121C43.5194 45.5516 46.0937 45.9375 49.2535 45.9375C56.7281 45.9375 60.9053 43.7895 63.1746 41.1991C64.0806 40.173 64.7528 38.9622 65.1445 37.6507C65.2976 37.1206 65.3962 36.5763 65.4386 36.0262L65.444 35.8994V35.8184C65.444 34.2082 64.8044 32.6639 63.6657 31.5253C62.5271 30.3867 60.9828 29.747 59.3726 29.747H41.4173C42.4805 30.856 43.2577 32.2457 43.6246 33.7946H59.3753C59.9074 33.7946 60.4181 34.0041 60.7969 34.3778C61.1756 34.7515 61.392 35.2594 61.3991 35.7914L61.3856 35.9156C61.3586 36.1191 61.3162 36.3202 61.2588 36.5173C61.0311 37.2632 60.6444 37.9509 60.1254 38.533C58.8545 39.9902 55.951 41.8899 49.2535 41.8899C46.7143 41.8899 44.7202 41.6173 43.1524 41.1964C42.739 42.5027 42.1614 43.7512 41.4335 44.9121Z" fill="#550413"/>
</svg>
