<svg width="57" height="55" viewBox="0 0 57 55" fill="none" xmlns="http://www.w3.org/2000/svg">
<path d="M31.388 49.1352C31.1225 49.1352 30.8622 49.062 30.6356 48.9235C30.409 48.7851 30.225 48.5869 30.1039 48.3506L17.911 24.5797L3.7546 41.7102C3.2469 42.3244 2.33732 42.411 1.72307 41.9032C1.10871 41.3955 1.02225 40.486 1.52995 39.8715L17.0823 21.0519C17.2345 20.8677 17.4301 20.7242 17.6515 20.6342C17.8729 20.5443 18.1131 20.5107 18.3506 20.5366C18.5882 20.5624 18.8156 20.6468 19.0125 20.7822C19.2093 20.9177 19.3695 21.0999 19.4786 21.3125L31.4756 44.7012L54.1516 6.22619C54.5563 5.53979 55.4409 5.31095 56.1275 5.71572C56.8141 6.12049 57.0426 7.00494 56.638 7.69158L32.6311 48.4248C32.5036 48.6411 32.3219 48.8204 32.1039 48.945C31.8859 49.0696 31.6391 49.1351 31.388 49.1352Z" fill="#550413"/>
<path d="M55.3962 54.9323H1.6816C1.45836 54.9323 1.24425 54.8436 1.08639 54.6857C0.928529 54.5279 0.839844 54.3137 0.839844 54.0905V0.888642C0.839844 0.665392 0.928529 0.451285 1.08639 0.293423C1.24425 0.135561 1.45836 0.046875 1.6816 0.046875C1.90485 0.046875 2.11896 0.135561 2.27682 0.293423C2.43468 0.451285 2.52336 0.665392 2.52336 0.888642V53.2487H55.3962C55.6194 53.2487 55.8335 53.3374 55.9914 53.4953C56.1492 53.6531 56.2379 53.8672 56.2379 54.0905C56.2379 54.3137 56.1492 54.5279 55.9914 54.6857C55.8335 54.8436 55.6194 54.9323 55.3962 54.9323Z" fill="#550413"/>
</svg>
