<svg width="32" height="32" viewBox="0 0 32 32" fill="none" xmlns="http://www.w3.org/2000/svg">
<path d="M17.4548 28.0475C17.3031 28.0475 17.1543 28.0057 17.0248 27.9266C16.8953 27.8475 16.7902 27.7342 16.721 27.5992L9.75321 14.0158L1.66342 23.8047C1.37329 24.1557 0.853501 24.2051 0.502485 23.9149C0.151401 23.6248 0.101992 23.1051 0.392123 22.754L9.27966 11.9999C9.36665 11.8947 9.47841 11.8127 9.60492 11.7613C9.73143 11.7099 9.86872 11.6907 10.0045 11.7055C10.1402 11.7202 10.2702 11.7685 10.3827 11.8458C10.4952 11.9232 10.5867 12.0273 10.649 12.1488L17.5048 25.5138L30.4633 3.52811C30.6945 3.13588 31.2 3.00511 31.5924 3.23641C31.9848 3.46771 32.1153 3.97311 31.8841 4.36548L18.1651 27.6416C18.0923 27.7652 17.9884 27.8677 17.8639 27.9389C17.7393 28.01 17.5983 28.0475 17.4548 28.0475Z" fill="#550413"/>
<path d="M31.1767 31.3601H0.481032C0.353454 31.3601 0.231102 31.3095 0.140891 31.2193C0.05068 31.1291 0 31.0067 0 30.8791V0.47808C0 0.350508 0.05068 0.228162 0.140891 0.137955C0.231102 0.0477479 0.353454 -0.00292969 0.481032 -0.00292969C0.608609 -0.00292969 0.730962 0.0477479 0.821173 0.137955C0.911384 0.228162 0.962063 0.350508 0.962063 0.47808V30.3981H31.1767C31.3043 30.3981 31.4266 30.4488 31.5168 30.539C31.607 30.6292 31.6577 30.7516 31.6577 30.8791C31.6577 31.0067 31.607 31.1291 31.5168 31.2193C31.4266 31.3095 31.3043 31.3601 31.1767 31.3601Z" fill="#550413"/>
</svg>
