<svg width="37" height="47" viewBox="0 0 37 47" fill="none" xmlns="http://www.w3.org/2000/svg">
<path d="M8.79453 12.6H15.1945M8.79453 23.8H27.9945M8.79453 30.2H27.9945M8.79453 36.6H15.1945M5.59453 44.6H31.1945C32.0432 44.6 32.8572 44.2629 33.4573 43.6627C34.0574 43.0626 34.3945 42.2487 34.3945 41.4V6.2C34.3945 5.35131 34.0574 4.53737 33.4573 3.93726C32.8572 3.33714 32.0432 3 31.1945 3H5.59453C4.74584 3 3.93191 3.33714 3.33179 3.93726C2.73167 4.53737 2.39453 5.35131 2.39453 6.2V41.4C2.39453 42.2487 2.73167 43.0626 3.33179 43.6627C3.93191 44.2629 4.74584 44.6 5.59453 44.6Z" stroke="black" stroke-width="4.79431" stroke-linecap="round" stroke-linejoin="round"/>
<path d="M27.9953 13.4008C28.4371 13.4008 28.7953 13.0426 28.7953 12.6008C28.7953 12.159 28.4371 11.8008 27.9953 11.8008C27.5535 11.8008 27.1953 12.159 27.1953 12.6008C27.1953 13.0426 27.5535 13.4008 27.9953 13.4008Z" fill="black" stroke="black" stroke-width="2.39715"/>
</svg>
