<svg width="46" height="73" viewBox="0 0 46 73" fill="none" xmlns="http://www.w3.org/2000/svg">
<path d="M23.0167 72.5099C25.5586 72.5099 27.6193 70.4493 27.6193 67.9073C27.6193 65.3653 25.5586 63.3047 23.0167 63.3047C20.4747 63.3047 18.4141 65.3653 18.4141 67.9073C18.4141 70.4493 20.4747 72.5099 23.0167 72.5099Z" fill="url(#paint0_radial_1819_2108)"/>
<path d="M28.6746 52.5117H17.5613C15.7692 52.5117 14.3164 53.9645 14.3164 55.7567V66.709C14.3164 68.5011 15.7692 69.9539 17.5613 69.9539H28.6746C30.4668 69.9539 31.9196 68.5011 31.9196 66.709V55.7567C31.9196 53.9645 30.4668 52.5117 28.6746 52.5117Z" fill="url(#paint1_linear_1819_2108)"/>
<path d="M28.6746 52.5117H17.5613C15.7692 52.5117 14.3164 53.9645 14.3164 55.7567V66.709C14.3164 68.5011 15.7692 69.9539 17.5613 69.9539H28.6746C30.4668 69.9539 31.9196 68.5011 31.9196 66.709V55.7567C31.9196 53.9645 30.4668 52.5117 28.6746 52.5117Z" fill="url(#paint2_linear_1819_2108)"/>
<path d="M28.6746 52.5117H17.5613C15.7692 52.5117 14.3164 53.9645 14.3164 55.7567V66.709C14.3164 68.5011 15.7692 69.9539 17.5613 69.9539H28.6746C30.4668 69.9539 31.9196 68.5011 31.9196 66.709V55.7567C31.9196 53.9645 30.4668 52.5117 28.6746 52.5117Z" fill="url(#paint3_radial_1819_2108)"/>
<path d="M28.6746 52.5117H17.5613C15.7692 52.5117 14.3164 53.9645 14.3164 55.7567V66.709C14.3164 68.5011 15.7692 69.9539 17.5613 69.9539H28.6746C30.4668 69.9539 31.9196 68.5011 31.9196 66.709V55.7567C31.9196 53.9645 30.4668 52.5117 28.6746 52.5117Z" fill="url(#paint4_linear_1819_2108)"/>
<g filter="url(#filter0_i_1819_2108)">
<path d="M22.7541 54.5822H22.8943C24.3376 54.5744 27.6552 54.5199 28.987 54.2785C30.4147 54.0189 30.599 53.305 30.8534 52.1888C32.4162 45.2991 35.0381 42.6512 36.793 40.8808C37.0647 40.6091 37.3122 40.3529 37.5354 40.1124C38.296 39.2765 38.9554 38.5392 39.4564 37.9707C42.4555 34.7864 44.459 30.7953 45.2207 26.4878C45.9824 22.1803 45.4691 17.7442 43.7438 13.7245C42.0186 9.70475 39.1566 6.27662 35.5096 3.86134C31.8625 1.44606 27.5893 0.148854 23.2151 0.129134C18.8408 0.109415 14.5561 1.36804 10.8874 3.75034C7.21875 6.13264 4.32597 9.53483 2.56457 13.5388C0.803164 17.5428 0.249874 21.9742 0.972689 26.2883C1.6955 30.6025 3.66293 34.6115 6.63321 37.8228C7.1524 38.4094 7.8585 39.2012 8.6892 40.1124C8.9291 40.3757 9.17668 40.632 9.43164 40.8808C11.1839 42.6512 13.8084 45.3017 15.3712 52.1888C15.6256 53.305 15.8099 54.0189 17.2377 54.2785C18.5642 54.5199 21.251 54.5744 22.6113 54.5796L22.7541 54.5822Z" fill="#550413"/>
<path d="M22.7541 54.5822H22.8943C24.3376 54.5744 27.6552 54.5199 28.987 54.2785C30.4147 54.0189 30.599 53.305 30.8534 52.1888C32.4162 45.2991 35.0381 42.6512 36.793 40.8808C37.0647 40.6091 37.3122 40.3529 37.5354 40.1124C38.296 39.2765 38.9554 38.5392 39.4564 37.9707C42.4555 34.7864 44.459 30.7953 45.2207 26.4878C45.9824 22.1803 45.4691 17.7442 43.7438 13.7245C42.0186 9.70475 39.1566 6.27662 35.5096 3.86134C31.8625 1.44606 27.5893 0.148854 23.2151 0.129134C18.8408 0.109415 14.5561 1.36804 10.8874 3.75034C7.21875 6.13264 4.32597 9.53483 2.56457 13.5388C0.803164 17.5428 0.249874 21.9742 0.972689 26.2883C1.6955 30.6025 3.66293 34.6115 6.63321 37.8228C7.1524 38.4094 7.8585 39.2012 8.6892 40.1124C8.9291 40.3757 9.17668 40.632 9.43164 40.8808C11.1839 42.6512 13.8084 45.3017 15.3712 52.1888C15.6256 53.305 15.8099 54.0189 17.2377 54.2785C18.5642 54.5199 21.251 54.5744 22.6113 54.5796L22.7541 54.5822Z" fill="#550413"/>
</g>
<path d="M27.155 21.6439C31.9263 21.6439 35.7943 17.7759 35.7943 13.0046C35.7943 8.23319 31.9263 4.36523 27.155 4.36523C22.3836 4.36523 18.5156 8.23319 18.5156 13.0046C18.5156 17.7759 22.3836 21.6439 27.155 21.6439Z" fill="url(#paint5_linear_1819_2108)"/>
<g filter="url(#filter1_i_1819_2108)">
<path d="M22.0082 54.5731C21.9174 48.9347 21.4683 45.2225 20.7829 42.6369C19.9964 39.6594 18.8931 38.1719 17.7249 36.9959L17.7119 36.9804L17.6964 36.9674C16.57 35.902 15.7892 34.5231 15.4551 33.0091C15.1209 31.4951 15.2488 29.9156 15.8221 28.4751C16.3955 27.0346 17.3879 25.7992 18.671 24.9289C19.9542 24.0586 21.4689 23.5933 23.0194 23.5933C24.5698 23.5933 26.0846 24.0586 27.3677 24.9289C28.6508 25.7992 29.6432 27.0346 30.2166 28.4751C30.7899 29.9156 30.9178 31.4951 30.5837 33.0091C30.2495 34.5231 29.4688 35.902 28.3424 36.9674L28.3268 36.9804L28.3112 36.9959C27.1664 38.1537 26.0475 39.54 25.2506 42.4942C24.5601 45.0512 24.1084 48.7764 24.0175 54.5679C24.8015 54.555 25.7386 54.5316 26.616 54.4901C26.7095 48.862 27.1508 45.4146 27.7583 43.1717C28.4124 40.7393 29.2561 39.7321 30.1414 38.8365C31.6407 37.4121 32.6786 35.5708 33.121 33.5506C33.5633 31.5304 33.3899 29.424 32.623 27.5033C31.8561 25.5827 30.5311 23.936 28.8189 22.7761C27.1067 21.6161 25.0861 20.9961 23.0181 20.9961C20.95 20.9961 18.9294 21.6161 17.2172 22.7761C15.5051 23.936 14.18 25.5827 13.4131 27.5033C12.6462 29.424 12.4728 31.5304 12.9152 33.5506C13.3575 35.5708 14.3954 37.4121 15.8948 38.8365C16.7592 39.7113 17.6133 40.8042 18.2753 43.3015C18.8775 45.5833 19.3136 49.023 19.4097 54.4901C20.3105 54.542 21.258 54.5627 22.0056 54.5731" fill="#550413"/>
</g>
<g filter="url(#filter2_f_1819_2108)">
<path d="M25.6426 53.9851C25.6426 41.5998 27.5402 39.6217 29.5754 37.5683C30.8906 36.3244 31.8023 34.7145 32.1924 32.9468C32.5826 31.1791 32.4333 29.335 31.7639 27.653C31.0945 25.9711 29.9358 24.5287 28.4377 23.5125C26.9396 22.4964 25.171 21.9531 23.3607 21.9531C21.5505 21.9531 19.7819 22.4964 18.2837 23.5125C16.7856 24.5287 15.6269 25.9711 14.9575 27.653C14.2881 29.335 14.1388 31.1791 14.529 32.9468C14.9192 34.7145 15.8308 36.3244 17.146 37.5683C19.1812 39.6217 21.0685 43.1782 21.0685 53.9851" stroke="#550413" stroke-width="0.648988"/>
</g>
<g filter="url(#filter3_f_1819_2108)">
<path d="M30.1896 57.6519L15.4658 59.9588C14.7081 60.0776 14.19 60.7881 14.3087 61.5459C14.4275 62.3037 15.138 62.8218 15.8958 62.703L30.6195 60.396C31.3773 60.2773 31.8954 59.5667 31.7766 58.809C31.6579 58.0512 30.9474 57.5331 30.1896 57.6519Z" fill="#7E6693"/>
</g>
<g filter="url(#filter4_f_1819_2108)">
<path d="M30.1896 63.8061L15.4658 66.1131C14.7081 66.2319 14.19 66.9424 14.3087 67.7002C14.4275 68.458 15.138 68.9761 15.8958 68.8573L30.6195 66.5503C31.3773 66.4316 31.8954 65.721 31.7766 64.9633C31.6579 64.2055 30.9474 63.6874 30.1896 63.8061Z" fill="#7E6693"/>
</g>
<path d="M32.0811 63.1261L13.5694 66.0266C12.7889 66.1489 12.2554 66.8807 12.3777 67.6612C12.5 68.4416 13.2318 68.9752 14.0122 68.8529L32.5239 65.9524C33.3044 65.8301 33.8379 65.0983 33.7156 64.3178C33.5934 63.5374 32.8616 63.0038 32.0811 63.1261Z" fill="url(#paint6_linear_1819_2108)"/>
<path d="M32.0811 63.1261L13.5694 66.0266C12.7889 66.1489 12.2554 66.8807 12.3777 67.6612C12.5 68.4416 13.2318 68.9752 14.0122 68.8529L32.5239 65.9524C33.3044 65.8301 33.8379 65.0983 33.7156 64.3178C33.5934 63.5374 32.8616 63.0038 32.0811 63.1261Z" fill="url(#paint7_linear_1819_2108)"/>
<path d="M32.0811 63.1261L13.5694 66.0266C12.7889 66.1489 12.2554 66.8807 12.3777 67.6612C12.5 68.4416 13.2318 68.9752 14.0122 68.8529L32.5239 65.9524C33.3044 65.8301 33.8379 65.0983 33.7156 64.3178C33.5934 63.5374 32.8616 63.0038 32.0811 63.1261Z" fill="url(#paint8_linear_1819_2108)"/>
<path d="M32.0811 63.1261L13.5694 66.0266C12.7889 66.1489 12.2554 66.8807 12.3777 67.6612C12.5 68.4416 13.2318 68.9752 14.0122 68.8529L32.5239 65.9524C33.3044 65.8301 33.8379 65.0983 33.7156 64.3178C33.5934 63.5374 32.8616 63.0038 32.0811 63.1261Z" fill="url(#paint9_radial_1819_2108)"/>
<path d="M32.0811 56.9562L13.5694 59.8567C12.7889 59.979 12.2554 60.7108 12.3777 61.4913C12.5 62.2717 13.2318 62.8052 14.0122 62.683L32.5239 59.7824C33.3044 59.6602 33.8379 58.9284 33.7156 58.1479C33.5934 57.3675 32.8616 56.8339 32.0811 56.9562Z" fill="url(#paint10_linear_1819_2108)"/>
<path d="M32.0811 56.9562L13.5694 59.8567C12.7889 59.979 12.2554 60.7108 12.3777 61.4913C12.5 62.2717 13.2318 62.8052 14.0122 62.683L32.5239 59.7824C33.3044 59.6602 33.8379 58.9284 33.7156 58.1479C33.5934 57.3675 32.8616 56.8339 32.0811 56.9562Z" fill="url(#paint11_linear_1819_2108)"/>
<path d="M32.0811 56.9562L13.5694 59.8567C12.7889 59.979 12.2554 60.7108 12.3777 61.4913C12.5 62.2717 13.2318 62.8052 14.0122 62.683L32.5239 59.7824C33.3044 59.6602 33.8379 58.9284 33.7156 58.1479C33.5934 57.3675 32.8616 56.8339 32.0811 56.9562Z" fill="url(#paint12_linear_1819_2108)"/>
<path d="M32.0811 56.9562L13.5694 59.8567C12.7889 59.979 12.2554 60.7108 12.3777 61.4913C12.5 62.2717 13.2318 62.8052 14.0122 62.683L32.5239 59.7824C33.3044 59.6602 33.8379 58.9284 33.7156 58.1479C33.5934 57.3675 32.8616 56.8339 32.0811 56.9562Z" fill="url(#paint13_radial_1819_2108)"/>
<defs>
<filter id="filter0_i_1819_2108" x="0.664062" y="0.128906" width="45.5474" height="54.8425" filterUnits="userSpaceOnUse" color-interpolation-filters="sRGB">
<feFlood flood-opacity="0" result="BackgroundImageFix"/>
<feBlend mode="normal" in="SourceGraphic" in2="BackgroundImageFix" result="shape"/>
<feColorMatrix in="SourceAlpha" type="matrix" values="0 0 0 0 0 0 0 0 0 0 0 0 0 0 0 0 0 0 127 0" result="hardAlpha"/>
<feOffset dx="0.648988" dy="0.389393"/>
<feGaussianBlur stdDeviation="1.29798"/>
<feComposite in2="hardAlpha" operator="arithmetic" k2="-1" k3="1"/>
<feColorMatrix type="matrix" values="0 0 0 0 0.992157 0 0 0 0 0.666667 0 0 0 0 0.309804 0 0 0 1 0"/>
<feBlend mode="normal" in2="shape" result="effect1_innerShadow_1819_2108"/>
</filter>
<filter id="filter1_i_1819_2108" x="12.6758" y="20.9961" width="21.3326" height="33.5771" filterUnits="userSpaceOnUse" color-interpolation-filters="sRGB">
<feFlood flood-opacity="0" result="BackgroundImageFix"/>
<feBlend mode="normal" in="SourceGraphic" in2="BackgroundImageFix" result="shape"/>
<feColorMatrix in="SourceAlpha" type="matrix" values="0 0 0 0 0 0 0 0 0 0 0 0 0 0 0 0 0 0 127 0" result="hardAlpha"/>
<feOffset dx="0.648988"/>
<feGaussianBlur stdDeviation="0.648988"/>
<feComposite in2="hardAlpha" operator="arithmetic" k2="-1" k3="1"/>
<feColorMatrix type="matrix" values="0 0 0 0 1 0 0 0 0 0.572549 0 0 0 0 0.254902 0 0 0 1 0"/>
<feBlend mode="normal" in2="shape" result="effect1_innerShadow_1819_2108"/>
</filter>
<filter id="filter2_f_1819_2108" x="13.3432" y="20.9799" width="20.0363" height="33.6544" filterUnits="userSpaceOnUse" color-interpolation-filters="sRGB">
<feFlood flood-opacity="0" result="BackgroundImageFix"/>
<feBlend mode="normal" in="SourceGraphic" in2="BackgroundImageFix" result="shape"/>
<feGaussianBlur stdDeviation="0.324494" result="effect1_foregroundBlur_1819_2108"/>
</filter>
<filter id="filter3_f_1819_2108" x="13.644" y="56.9858" width="18.798" height="6.38294" filterUnits="userSpaceOnUse" color-interpolation-filters="sRGB">
<feFlood flood-opacity="0" result="BackgroundImageFix"/>
<feBlend mode="normal" in="SourceGraphic" in2="BackgroundImageFix" result="shape"/>
<feGaussianBlur stdDeviation="0.324494" result="effect1_foregroundBlur_1819_2108"/>
</filter>
<filter id="filter4_f_1819_2108" x="13.644" y="63.1401" width="18.798" height="6.38294" filterUnits="userSpaceOnUse" color-interpolation-filters="sRGB">
<feFlood flood-opacity="0" result="BackgroundImageFix"/>
<feBlend mode="normal" in="SourceGraphic" in2="BackgroundImageFix" result="shape"/>
<feGaussianBlur stdDeviation="0.324494" result="effect1_foregroundBlur_1819_2108"/>
</filter>
<radialGradient id="paint0_radial_1819_2108" cx="0" cy="0" r="1" gradientUnits="userSpaceOnUse" gradientTransform="translate(24.2342 70.524) rotate(96.6541) scale(2.45021 5.67511)">
<stop offset="0.268" stop-color="#AC90C6"/>
<stop offset="1" stop-color="#8E6AAA"/>
</radialGradient>
<linearGradient id="paint1_linear_1819_2108" x1="31.9196" y1="61.935" x2="14.3164" y2="61.935" gradientUnits="userSpaceOnUse">
<stop stop-color="#CDC2D1"/>
<stop offset="1" stop-color="#947C8D"/>
</linearGradient>
<linearGradient id="paint2_linear_1819_2108" x1="13.4468" y1="63.2616" x2="17.7457" y2="63.2616" gradientUnits="userSpaceOnUse">
<stop stop-color="#8A7B88"/>
<stop offset="1" stop-color="#8A7B88" stop-opacity="0"/>
</linearGradient>
<radialGradient id="paint3_radial_1819_2108" cx="0" cy="0" r="1" gradientUnits="userSpaceOnUse" gradientTransform="translate(26.7484 53.7266) rotate(88.6357) scale(2.14133 9.53343)">
<stop offset="0.229" stop-color="#EDE2EB"/>
<stop offset="1" stop-color="#C8BCCB" stop-opacity="0"/>
</radialGradient>
<linearGradient id="paint4_linear_1819_2108" x1="27.156" y1="69.9539" x2="27.156" y2="66.6674" gradientUnits="userSpaceOnUse">
<stop stop-color="#7E5F9E"/>
<stop offset="1" stop-color="#7E5F9E" stop-opacity="0"/>
</linearGradient>
<linearGradient id="paint5_linear_1819_2108" x1="24.1333" y1="15.7926" x2="33.0166" y2="8.87181" gradientUnits="userSpaceOnUse">
<stop stop-color="white" stop-opacity="0"/>
<stop offset="0.594" stop-color="white"/>
</linearGradient>
<linearGradient id="paint6_linear_1819_2108" x1="22.5698" y1="64.64" x2="23.2607" y2="67.7244" gradientUnits="userSpaceOnUse">
<stop stop-color="#B1969A"/>
<stop offset="1" stop-color="#DAD2E2"/>
</linearGradient>
<linearGradient id="paint7_linear_1819_2108" x1="25.4901" y1="66.994" x2="25.1671" y2="64.9662" gradientUnits="userSpaceOnUse">
<stop stop-color="#8A68A9"/>
<stop offset="1" stop-color="#DEC2E3" stop-opacity="0"/>
</linearGradient>
<linearGradient id="paint8_linear_1819_2108" x1="12.1553" y1="67.8852" x2="19.2435" y2="66.3857" gradientUnits="userSpaceOnUse">
<stop stop-color="#958387"/>
<stop offset="1" stop-color="#958387" stop-opacity="0"/>
</linearGradient>
<radialGradient id="paint9_radial_1819_2108" cx="0" cy="0" r="1" gradientUnits="userSpaceOnUse" gradientTransform="translate(29.9911 64.4442) rotate(81.4165) scale(2.17415 12.8684)">
<stop offset="0.127" stop-color="#FCF0FC"/>
<stop offset="1" stop-color="#E5C9E3" stop-opacity="0"/>
</radialGradient>
<linearGradient id="paint10_linear_1819_2108" x1="22.5702" y1="58.4727" x2="23.2607" y2="61.5544" gradientUnits="userSpaceOnUse">
<stop stop-color="#B1969A"/>
<stop offset="1" stop-color="#DAD2E2"/>
</linearGradient>
<linearGradient id="paint11_linear_1819_2108" x1="25.4901" y1="60.8241" x2="25.1671" y2="58.7963" gradientUnits="userSpaceOnUse">
<stop stop-color="#8A68A9"/>
<stop offset="1" stop-color="#DEC2E3" stop-opacity="0"/>
</linearGradient>
<linearGradient id="paint12_linear_1819_2108" x1="12.1557" y1="61.7179" x2="19.2435" y2="60.2158" gradientUnits="userSpaceOnUse">
<stop stop-color="#958387"/>
<stop offset="1" stop-color="#958387" stop-opacity="0"/>
</linearGradient>
<radialGradient id="paint13_radial_1819_2108" cx="0" cy="0" r="1" gradientUnits="userSpaceOnUse" gradientTransform="translate(29.9911 58.2743) rotate(81.4165) scale(2.17414 12.8684)">
<stop offset="0.127" stop-color="#FCF0FC"/>
<stop offset="1" stop-color="#E5C9E3" stop-opacity="0"/>
</radialGradient>
</defs>
</svg>
