<svg width="36" height="36" viewBox="0 0 36 36" fill="none" xmlns="http://www.w3.org/2000/svg">
<path d="M15.1961 17.4031L7.31669 26.6761C7.06701 26.9703 6.75898 27.2095 6.4121 27.3786C6.06522 27.5476 5.68704 27.6428 5.30148 27.6582C4.91591 27.6735 4.53136 27.6087 4.17215 27.4677C3.81294 27.3267 3.48689 27.1128 3.21462 26.8393C2.94127 26.5659 2.72748 26.2389 2.58673 25.8788C2.44597 25.5187 2.3813 25.1333 2.39678 24.747C2.41226 24.3607 2.50756 23.9817 2.67667 23.6341C2.84579 23.2864 3.08506 22.9775 3.37941 22.7269L12.6283 14.8301M27.995 14.9069L20.0725 22.8485M15.1193 2L7.1967 9.94319M31.1948 17.4543L34.3945 14.8301M31.1948 22.7029L34.3945 24.4518M16.7991 34H32.7947M18.759 34C19.6405 32.419 20.2997 29.3947 23.4226 29.2267C24.3505 29.1755 25.2945 29.1755 26.2224 29.2267C29.3437 29.3947 30.0061 32.419 30.8892 34M14.1289 2.9937L8.18863 8.94949C8.18863 8.94949 11.1596 12.9211 14.1305 15.899C17.1031 18.8769 21.0644 21.8564 21.0644 21.8564L27.0063 15.899C27.0063 15.899 24.0354 11.929 21.0644 8.94949C18.0934 5.9732 14.1289 2.9937 14.1289 2.9937Z" stroke="black" stroke-width="3" stroke-linecap="round" stroke-linejoin="round"/>
</svg>
