<svg width="36" height="36" viewBox="0 0 36 36" fill="none" xmlns="http://www.w3.org/2000/svg">
<path d="M18.3945 7.33333C20.071 7.33333 20.9083 7.33333 21.4292 7.85422C21.9501 8.37511 21.9501 9.21244 21.9501 10.8889V25.1111C21.9501 26.7876 21.9501 27.6249 21.4292 28.1458C20.9083 28.6667 20.071 28.6667 18.3945 28.6667M18.3945 7.33333C16.7181 7.33333 15.8808 7.33333 15.3599 7.85422C14.839 8.37511 14.839 9.21244 14.839 10.8889V25.1111C14.839 26.7876 14.839 27.6249 15.3599 28.1458C15.8808 28.6667 16.7181 28.6667 18.3945 28.6667M18.3945 7.33333V2M18.3945 28.6667V34M30.839 5.55556C32.5154 5.55556 33.3528 5.55556 33.8736 6.07644C34.3945 6.59733 34.3945 7.43467 34.3945 9.11111V12.6667C34.3945 14.3431 34.3945 15.1804 33.8736 15.7013C33.3528 16.2222 32.5154 16.2222 30.839 16.2222M30.839 5.55556C29.1625 5.55556 28.3252 5.55556 27.8043 6.07644C27.2834 6.59733 27.2834 7.43467 27.2834 9.11111V12.6667C27.2834 14.3431 27.2834 15.1804 27.8043 15.7013C28.3252 16.2222 29.1625 16.2222 30.839 16.2222M30.839 5.55556V2M30.839 16.2222V19.7778M5.95009 14.4444C7.62653 14.4444 8.46386 14.4444 8.98475 14.9653C9.50564 15.4862 9.50564 16.3236 9.50564 18V21.5556C9.50564 23.232 9.50564 24.0693 8.98475 24.5902C8.46386 25.1111 7.62653 25.1111 5.95009 25.1111M5.95009 14.4444C4.27364 14.4444 3.43631 14.4444 2.91542 14.9653C2.39453 15.4862 2.39453 16.3236 2.39453 18V21.5556C2.39453 23.232 2.39453 24.0693 2.91542 24.5902C3.43631 25.1111 4.27364 25.1111 5.95009 25.1111M5.95009 14.4444V10.8889M5.95009 25.1111V28.6667" stroke="black" stroke-width="3" stroke-linecap="round" stroke-linejoin="round"/>
</svg>
