<svg width="49" height="49" viewBox="0 0 49 49" fill="none" xmlns="http://www.w3.org/2000/svg">
<path d="M0.878906 24.474C0.878906 30.7877 3.38703 36.8429 7.85152 41.3074C12.316 45.7719 18.3712 48.28 24.6849 48.28C30.9987 48.28 37.0538 45.7719 41.5183 41.3074C45.9828 36.8429 48.4909 30.7877 48.4909 24.474C48.4909 18.1602 45.9828 12.1051 41.5183 7.64059C37.0538 3.17609 30.9987 0.667969 24.6849 0.667969C18.3712 0.667969 12.316 3.17609 7.85152 7.64059C3.38703 12.1051 0.878906 18.1602 0.878906 24.474Z" fill="#550413" fill-opacity="0.29"/>
<path fill-rule="evenodd" clip-rule="evenodd" d="M39.9375 1.95895C39.8649 1.66658 39.716 1.39872 39.506 1.18278C39.296 0.966847 39.0323 0.810582 38.7421 0.729976C38.4518 0.64937 38.1454 0.647316 37.8541 0.724024C37.5628 0.800732 37.2971 0.953449 37.0841 1.16655L30.2824 7.96827C30.075 8.17614 29.9249 8.43419 29.8469 8.71728C29.7688 9.00038 29.7654 9.29886 29.8369 9.58368L31.0612 14.4945L31.0136 14.5421L22.8822 22.6736C22.4316 23.1571 22.1863 23.7966 22.198 24.4574C22.2097 25.1182 22.4773 25.7487 22.9447 26.216C23.412 26.6833 24.0425 26.951 24.7032 26.9627C25.364 26.9743 26.0036 26.729 26.4871 26.2785L34.6253 18.1504L34.6729 18.0994L39.5804 19.3271C39.8652 19.3987 40.1637 19.3953 40.4468 19.3172C40.7299 19.2391 40.9879 19.0891 41.1958 18.8816L47.9975 12.0799C48.2115 11.8671 48.365 11.6011 48.4422 11.3094C48.5194 11.0176 48.5176 10.7106 48.437 10.4198C48.3563 10.1289 48.1997 9.86482 47.9832 9.65453C47.7667 9.44425 47.4981 9.29537 47.2051 9.22319L41.393 7.77442L39.9375 1.95895ZM25.7627 3.25128C25.8094 3.9259 25.5863 4.59148 25.1425 5.10166C24.6986 5.61185 24.0703 5.92489 23.3957 5.97196C19.8425 6.21821 16.4346 7.47933 13.5771 9.60549C10.7195 11.7316 8.53245 14.6334 7.27567 17.9661C6.01889 21.2987 5.74526 24.9221 6.4873 28.4057C7.22933 31.8893 8.95584 35.0867 11.4617 37.6179C13.9675 40.149 17.1473 41.9077 20.6232 42.6847C24.0992 43.4618 27.7252 43.2247 31.0703 42.0015C34.4154 40.7783 37.3391 38.6205 39.4939 35.7846C41.6487 32.9486 42.9441 29.5536 43.2261 26.003C43.2798 25.3284 43.5992 24.7026 44.1143 24.2635C44.6293 23.8244 45.2976 23.6079 45.9723 23.6615C46.647 23.7152 47.2727 24.0347 47.7118 24.5497C48.1509 25.0647 48.3675 25.7331 48.3138 26.4077C47.9539 30.9316 46.3029 35.2571 43.557 38.8703C40.8112 42.4835 37.0858 45.2325 32.8235 46.7907C28.5612 48.349 23.9413 48.6509 19.5124 47.6607C15.0836 46.6706 11.0321 44.4298 7.83926 41.2048C4.64644 37.9797 2.44651 33.9059 1.50084 29.4674C0.555162 25.0288 0.903499 20.4121 2.50446 16.1657C4.10542 11.9193 6.89171 8.22169 10.5323 5.51223C14.1729 2.80277 18.5147 1.19533 23.042 0.880879C23.7166 0.834155 24.3822 1.05725 24.8924 1.50111C25.4026 1.94497 25.7156 2.57667 25.7627 3.25128ZM23.4773 14.4673C23.5995 14.7793 23.6591 15.1122 23.6526 15.4472C23.6461 15.7822 23.5737 16.1126 23.4394 16.4195C23.3052 16.7265 23.1118 17.004 22.8703 17.2363C22.6288 17.4685 22.3439 17.6508 22.032 17.7729C20.9166 18.2104 19.9279 18.919 19.1551 19.8345C18.3824 20.7501 17.85 21.8438 17.606 23.0167C17.362 24.1897 17.4142 25.405 17.7578 26.5527C18.1015 27.7005 18.7257 28.7445 19.5741 29.5904C20.4225 30.4363 21.4683 31.0575 22.617 31.3978C23.7658 31.7381 24.9812 31.7867 26.1534 31.5393C27.3257 31.2919 28.4178 30.7563 29.3311 29.9809C30.2444 29.2055 30.9501 28.2147 31.3843 27.0981C31.5058 26.7859 31.6876 26.5007 31.9193 26.2588C32.151 26.0169 32.428 25.8229 32.7347 25.6881C33.0413 25.5533 33.3715 25.4801 33.7064 25.4729C34.0413 25.4657 34.3744 25.5245 34.6865 25.6459C34.9987 25.7674 35.2839 25.9492 35.5258 26.1809C35.7678 26.4126 35.9617 26.6897 36.0965 26.9963C36.2314 27.3029 36.3045 27.6331 36.3118 27.968C36.319 28.3029 36.2602 28.636 36.1387 28.9482C35.397 30.855 34.1917 32.5468 32.6319 33.8709C31.0721 35.1949 29.2069 36.1092 27.2049 36.5313C25.203 36.9534 23.1274 36.8699 21.1658 36.2884C19.2042 35.7068 17.4185 34.6456 15.97 33.2005C14.5216 31.7555 13.4562 29.9723 12.87 28.0121C12.2839 26.0518 12.1955 23.9764 12.6129 21.9735C13.0303 19.9705 13.9403 18.1032 15.2606 16.5403C16.581 14.9774 18.27 13.7681 20.1751 13.0219C20.8047 12.7762 21.5061 12.7904 22.1253 13.0614C22.7444 13.3324 23.2307 13.838 23.4773 14.4673Z" fill="#550413"/>
</svg>
