<svg width="36" height="36" viewBox="0 0 36 36" fill="none" xmlns="http://www.w3.org/2000/svg">
<path d="M2 13.2053C2 16.1779 3.1809 19.0288 5.28291 21.1308C7.38492 23.2327 10.2359 24.4136 13.2086 24.4136C16.1813 24.4136 19.0322 23.2327 21.1342 21.1308C23.2362 19.0288 24.4171 16.1779 24.4171 13.2053C24.4171 10.2327 23.2362 7.38185 21.1342 5.27989C19.0322 3.17794 16.1813 1.99707 13.2086 1.99707C10.2359 1.99707 7.38492 3.17794 5.28291 5.27989C3.1809 7.38185 2 10.2327 2 13.2053Z" fill="#E1CDD1"/>
<path d="M17.9219 35.3852V21.1631C17.9219 20.3431 18.2476 19.5567 18.8275 18.9768C19.4073 18.397 20.1937 18.0713 21.0137 18.0713C21.8337 18.0713 22.6202 18.397 23.2 18.9768C23.7798 19.5567 24.1056 20.3431 24.1056 21.1631V27.9649H29.0525C30.3645 27.9649 31.6228 28.4861 32.5505 29.4138C33.4783 30.3415 33.9995 31.5998 33.9995 32.9117V35.3852" fill="white"/>
<path d="M17.9219 34.1485V21.163C17.9219 20.757 18.0018 20.355 18.1572 19.9799C18.3126 19.6048 18.5404 19.2639 18.8275 18.9768C19.1146 18.6897 19.4554 18.462 19.8305 18.3066C20.2056 18.1513 20.6077 18.0713 21.0137 18.0713C21.8337 18.0713 22.6202 18.397 23.2 18.9768C23.7798 19.5567 24.1056 20.3431 24.1056 21.163V27.9649H29.0525C30.3645 27.9649 31.6228 28.4861 32.5505 29.4138C33.4783 30.3415 33.9995 31.5998 33.9995 32.9117V34.1485" stroke="#550413" stroke-width="3" stroke-linecap="round" stroke-linejoin="round"/>
<path d="M13.2097 24.415C10.9276 24.4147 8.70001 23.7178 6.82471 22.4173C4.94941 21.1169 3.5158 19.275 2.71556 17.1379C1.91531 15.0008 1.78657 12.6703 2.34654 10.4581C2.90652 8.24579 4.12852 6.2572 5.84917 4.75814C7.56981 3.25909 9.7071 2.32101 11.9753 2.06935C14.2434 1.81768 16.5344 2.26441 18.5418 3.34982C20.5492 4.43522 22.1774 6.10756 23.2088 8.14326C24.2401 10.1789 24.6254 12.481 24.3131 14.7415" stroke="#550413" stroke-width="3" stroke-linecap="round"/>
<path d="M16.3622 9.91178C16.1922 9.42885 15.8766 9.01057 15.4588 8.71463C15.041 8.41869 14.5417 8.25969 14.0297 8.25954H12.1128C11.569 8.26107 11.0448 8.46315 10.6408 8.82708C10.2367 9.19101 9.98105 9.69121 9.92285 10.2319C9.86464 10.7726 10.0079 11.3157 10.3253 11.7573C10.6427 12.1989 11.1118 12.5079 11.6428 12.6251L14.5566 13.2633C15.1528 13.3934 15.6798 13.7393 16.0364 14.2345C16.393 14.7297 16.5539 15.3393 16.4882 15.946C16.4226 16.5526 16.1349 17.1136 15.6807 17.5211C15.2264 17.9285 14.6375 18.1536 14.0272 18.1532H12.3774C11.8661 18.1534 11.3672 17.9951 10.9495 17.7001C10.5318 17.4051 10.2158 16.9879 10.0449 16.5059M13.2061 8.25954V5.78613M13.2061 20.6266V18.1532" stroke="#550413" stroke-width="3" stroke-linecap="round" stroke-linejoin="round"/>
</svg>
