<svg width="32" height="32" viewBox="0 0 32 32" fill="none" xmlns="http://www.w3.org/2000/svg">
<g filter="url(#filter0_i_1797_4373)">
<path d="M25.1228 10.1796C25.1228 11.4369 24.0941 12.4656 22.8368 12.4656C21.5795 12.4656 20.5508 11.4369 20.5508 10.1796C20.5508 9.85957 20.8137 9.60811 21.1223 9.60811C21.4423 9.60811 21.6938 9.85957 21.6938 10.1796C21.6938 10.8083 22.2082 11.3226 22.8368 11.3226C23.4655 11.3226 23.9798 10.8083 23.9798 10.1796C23.9798 9.55096 23.4883 9.04805 22.8597 9.03662C22.5133 9.03662 22.2882 8.74287 22.2882 8.3394V2.55587C22.2882 2.24726 22.5511 1.98438 22.8597 1.98438C23.1797 1.98438 23.4312 2.24726 23.4312 2.55587V7.96221C24.4027 8.2251 25.1228 9.12806 25.1228 10.1796Z" fill="#550413"/>
</g>
<path d="M25.1228 10.1796C25.1228 11.4369 24.0941 12.4656 22.8368 12.4656C21.5795 12.4656 20.5508 11.4369 20.5508 10.1796C20.5508 9.85957 20.8137 9.60811 21.1223 9.60811C21.4423 9.60811 21.6938 9.85957 21.6938 10.1796C21.6938 10.8083 22.2082 11.3226 22.8368 11.3226C23.4655 11.3226 23.9798 10.8083 23.9798 10.1796C23.9798 9.55096 23.4883 9.04805 22.8597 9.03662C22.5133 9.03662 22.2882 8.70287 22.2882 8.3394V2.55587C22.2882 2.24726 22.5511 1.98438 22.8597 1.98438C23.1797 1.98438 23.4312 2.24726 23.4312 2.55587V7.96221C24.4027 8.2251 25.1228 9.12806 25.1228 10.1796Z" fill="#550413"/>
<path d="M25.1228 10.1796C25.1228 11.4369 24.0941 12.4656 22.8368 12.4656C21.5795 12.4656 20.5508 11.4369 20.5508 10.1796C20.5508 9.85957 20.8137 9.60811 21.1223 9.60811C21.4423 9.60811 21.6938 9.85957 21.6938 10.1796C21.6938 10.8083 22.2082 11.3226 22.8368 11.3226C23.4655 11.3226 23.9798 10.8083 23.9798 10.1796C23.9798 9.55096 23.4883 9.04805 22.8597 9.03662C22.5133 9.03662 22.2882 8.70287 22.2882 8.3394V2.55587C22.2882 2.24726 22.5511 1.98438 22.8597 1.98438C23.1797 1.98438 23.4312 2.24726 23.4312 2.55587V7.96221C24.4027 8.2251 25.1228 9.12806 25.1228 10.1796Z" fill="#550413"/>
<path d="M25.1228 10.1796C25.1228 11.4369 24.0941 12.4656 22.8368 12.4656C21.5795 12.4656 20.5508 11.4369 20.5508 10.1796C20.5508 9.85957 20.8137 9.60811 21.1223 9.60811C21.4423 9.60811 21.6938 9.85957 21.6938 10.1796C21.6938 10.8083 22.2082 11.3226 22.8368 11.3226C23.4655 11.3226 23.9798 10.8083 23.9798 10.1796C23.9798 9.55096 23.4883 9.04805 22.8597 9.03662C22.5133 9.03662 22.2882 8.70287 22.2882 8.3394V2.55587C22.2882 2.24726 22.5511 1.98438 22.8597 1.98438C23.1797 1.98438 23.4312 2.24726 23.4312 2.55587V7.96221C24.4027 8.2251 25.1228 9.12806 25.1228 10.1796Z" fill="#550413"/>
<path d="M25.1228 10.1796C25.1228 11.4369 24.0941 12.4656 22.8368 12.4656C21.5795 12.4656 20.5508 11.4369 20.5508 10.1796C20.5508 9.85957 20.8137 9.60811 21.1223 9.60811C21.4423 9.60811 21.6938 9.85957 21.6938 10.1796C21.6938 10.8083 22.2082 11.3226 22.8368 11.3226C23.4655 11.3226 23.9798 10.8083 23.9798 10.1796C23.9798 9.55096 23.4883 9.04805 22.8597 9.03662C22.5133 9.03662 22.2882 8.70287 22.2882 8.3394V2.55587C22.2882 2.24726 22.5511 1.98438 22.8597 1.98438C23.1797 1.98438 23.4312 2.24726 23.4312 2.55587V7.96221C24.4027 8.2251 25.1228 9.12806 25.1228 10.1796Z" fill="#550413"/>
<path d="M25.1228 10.1796C25.1228 11.4369 24.0941 12.4656 22.8368 12.4656C21.5795 12.4656 20.5508 11.4369 20.5508 10.1796C20.5508 9.85957 20.8137 9.60811 21.1223 9.60811C21.4423 9.60811 21.6938 9.85957 21.6938 10.1796C21.6938 10.8083 22.2082 11.3226 22.8368 11.3226C23.4655 11.3226 23.9798 10.8083 23.9798 10.1796C23.9798 9.55096 23.4883 9.04805 22.8597 9.03662C22.5133 9.03662 22.2882 8.70287 22.2882 8.3394V2.55587C22.2882 2.24726 22.5511 1.98438 22.8597 1.98438C23.1797 1.98438 23.4312 2.24726 23.4312 2.55587V7.96221C24.4027 8.2251 25.1228 9.12806 25.1228 10.1796Z" fill="#550413"/>
<path d="M25.1228 10.1796C25.1228 11.4369 24.0941 12.4656 22.8368 12.4656C21.5795 12.4656 20.5508 11.4369 20.5508 10.1796C20.5508 9.85957 20.8137 9.60811 21.1223 9.60811C21.4423 9.60811 21.6938 9.85957 21.6938 10.1796C21.6938 10.8083 22.2082 11.3226 22.8368 11.3226C23.4655 11.3226 23.9798 10.8083 23.9798 10.1796C23.9798 9.55096 23.4883 9.04805 22.8597 9.03662C22.5133 9.03662 22.2882 8.70287 22.2882 8.3394V2.55587C22.2882 2.24726 22.5511 1.98438 22.8597 1.98438C23.1797 1.98438 23.4312 2.24726 23.4312 2.55587V7.96221C24.4027 8.2251 25.1228 9.12806 25.1228 10.1796Z" fill="#550413"/>
<g filter="url(#filter1_i_1797_4373)">
<path d="M24.1061 2.14453H21.6144C21.036 2.14453 20.5742 2.65202 20.5742 3.28752C20.5742 3.92302 21.036 4.43051 21.6144 4.43051H24.1061C24.6845 4.43051 25.1463 3.92302 25.1463 3.28752C25.1463 2.65202 24.6845 2.14453 24.1061 2.14453Z" fill="#550413"/>
<path d="M24.1061 2.14453H21.6144C21.036 2.14453 20.5742 2.65202 20.5742 3.28752C20.5742 3.92302 21.036 4.43051 21.6144 4.43051H24.1061C24.6845 4.43051 25.1463 3.92302 25.1463 3.28752C25.1463 2.65202 24.6845 2.14453 24.1061 2.14453Z" fill="#550413"/>
</g>
<path d="M29.7162 14.7148H16V18.1438H29.7162V14.7148Z" fill="#550413"/>
<path d="M29.7162 14.7148H16V18.1438H29.7162V14.7148Z" fill="#550413"/>
<path d="M29.7162 14.7148H16V18.1438H29.7162V14.7148Z" fill="#550413"/>
<path d="M29.7162 14.7148H16V18.1438H29.7162V14.7148Z" fill="#550413"/>
<path d="M30.2816 14.7172H15.443C15.2895 14.7185 15.1418 14.6591 15.0318 14.5522C14.9218 14.4452 14.8585 14.2991 14.8555 14.1457C14.8555 13.8326 15.1206 13.5742 15.443 13.5742H30.2702C30.4236 13.573 30.5713 13.6323 30.6813 13.7393C30.7913 13.8463 30.8547 13.9923 30.8577 14.1457C30.8577 14.2212 30.8428 14.2959 30.8137 14.3655C30.7847 14.4351 30.7422 14.4983 30.6887 14.5515C30.6351 14.6046 30.5716 14.6466 30.5017 14.675C30.4318 14.7035 30.357 14.7178 30.2816 14.7172Z" fill="#550413"/>
<path d="M30.2816 14.7172H15.443C15.2895 14.7185 15.1418 14.6591 15.0318 14.5522C14.9218 14.4452 14.8585 14.2991 14.8555 14.1457C14.8555 13.8326 15.1206 13.5742 15.443 13.5742H30.2702C30.4236 13.573 30.5713 13.6323 30.6813 13.7393C30.7913 13.8463 30.8547 13.9923 30.8577 14.1457C30.8577 14.2212 30.8428 14.2959 30.8137 14.3655C30.7847 14.4351 30.7422 14.4983 30.6887 14.5515C30.6351 14.6046 30.5716 14.6466 30.5017 14.675C30.4318 14.7035 30.357 14.7178 30.2816 14.7172Z" fill="#550413"/>
<path d="M30.2816 14.7172H15.443C15.2895 14.7185 15.1418 14.6591 15.0318 14.5522C14.9218 14.4452 14.8585 14.2991 14.8555 14.1457C14.8555 13.8326 15.1206 13.5742 15.443 13.5742H30.2702C30.4236 13.573 30.5713 13.6323 30.6813 13.7393C30.7913 13.8463 30.8547 13.9923 30.8577 14.1457C30.8577 14.2212 30.8428 14.2959 30.8137 14.3655C30.7847 14.4351 30.7422 14.4983 30.6887 14.5515C30.6351 14.6046 30.5716 14.6466 30.5017 14.675C30.4318 14.7035 30.357 14.7178 30.2816 14.7172Z" fill="#550413"/>
<path d="M30.2816 14.7172H15.443C15.2895 14.7185 15.1418 14.6591 15.0318 14.5522C14.9218 14.4452 14.8585 14.2991 14.8555 14.1457C14.8555 13.8326 15.1206 13.5742 15.443 13.5742H30.2702C30.4236 13.573 30.5713 13.6323 30.6813 13.7393C30.7913 13.8463 30.8547 13.9923 30.8577 14.1457C30.8577 14.2212 30.8428 14.2959 30.8137 14.3655C30.7847 14.4351 30.7422 14.4983 30.6887 14.5515C30.6351 14.6046 30.5716 14.6466 30.5017 14.675C30.4318 14.7035 30.357 14.7178 30.2816 14.7172Z" fill="#550413"/>
<path d="M30.2816 14.7172H15.443C15.2895 14.7185 15.1418 14.6591 15.0318 14.5522C14.9218 14.4452 14.8585 14.2991 14.8555 14.1457C14.8555 13.8326 15.1206 13.5742 15.443 13.5742H30.2702C30.4236 13.573 30.5713 13.6323 30.6813 13.7393C30.7913 13.8463 30.8547 13.9923 30.8577 14.1457C30.8577 14.2212 30.8428 14.2959 30.8137 14.3655C30.7847 14.4351 30.7422 14.4983 30.6887 14.5515C30.6351 14.6046 30.5716 14.6466 30.5017 14.675C30.4318 14.7035 30.357 14.7178 30.2816 14.7172Z" fill="#550413"/>
<path d="M30.2816 14.7172H15.443C15.2895 14.7185 15.1418 14.6591 15.0318 14.5522C14.9218 14.4452 14.8585 14.2991 14.8555 14.1457C14.8555 13.8326 15.1206 13.5742 15.443 13.5742H30.2702C30.4236 13.573 30.5713 13.6323 30.6813 13.7393C30.7913 13.8463 30.8547 13.9923 30.8577 14.1457C30.8577 14.2212 30.8428 14.2959 30.8137 14.3655C30.7847 14.4351 30.7422 14.4983 30.6887 14.5515C30.6351 14.6046 30.5716 14.6466 30.5017 14.675C30.4318 14.7035 30.357 14.7178 30.2816 14.7172Z" fill="#550413"/>
<path d="M30.2702 19.2875H15.443C15.2895 19.2888 15.1418 19.2295 15.0318 19.1225C14.9218 19.0155 14.8585 18.8695 14.8555 18.716C14.8555 18.4029 15.1206 18.1446 15.443 18.1446H30.2702C30.4236 18.1433 30.5713 18.2026 30.6813 18.3096C30.7913 18.4166 30.8547 18.5626 30.8577 18.716C30.8547 18.8695 30.7913 19.0155 30.6813 19.1225C30.5713 19.2295 30.4236 19.2888 30.2702 19.2875Z" fill="#550413"/>
<path d="M30.2702 19.2875H15.443C15.2895 19.2888 15.1418 19.2295 15.0318 19.1225C14.9218 19.0155 14.8585 18.8695 14.8555 18.716C14.8555 18.4029 15.1206 18.1446 15.443 18.1446H30.2702C30.4236 18.1433 30.5713 18.2026 30.6813 18.3096C30.7913 18.4166 30.8547 18.5626 30.8577 18.716C30.8547 18.8695 30.7913 19.0155 30.6813 19.1225C30.5713 19.2295 30.4236 19.2888 30.2702 19.2875Z" fill="#550413"/>
<path d="M30.2702 19.2875H15.443C15.2895 19.2888 15.1418 19.2295 15.0318 19.1225C14.9218 19.0155 14.8585 18.8695 14.8555 18.716C14.8555 18.4029 15.1206 18.1446 15.443 18.1446H30.2702C30.4236 18.1433 30.5713 18.2026 30.6813 18.3096C30.7913 18.4166 30.8547 18.5626 30.8577 18.716C30.8547 18.8695 30.7913 19.0155 30.6813 19.1225C30.5713 19.2295 30.4236 19.2888 30.2702 19.2875Z" fill="#550413"/>
<path d="M30.2702 19.2875H15.443C15.2895 19.2888 15.1418 19.2295 15.0318 19.1225C14.9218 19.0155 14.8585 18.8695 14.8555 18.716C14.8555 18.4029 15.1206 18.1446 15.443 18.1446H30.2702C30.4236 18.1433 30.5713 18.2026 30.6813 18.3096C30.7913 18.4166 30.8547 18.5626 30.8577 18.716C30.8547 18.8695 30.7913 19.0155 30.6813 19.1225C30.5713 19.2295 30.4236 19.2888 30.2702 19.2875Z" fill="#550413"/>
<path d="M30.2702 19.2875H15.443C15.2895 19.2888 15.1418 19.2295 15.0318 19.1225C14.9218 19.0155 14.8585 18.8695 14.8555 18.716C14.8555 18.4029 15.1206 18.1446 15.443 18.1446H30.2702C30.4236 18.1433 30.5713 18.2026 30.6813 18.3096C30.7913 18.4166 30.8547 18.5626 30.8577 18.716C30.8547 18.8695 30.7913 19.0155 30.6813 19.1225C30.5713 19.2295 30.4236 19.2888 30.2702 19.2875Z" fill="#550413"/>
<path d="M28.5366 19.9389C28.6419 19.9399 28.7455 19.9117 28.8358 19.8574C28.9261 19.8031 28.9996 19.7249 29.0481 19.6313C29.0967 19.5378 29.1184 19.4327 29.1108 19.3276C29.1032 19.2225 29.0667 19.1216 29.0052 19.036L23.3016 10.9779C23.2583 10.9161 23.2031 10.8635 23.1394 10.8231C23.0756 10.7827 23.0045 10.7553 22.9301 10.7426C22.8557 10.7298 22.7795 10.7319 22.706 10.7488C22.6324 10.7656 22.5629 10.7969 22.5015 10.8407C22.2386 11.0236 22.1814 11.378 22.3643 11.6408L28.0679 19.6989C28.1822 19.8589 28.3537 19.9389 28.5366 19.9389Z" fill="#550413"/>
<path d="M28.5366 19.9389C28.6419 19.9399 28.7455 19.9117 28.8358 19.8574C28.9261 19.8031 28.9996 19.7249 29.0481 19.6313C29.0967 19.5378 29.1184 19.4327 29.1108 19.3276C29.1032 19.2225 29.0667 19.1216 29.0052 19.036L23.3016 10.9779C23.2583 10.9161 23.2031 10.8635 23.1394 10.8231C23.0756 10.7827 23.0045 10.7553 22.9301 10.7426C22.8557 10.7298 22.7795 10.7319 22.706 10.7488C22.6324 10.7656 22.5629 10.7969 22.5015 10.8407C22.2386 11.0236 22.1814 11.378 22.3643 11.6408L28.0679 19.6989C28.1822 19.8589 28.3537 19.9389 28.5366 19.9389Z" fill="#550413"/>
<g filter="url(#filter2_f_1797_4373)">
<path d="M21.3242 10.1484C21.3242 10.5999 21.6385 11.4766 22.5244 11.4766" stroke="#550413" stroke-width="0.443965" stroke-linecap="round"/>
</g>
<path d="M17.1304 19.939C17.025 19.94 16.9214 19.9118 16.8311 19.8575C16.7408 19.8032 16.6673 19.725 16.6188 19.6315C16.5703 19.5379 16.5486 19.4328 16.5562 19.3277C16.5637 19.2226 16.6003 19.1217 16.6617 19.0361L22.3654 10.978C22.5483 10.7151 22.9026 10.658 23.1655 10.8409C23.4284 11.0237 23.4855 11.3781 23.3027 11.6409L17.599 19.699C17.4847 19.859 17.3133 19.939 17.1304 19.939Z" fill="#550413"/>
<path d="M29.7276 29.5781H2.27239C1.68718 29.579 1.12474 29.805 0.701673 30.2093C0.27861 30.6136 0.0273806 31.1652 7.33713e-05 31.7498C-0.00221266 31.8127 0.0492228 31.8641 0.112089 31.8641H31.8879C31.9508 31.8641 32.0022 31.8127 31.9999 31.7498C31.9726 31.1652 31.7214 30.6136 31.2983 30.2093C30.8753 29.805 30.3128 29.579 29.7276 29.5781Z" fill="#550413"/>
<path d="M29.7276 29.5781H2.27239C1.68718 29.579 1.12474 29.805 0.701673 30.2093C0.27861 30.6136 0.0273806 31.1652 7.33713e-05 31.7498C-0.00221266 31.8127 0.0492228 31.8641 0.112089 31.8641H31.8879C31.9508 31.8641 32.0022 31.8127 31.9999 31.7498C31.9726 31.1652 31.7214 30.6136 31.2983 30.2093C30.8753 29.805 30.3128 29.579 29.7276 29.5781Z" fill="#550413"/>
<path d="M29.7276 29.5781H2.27239C1.68718 29.579 1.12474 29.805 0.701673 30.2093C0.27861 30.6136 0.0273806 31.1652 7.33713e-05 31.7498C-0.00221266 31.8127 0.0492228 31.8641 0.112089 31.8641H31.8879C31.9508 31.8641 32.0022 31.8127 31.9999 31.7498C31.9726 31.1652 31.7214 30.6136 31.2983 30.2093C30.8753 29.805 30.3128 29.579 29.7276 29.5781Z" fill="#550413"/>
<path d="M6.85156 3.28516H12.5666V5.57114H6.85156V3.28516Z" fill="#550413"/>
<path d="M6.85156 3.28516H12.5666V5.57114H6.85156V3.28516Z" fill="#550413"/>
<path d="M11.457 4.39551V4.46094H7.96191V4.39551H11.457Z" fill="#550413" stroke="#550413" stroke-width="2.21982"/>
<g filter="url(#filter3_i_1797_4373)">
<path fill-rule="evenodd" clip-rule="evenodd" d="M5.71094 2.8276C5.71094 2.79728 5.72298 2.76821 5.74442 2.74678C5.76585 2.72534 5.79492 2.7133 5.82524 2.7133H6.73965C6.76997 2.7133 6.79904 2.72534 6.82047 2.74678C6.84191 2.76821 6.85395 2.79728 6.85395 2.8276V7.89104C6.85401 7.91052 6.85905 7.92967 6.86859 7.94666C6.87813 7.96365 6.89186 7.97792 6.90846 7.98811C6.92507 7.9983 6.944 8.00408 6.96347 8.00489C6.98294 8.00571 7.00229 8.00154 7.01969 7.99277L12.5062 5.24959C12.5252 5.24001 12.5412 5.2253 12.5523 5.20712C12.5634 5.18894 12.5692 5.16803 12.569 5.14672V2.39555C12.569 2.36523 12.5811 2.33616 12.6025 2.31473C12.6239 2.29329 12.653 2.28125 12.6833 2.28125H13.5977C13.6281 2.28125 13.6571 2.29329 13.6786 2.31473C13.7 2.33616 13.712 2.36523 13.712 2.39555V27.7448C13.712 27.7751 13.7 27.8042 13.6786 27.8256C13.6571 27.847 13.6281 27.8591 13.5977 27.8591H12.6833C12.653 27.8591 12.6239 27.847 12.6025 27.8256C12.5811 27.8042 12.569 27.7751 12.569 27.7448V24.9673C12.569 24.9478 12.5639 24.9287 12.5544 24.9117C12.5449 24.8947 12.5311 24.8804 12.5145 24.8702C12.4979 24.86 12.479 24.8543 12.4595 24.8534C12.44 24.8526 12.4207 24.8568 12.4033 24.8656L6.91682 27.6087C6.89779 27.6183 6.88183 27.633 6.87072 27.6512C6.85961 27.6694 6.8538 27.6903 6.85395 27.7116V27.7448C6.85395 27.7751 6.84191 27.8042 6.82047 27.8256C6.79904 27.847 6.76997 27.8591 6.73965 27.8591H5.82524C5.79492 27.8591 5.76585 27.847 5.74442 27.8256C5.72298 27.8042 5.71094 27.7751 5.71094 27.7448V2.8276ZM6.85395 26.1789C6.85401 26.1984 6.85905 26.2175 6.86859 26.2345C6.87813 26.2515 6.89186 26.2657 6.90846 26.2759C6.92507 26.2861 6.944 26.2919 6.96347 26.2927C6.98294 26.2935 7.00229 26.2894 7.01969 26.2806L11.4294 24.0746C11.538 24.0209 11.498 23.8586 11.378 23.8586H6.96825C6.93794 23.8586 6.90887 23.8706 6.88743 23.8921C6.866 23.9135 6.85395 23.9426 6.85395 23.9729V26.1789ZM12.569 6.67947C12.569 6.65999 12.5639 6.64084 12.5544 6.62385C12.5449 6.60687 12.5311 6.5926 12.5145 6.58241C12.4979 6.57221 12.479 6.56644 12.4595 6.56562C12.44 6.5648 12.4207 6.56898 12.4033 6.57775L7.99354 8.78372C7.8861 8.83744 7.92496 8.99974 8.04497 8.99974H12.4547C12.485 8.99974 12.5141 8.9877 12.5356 8.96626C12.557 8.94483 12.569 8.91576 12.569 8.88544V6.67947ZM6.85395 12.463C6.85401 12.4825 6.85905 12.5016 6.86859 12.5186C6.87813 12.5356 6.89186 12.5499 6.90846 12.5601C6.92507 12.5703 6.944 12.576 6.96347 12.5769C6.98294 12.5777 7.00229 12.5735 7.01969 12.5647L11.4294 10.3588C11.538 10.305 11.498 10.1427 11.378 10.1427H6.96825C6.93794 10.1427 6.90887 10.1548 6.88743 10.1762C6.866 10.1976 6.85395 10.2267 6.85395 10.257V12.463ZM12.569 11.2514C12.569 11.2319 12.5639 11.2128 12.5544 11.1958C12.5449 11.1788 12.5311 11.1646 12.5145 11.1544C12.4979 11.1442 12.479 11.1384 12.4595 11.1376C12.44 11.1368 12.4207 11.1409 12.4033 11.1497L7.99354 13.3557C7.8861 13.4094 7.92496 13.5717 8.04497 13.5717H12.4547C12.485 13.5717 12.5141 13.5597 12.5356 13.5382C12.557 13.5168 12.569 13.4877 12.569 13.4574V11.2514ZM6.85395 17.035C6.85401 17.0544 6.85905 17.0736 6.86859 17.0906C6.87813 17.1076 6.89186 17.1218 6.90846 17.132C6.92507 17.1422 6.944 17.148 6.96347 17.1488C6.98294 17.1496 7.00229 17.1454 7.01969 17.1367L11.4294 14.9307C11.538 14.877 11.498 14.7147 11.378 14.7147H6.96825C6.93794 14.7147 6.90887 14.7267 6.88743 14.7482C6.866 14.7696 6.85395 14.7987 6.85395 14.829V17.035ZM12.569 15.8234C12.569 15.8039 12.5639 15.7848 12.5544 15.7678C12.5449 15.7508 12.5311 15.7365 12.5145 15.7263C12.4979 15.7161 12.479 15.7103 12.4595 15.7095C12.44 15.7087 12.4207 15.7129 12.4033 15.7217L7.99354 17.9276C7.8861 17.9814 7.92496 18.1437 8.04497 18.1437H12.4547C12.485 18.1437 12.5141 18.1316 12.5356 18.1102C12.557 18.0887 12.569 18.0597 12.569 18.0294V15.8234ZM6.85395 21.6069C6.85401 21.6264 6.85905 21.6455 6.86859 21.6625C6.87813 21.6795 6.89186 21.6938 6.90846 21.704C6.92507 21.7142 6.944 21.72 6.96347 21.7208C6.98294 21.7216 7.00229 21.7174 7.01969 21.7086L11.4294 19.5027C11.538 19.4489 11.498 19.2866 11.378 19.2866H6.96825C6.93794 19.2866 6.90887 19.2987 6.88743 19.3201C6.866 19.3416 6.85395 19.3706 6.85395 19.4009V21.6069ZM12.569 20.3953C12.569 20.3759 12.5639 20.3567 12.5544 20.3397C12.5449 20.3227 12.5311 20.3085 12.5145 20.2983C12.4979 20.2881 12.479 20.2823 12.4595 20.2815C12.44 20.2807 12.4207 20.2849 12.4033 20.2936L7.99354 22.4996C7.8861 22.5533 7.92496 22.7156 8.04497 22.7156H12.4547C12.485 22.7156 12.5141 22.7036 12.5356 22.6821C12.557 22.6607 12.569 22.6316 12.569 22.6013V20.3953Z" fill="#550413"/>
<path fill-rule="evenodd" clip-rule="evenodd" d="M5.71094 2.8276C5.71094 2.79728 5.72298 2.76821 5.74442 2.74678C5.76585 2.72534 5.79492 2.7133 5.82524 2.7133H6.73965C6.76997 2.7133 6.79904 2.72534 6.82047 2.74678C6.84191 2.76821 6.85395 2.79728 6.85395 2.8276V7.89104C6.85401 7.91052 6.85905 7.92967 6.86859 7.94666C6.87813 7.96365 6.89186 7.97792 6.90846 7.98811C6.92507 7.9983 6.944 8.00408 6.96347 8.00489C6.98294 8.00571 7.00229 8.00154 7.01969 7.99277L12.5062 5.24959C12.5252 5.24001 12.5412 5.2253 12.5523 5.20712C12.5634 5.18894 12.5692 5.16803 12.569 5.14672V2.39555C12.569 2.36523 12.5811 2.33616 12.6025 2.31473C12.6239 2.29329 12.653 2.28125 12.6833 2.28125H13.5977C13.6281 2.28125 13.6571 2.29329 13.6786 2.31473C13.7 2.33616 13.712 2.36523 13.712 2.39555V27.7448C13.712 27.7751 13.7 27.8042 13.6786 27.8256C13.6571 27.847 13.6281 27.8591 13.5977 27.8591H12.6833C12.653 27.8591 12.6239 27.847 12.6025 27.8256C12.5811 27.8042 12.569 27.7751 12.569 27.7448V24.9673C12.569 24.9478 12.5639 24.9287 12.5544 24.9117C12.5449 24.8947 12.5311 24.8804 12.5145 24.8702C12.4979 24.86 12.479 24.8543 12.4595 24.8534C12.44 24.8526 12.4207 24.8568 12.4033 24.8656L6.91682 27.6087C6.89779 27.6183 6.88183 27.633 6.87072 27.6512C6.85961 27.6694 6.8538 27.6903 6.85395 27.7116V27.7448C6.85395 27.7751 6.84191 27.8042 6.82047 27.8256C6.79904 27.847 6.76997 27.8591 6.73965 27.8591H5.82524C5.79492 27.8591 5.76585 27.847 5.74442 27.8256C5.72298 27.8042 5.71094 27.7751 5.71094 27.7448V2.8276ZM6.85395 26.1789C6.85401 26.1984 6.85905 26.2175 6.86859 26.2345C6.87813 26.2515 6.89186 26.2657 6.90846 26.2759C6.92507 26.2861 6.944 26.2919 6.96347 26.2927C6.98294 26.2935 7.00229 26.2894 7.01969 26.2806L11.4294 24.0746C11.538 24.0209 11.498 23.8586 11.378 23.8586H6.96825C6.93794 23.8586 6.90887 23.8706 6.88743 23.8921C6.866 23.9135 6.85395 23.9426 6.85395 23.9729V26.1789ZM12.569 6.67947C12.569 6.65999 12.5639 6.64084 12.5544 6.62385C12.5449 6.60687 12.5311 6.5926 12.5145 6.58241C12.4979 6.57221 12.479 6.56644 12.4595 6.56562C12.44 6.5648 12.4207 6.56898 12.4033 6.57775L7.99354 8.78372C7.8861 8.83744 7.92496 8.99974 8.04497 8.99974H12.4547C12.485 8.99974 12.5141 8.9877 12.5356 8.96626C12.557 8.94483 12.569 8.91576 12.569 8.88544V6.67947ZM6.85395 12.463C6.85401 12.4825 6.85905 12.5016 6.86859 12.5186C6.87813 12.5356 6.89186 12.5499 6.90846 12.5601C6.92507 12.5703 6.944 12.576 6.96347 12.5769C6.98294 12.5777 7.00229 12.5735 7.01969 12.5647L11.4294 10.3588C11.538 10.305 11.498 10.1427 11.378 10.1427H6.96825C6.93794 10.1427 6.90887 10.1548 6.88743 10.1762C6.866 10.1976 6.85395 10.2267 6.85395 10.257V12.463ZM12.569 11.2514C12.569 11.2319 12.5639 11.2128 12.5544 11.1958C12.5449 11.1788 12.5311 11.1646 12.5145 11.1544C12.4979 11.1442 12.479 11.1384 12.4595 11.1376C12.44 11.1368 12.4207 11.1409 12.4033 11.1497L7.99354 13.3557C7.8861 13.4094 7.92496 13.5717 8.04497 13.5717H12.4547C12.485 13.5717 12.5141 13.5597 12.5356 13.5382C12.557 13.5168 12.569 13.4877 12.569 13.4574V11.2514ZM6.85395 17.035C6.85401 17.0544 6.85905 17.0736 6.86859 17.0906C6.87813 17.1076 6.89186 17.1218 6.90846 17.132C6.92507 17.1422 6.944 17.148 6.96347 17.1488C6.98294 17.1496 7.00229 17.1454 7.01969 17.1367L11.4294 14.9307C11.538 14.877 11.498 14.7147 11.378 14.7147H6.96825C6.93794 14.7147 6.90887 14.7267 6.88743 14.7482C6.866 14.7696 6.85395 14.7987 6.85395 14.829V17.035ZM12.569 15.8234C12.569 15.8039 12.5639 15.7848 12.5544 15.7678C12.5449 15.7508 12.5311 15.7365 12.5145 15.7263C12.4979 15.7161 12.479 15.7103 12.4595 15.7095C12.44 15.7087 12.4207 15.7129 12.4033 15.7217L7.99354 17.9276C7.8861 17.9814 7.92496 18.1437 8.04497 18.1437H12.4547C12.485 18.1437 12.5141 18.1316 12.5356 18.1102C12.557 18.0887 12.569 18.0597 12.569 18.0294V15.8234ZM6.85395 21.6069C6.85401 21.6264 6.85905 21.6455 6.86859 21.6625C6.87813 21.6795 6.89186 21.6938 6.90846 21.704C6.92507 21.7142 6.944 21.72 6.96347 21.7208C6.98294 21.7216 7.00229 21.7174 7.01969 21.7086L11.4294 19.5027C11.538 19.4489 11.498 19.2866 11.378 19.2866H6.96825C6.93794 19.2866 6.90887 19.2987 6.88743 19.3201C6.866 19.3416 6.85395 19.3706 6.85395 19.4009V21.6069ZM12.569 20.3953C12.569 20.3759 12.5639 20.3567 12.5544 20.3397C12.5449 20.3227 12.5311 20.3085 12.5145 20.2983C12.4979 20.2881 12.479 20.2823 12.4595 20.2815C12.44 20.2807 12.4207 20.2849 12.4033 20.2936L7.99354 22.4996C7.8861 22.5533 7.92496 22.7156 8.04497 22.7156H12.4547C12.485 22.7156 12.5141 22.7036 12.5356 22.6821C12.557 22.6607 12.569 22.6316 12.569 22.6013V20.3953Z" fill="#550413"/>
<path fill-rule="evenodd" clip-rule="evenodd" d="M5.71094 2.8276C5.71094 2.79728 5.72298 2.76821 5.74442 2.74678C5.76585 2.72534 5.79492 2.7133 5.82524 2.7133H6.73965C6.76997 2.7133 6.79904 2.72534 6.82047 2.74678C6.84191 2.76821 6.85395 2.79728 6.85395 2.8276V7.89104C6.85401 7.91052 6.85905 7.92967 6.86859 7.94666C6.87813 7.96365 6.89186 7.97792 6.90846 7.98811C6.92507 7.9983 6.944 8.00408 6.96347 8.00489C6.98294 8.00571 7.00229 8.00154 7.01969 7.99277L12.5062 5.24959C12.5252 5.24001 12.5412 5.2253 12.5523 5.20712C12.5634 5.18894 12.5692 5.16803 12.569 5.14672V2.39555C12.569 2.36523 12.5811 2.33616 12.6025 2.31473C12.6239 2.29329 12.653 2.28125 12.6833 2.28125H13.5977C13.6281 2.28125 13.6571 2.29329 13.6786 2.31473C13.7 2.33616 13.712 2.36523 13.712 2.39555V27.7448C13.712 27.7751 13.7 27.8042 13.6786 27.8256C13.6571 27.847 13.6281 27.8591 13.5977 27.8591H12.6833C12.653 27.8591 12.6239 27.847 12.6025 27.8256C12.5811 27.8042 12.569 27.7751 12.569 27.7448V24.9673C12.569 24.9478 12.5639 24.9287 12.5544 24.9117C12.5449 24.8947 12.5311 24.8804 12.5145 24.8702C12.4979 24.86 12.479 24.8543 12.4595 24.8534C12.44 24.8526 12.4207 24.8568 12.4033 24.8656L6.91682 27.6087C6.89779 27.6183 6.88183 27.633 6.87072 27.6512C6.85961 27.6694 6.8538 27.6903 6.85395 27.7116V27.7448C6.85395 27.7751 6.84191 27.8042 6.82047 27.8256C6.79904 27.847 6.76997 27.8591 6.73965 27.8591H5.82524C5.79492 27.8591 5.76585 27.847 5.74442 27.8256C5.72298 27.8042 5.71094 27.7751 5.71094 27.7448V2.8276ZM6.85395 26.1789C6.85401 26.1984 6.85905 26.2175 6.86859 26.2345C6.87813 26.2515 6.89186 26.2657 6.90846 26.2759C6.92507 26.2861 6.944 26.2919 6.96347 26.2927C6.98294 26.2935 7.00229 26.2894 7.01969 26.2806L11.4294 24.0746C11.538 24.0209 11.498 23.8586 11.378 23.8586H6.96825C6.93794 23.8586 6.90887 23.8706 6.88743 23.8921C6.866 23.9135 6.85395 23.9426 6.85395 23.9729V26.1789ZM12.569 6.67947C12.569 6.65999 12.5639 6.64084 12.5544 6.62385C12.5449 6.60687 12.5311 6.5926 12.5145 6.58241C12.4979 6.57221 12.479 6.56644 12.4595 6.56562C12.44 6.5648 12.4207 6.56898 12.4033 6.57775L7.99354 8.78372C7.8861 8.83744 7.92496 8.99974 8.04497 8.99974H12.4547C12.485 8.99974 12.5141 8.9877 12.5356 8.96626C12.557 8.94483 12.569 8.91576 12.569 8.88544V6.67947ZM6.85395 12.463C6.85401 12.4825 6.85905 12.5016 6.86859 12.5186C6.87813 12.5356 6.89186 12.5499 6.90846 12.5601C6.92507 12.5703 6.944 12.576 6.96347 12.5769C6.98294 12.5777 7.00229 12.5735 7.01969 12.5647L11.4294 10.3588C11.538 10.305 11.498 10.1427 11.378 10.1427H6.96825C6.93794 10.1427 6.90887 10.1548 6.88743 10.1762C6.866 10.1976 6.85395 10.2267 6.85395 10.257V12.463ZM12.569 11.2514C12.569 11.2319 12.5639 11.2128 12.5544 11.1958C12.5449 11.1788 12.5311 11.1646 12.5145 11.1544C12.4979 11.1442 12.479 11.1384 12.4595 11.1376C12.44 11.1368 12.4207 11.1409 12.4033 11.1497L7.99354 13.3557C7.8861 13.4094 7.92496 13.5717 8.04497 13.5717H12.4547C12.485 13.5717 12.5141 13.5597 12.5356 13.5382C12.557 13.5168 12.569 13.4877 12.569 13.4574V11.2514ZM6.85395 17.035C6.85401 17.0544 6.85905 17.0736 6.86859 17.0906C6.87813 17.1076 6.89186 17.1218 6.90846 17.132C6.92507 17.1422 6.944 17.148 6.96347 17.1488C6.98294 17.1496 7.00229 17.1454 7.01969 17.1367L11.4294 14.9307C11.538 14.877 11.498 14.7147 11.378 14.7147H6.96825C6.93794 14.7147 6.90887 14.7267 6.88743 14.7482C6.866 14.7696 6.85395 14.7987 6.85395 14.829V17.035ZM12.569 15.8234C12.569 15.8039 12.5639 15.7848 12.5544 15.7678C12.5449 15.7508 12.5311 15.7365 12.5145 15.7263C12.4979 15.7161 12.479 15.7103 12.4595 15.7095C12.44 15.7087 12.4207 15.7129 12.4033 15.7217L7.99354 17.9276C7.8861 17.9814 7.92496 18.1437 8.04497 18.1437H12.4547C12.485 18.1437 12.5141 18.1316 12.5356 18.1102C12.557 18.0887 12.569 18.0597 12.569 18.0294V15.8234ZM6.85395 21.6069C6.85401 21.6264 6.85905 21.6455 6.86859 21.6625C6.87813 21.6795 6.89186 21.6938 6.90846 21.704C6.92507 21.7142 6.944 21.72 6.96347 21.7208C6.98294 21.7216 7.00229 21.7174 7.01969 21.7086L11.4294 19.5027C11.538 19.4489 11.498 19.2866 11.378 19.2866H6.96825C6.93794 19.2866 6.90887 19.2987 6.88743 19.3201C6.866 19.3416 6.85395 19.3706 6.85395 19.4009V21.6069ZM12.569 20.3953C12.569 20.3759 12.5639 20.3567 12.5544 20.3397C12.5449 20.3227 12.5311 20.3085 12.5145 20.2983C12.4979 20.2881 12.479 20.2823 12.4595 20.2815C12.44 20.2807 12.4207 20.2849 12.4033 20.2936L7.99354 22.4996C7.8861 22.5533 7.92496 22.7156 8.04497 22.7156H12.4547C12.485 22.7156 12.5141 22.7036 12.5356 22.6821C12.557 22.6607 12.569 22.6316 12.569 22.6013V20.3953Z" fill="#550413"/>
<path fill-rule="evenodd" clip-rule="evenodd" d="M5.71094 2.8276C5.71094 2.79728 5.72298 2.76821 5.74442 2.74678C5.76585 2.72534 5.79492 2.7133 5.82524 2.7133H6.73965C6.76997 2.7133 6.79904 2.72534 6.82047 2.74678C6.84191 2.76821 6.85395 2.79728 6.85395 2.8276V7.89104C6.85401 7.91052 6.85905 7.92967 6.86859 7.94666C6.87813 7.96365 6.89186 7.97792 6.90846 7.98811C6.92507 7.9983 6.944 8.00408 6.96347 8.00489C6.98294 8.00571 7.00229 8.00154 7.01969 7.99277L12.5062 5.24959C12.5252 5.24001 12.5412 5.2253 12.5523 5.20712C12.5634 5.18894 12.5692 5.16803 12.569 5.14672V2.39555C12.569 2.36523 12.5811 2.33616 12.6025 2.31473C12.6239 2.29329 12.653 2.28125 12.6833 2.28125H13.5977C13.6281 2.28125 13.6571 2.29329 13.6786 2.31473C13.7 2.33616 13.712 2.36523 13.712 2.39555V27.7448C13.712 27.7751 13.7 27.8042 13.6786 27.8256C13.6571 27.847 13.6281 27.8591 13.5977 27.8591H12.6833C12.653 27.8591 12.6239 27.847 12.6025 27.8256C12.5811 27.8042 12.569 27.7751 12.569 27.7448V24.9673C12.569 24.9478 12.5639 24.9287 12.5544 24.9117C12.5449 24.8947 12.5311 24.8804 12.5145 24.8702C12.4979 24.86 12.479 24.8543 12.4595 24.8534C12.44 24.8526 12.4207 24.8568 12.4033 24.8656L6.91682 27.6087C6.89779 27.6183 6.88183 27.633 6.87072 27.6512C6.85961 27.6694 6.8538 27.6903 6.85395 27.7116V27.7448C6.85395 27.7751 6.84191 27.8042 6.82047 27.8256C6.79904 27.847 6.76997 27.8591 6.73965 27.8591H5.82524C5.79492 27.8591 5.76585 27.847 5.74442 27.8256C5.72298 27.8042 5.71094 27.7751 5.71094 27.7448V2.8276ZM6.85395 26.1789C6.85401 26.1984 6.85905 26.2175 6.86859 26.2345C6.87813 26.2515 6.89186 26.2657 6.90846 26.2759C6.92507 26.2861 6.944 26.2919 6.96347 26.2927C6.98294 26.2935 7.00229 26.2894 7.01969 26.2806L11.4294 24.0746C11.538 24.0209 11.498 23.8586 11.378 23.8586H6.96825C6.93794 23.8586 6.90887 23.8706 6.88743 23.8921C6.866 23.9135 6.85395 23.9426 6.85395 23.9729V26.1789ZM12.569 6.67947C12.569 6.65999 12.5639 6.64084 12.5544 6.62385C12.5449 6.60687 12.5311 6.5926 12.5145 6.58241C12.4979 6.57221 12.479 6.56644 12.4595 6.56562C12.44 6.5648 12.4207 6.56898 12.4033 6.57775L7.99354 8.78372C7.8861 8.83744 7.92496 8.99974 8.04497 8.99974H12.4547C12.485 8.99974 12.5141 8.9877 12.5356 8.96626C12.557 8.94483 12.569 8.91576 12.569 8.88544V6.67947ZM6.85395 12.463C6.85401 12.4825 6.85905 12.5016 6.86859 12.5186C6.87813 12.5356 6.89186 12.5499 6.90846 12.5601C6.92507 12.5703 6.944 12.576 6.96347 12.5769C6.98294 12.5777 7.00229 12.5735 7.01969 12.5647L11.4294 10.3588C11.538 10.305 11.498 10.1427 11.378 10.1427H6.96825C6.93794 10.1427 6.90887 10.1548 6.88743 10.1762C6.866 10.1976 6.85395 10.2267 6.85395 10.257V12.463ZM12.569 11.2514C12.569 11.2319 12.5639 11.2128 12.5544 11.1958C12.5449 11.1788 12.5311 11.1646 12.5145 11.1544C12.4979 11.1442 12.479 11.1384 12.4595 11.1376C12.44 11.1368 12.4207 11.1409 12.4033 11.1497L7.99354 13.3557C7.8861 13.4094 7.92496 13.5717 8.04497 13.5717H12.4547C12.485 13.5717 12.5141 13.5597 12.5356 13.5382C12.557 13.5168 12.569 13.4877 12.569 13.4574V11.2514ZM6.85395 17.035C6.85401 17.0544 6.85905 17.0736 6.86859 17.0906C6.87813 17.1076 6.89186 17.1218 6.90846 17.132C6.92507 17.1422 6.944 17.148 6.96347 17.1488C6.98294 17.1496 7.00229 17.1454 7.01969 17.1367L11.4294 14.9307C11.538 14.877 11.498 14.7147 11.378 14.7147H6.96825C6.93794 14.7147 6.90887 14.7267 6.88743 14.7482C6.866 14.7696 6.85395 14.7987 6.85395 14.829V17.035ZM12.569 15.8234C12.569 15.8039 12.5639 15.7848 12.5544 15.7678C12.5449 15.7508 12.5311 15.7365 12.5145 15.7263C12.4979 15.7161 12.479 15.7103 12.4595 15.7095C12.44 15.7087 12.4207 15.7129 12.4033 15.7217L7.99354 17.9276C7.8861 17.9814 7.92496 18.1437 8.04497 18.1437H12.4547C12.485 18.1437 12.5141 18.1316 12.5356 18.1102C12.557 18.0887 12.569 18.0597 12.569 18.0294V15.8234ZM6.85395 21.6069C6.85401 21.6264 6.85905 21.6455 6.86859 21.6625C6.87813 21.6795 6.89186 21.6938 6.90846 21.704C6.92507 21.7142 6.944 21.72 6.96347 21.7208C6.98294 21.7216 7.00229 21.7174 7.01969 21.7086L11.4294 19.5027C11.538 19.4489 11.498 19.2866 11.378 19.2866H6.96825C6.93794 19.2866 6.90887 19.2987 6.88743 19.3201C6.866 19.3416 6.85395 19.3706 6.85395 19.4009V21.6069ZM12.569 20.3953C12.569 20.3759 12.5639 20.3567 12.5544 20.3397C12.5449 20.3227 12.5311 20.3085 12.5145 20.2983C12.4979 20.2881 12.479 20.2823 12.4595 20.2815C12.44 20.2807 12.4207 20.2849 12.4033 20.2936L7.99354 22.4996C7.8861 22.5533 7.92496 22.7156 8.04497 22.7156H12.4547C12.485 22.7156 12.5141 22.7036 12.5356 22.6821C12.557 22.6607 12.569 22.6316 12.569 22.6013V20.3953Z" fill="#550413"/>
<path fill-rule="evenodd" clip-rule="evenodd" d="M5.71094 2.8276C5.71094 2.79728 5.72298 2.76821 5.74442 2.74678C5.76585 2.72534 5.79492 2.7133 5.82524 2.7133H6.73965C6.76997 2.7133 6.79904 2.72534 6.82047 2.74678C6.84191 2.76821 6.85395 2.79728 6.85395 2.8276V7.89104C6.85401 7.91052 6.85905 7.92967 6.86859 7.94666C6.87813 7.96365 6.89186 7.97792 6.90846 7.98811C6.92507 7.9983 6.944 8.00408 6.96347 8.00489C6.98294 8.00571 7.00229 8.00154 7.01969 7.99277L12.5062 5.24959C12.5252 5.24001 12.5412 5.2253 12.5523 5.20712C12.5634 5.18894 12.5692 5.16803 12.569 5.14672V2.39555C12.569 2.36523 12.5811 2.33616 12.6025 2.31473C12.6239 2.29329 12.653 2.28125 12.6833 2.28125H13.5977C13.6281 2.28125 13.6571 2.29329 13.6786 2.31473C13.7 2.33616 13.712 2.36523 13.712 2.39555V27.7448C13.712 27.7751 13.7 27.8042 13.6786 27.8256C13.6571 27.847 13.6281 27.8591 13.5977 27.8591H12.6833C12.653 27.8591 12.6239 27.847 12.6025 27.8256C12.5811 27.8042 12.569 27.7751 12.569 27.7448V24.9673C12.569 24.9478 12.5639 24.9287 12.5544 24.9117C12.5449 24.8947 12.5311 24.8804 12.5145 24.8702C12.4979 24.86 12.479 24.8543 12.4595 24.8534C12.44 24.8526 12.4207 24.8568 12.4033 24.8656L6.91682 27.6087C6.89779 27.6183 6.88183 27.633 6.87072 27.6512C6.85961 27.6694 6.8538 27.6903 6.85395 27.7116V27.7448C6.85395 27.7751 6.84191 27.8042 6.82047 27.8256C6.79904 27.847 6.76997 27.8591 6.73965 27.8591H5.82524C5.79492 27.8591 5.76585 27.847 5.74442 27.8256C5.72298 27.8042 5.71094 27.7751 5.71094 27.7448V2.8276ZM6.85395 26.1789C6.85401 26.1984 6.85905 26.2175 6.86859 26.2345C6.87813 26.2515 6.89186 26.2657 6.90846 26.2759C6.92507 26.2861 6.944 26.2919 6.96347 26.2927C6.98294 26.2935 7.00229 26.2894 7.01969 26.2806L11.4294 24.0746C11.538 24.0209 11.498 23.8586 11.378 23.8586H6.96825C6.93794 23.8586 6.90887 23.8706 6.88743 23.8921C6.866 23.9135 6.85395 23.9426 6.85395 23.9729V26.1789ZM12.569 6.67947C12.569 6.65999 12.5639 6.64084 12.5544 6.62385C12.5449 6.60687 12.5311 6.5926 12.5145 6.58241C12.4979 6.57221 12.479 6.56644 12.4595 6.56562C12.44 6.5648 12.4207 6.56898 12.4033 6.57775L7.99354 8.78372C7.8861 8.83744 7.92496 8.99974 8.04497 8.99974H12.4547C12.485 8.99974 12.5141 8.9877 12.5356 8.96626C12.557 8.94483 12.569 8.91576 12.569 8.88544V6.67947ZM6.85395 12.463C6.85401 12.4825 6.85905 12.5016 6.86859 12.5186C6.87813 12.5356 6.89186 12.5499 6.90846 12.5601C6.92507 12.5703 6.944 12.576 6.96347 12.5769C6.98294 12.5777 7.00229 12.5735 7.01969 12.5647L11.4294 10.3588C11.538 10.305 11.498 10.1427 11.378 10.1427H6.96825C6.93794 10.1427 6.90887 10.1548 6.88743 10.1762C6.866 10.1976 6.85395 10.2267 6.85395 10.257V12.463ZM12.569 11.2514C12.569 11.2319 12.5639 11.2128 12.5544 11.1958C12.5449 11.1788 12.5311 11.1646 12.5145 11.1544C12.4979 11.1442 12.479 11.1384 12.4595 11.1376C12.44 11.1368 12.4207 11.1409 12.4033 11.1497L7.99354 13.3557C7.8861 13.4094 7.92496 13.5717 8.04497 13.5717H12.4547C12.485 13.5717 12.5141 13.5597 12.5356 13.5382C12.557 13.5168 12.569 13.4877 12.569 13.4574V11.2514ZM6.85395 17.035C6.85401 17.0544 6.85905 17.0736 6.86859 17.0906C6.87813 17.1076 6.89186 17.1218 6.90846 17.132C6.92507 17.1422 6.944 17.148 6.96347 17.1488C6.98294 17.1496 7.00229 17.1454 7.01969 17.1367L11.4294 14.9307C11.538 14.877 11.498 14.7147 11.378 14.7147H6.96825C6.93794 14.7147 6.90887 14.7267 6.88743 14.7482C6.866 14.7696 6.85395 14.7987 6.85395 14.829V17.035ZM12.569 15.8234C12.569 15.8039 12.5639 15.7848 12.5544 15.7678C12.5449 15.7508 12.5311 15.7365 12.5145 15.7263C12.4979 15.7161 12.479 15.7103 12.4595 15.7095C12.44 15.7087 12.4207 15.7129 12.4033 15.7217L7.99354 17.9276C7.8861 17.9814 7.92496 18.1437 8.04497 18.1437H12.4547C12.485 18.1437 12.5141 18.1316 12.5356 18.1102C12.557 18.0887 12.569 18.0597 12.569 18.0294V15.8234ZM6.85395 21.6069C6.85401 21.6264 6.85905 21.6455 6.86859 21.6625C6.87813 21.6795 6.89186 21.6938 6.90846 21.704C6.92507 21.7142 6.944 21.72 6.96347 21.7208C6.98294 21.7216 7.00229 21.7174 7.01969 21.7086L11.4294 19.5027C11.538 19.4489 11.498 19.2866 11.378 19.2866H6.96825C6.93794 19.2866 6.90887 19.2987 6.88743 19.3201C6.866 19.3416 6.85395 19.3706 6.85395 19.4009V21.6069ZM12.569 20.3953C12.569 20.3759 12.5639 20.3567 12.5544 20.3397C12.5449 20.3227 12.5311 20.3085 12.5145 20.2983C12.4979 20.2881 12.479 20.2823 12.4595 20.2815C12.44 20.2807 12.4207 20.2849 12.4033 20.2936L7.99354 22.4996C7.8861 22.5533 7.92496 22.7156 8.04497 22.7156H12.4547C12.485 22.7156 12.5141 22.7036 12.5356 22.6821C12.557 22.6607 12.569 22.6316 12.569 22.6013V20.3953Z" fill="#550413"/>
<path fill-rule="evenodd" clip-rule="evenodd" d="M5.71094 2.8276C5.71094 2.79728 5.72298 2.76821 5.74442 2.74678C5.76585 2.72534 5.79492 2.7133 5.82524 2.7133H6.73965C6.76997 2.7133 6.79904 2.72534 6.82047 2.74678C6.84191 2.76821 6.85395 2.79728 6.85395 2.8276V7.89104C6.85401 7.91052 6.85905 7.92967 6.86859 7.94666C6.87813 7.96365 6.89186 7.97792 6.90846 7.98811C6.92507 7.9983 6.944 8.00408 6.96347 8.00489C6.98294 8.00571 7.00229 8.00154 7.01969 7.99277L12.5062 5.24959C12.5252 5.24001 12.5412 5.2253 12.5523 5.20712C12.5634 5.18894 12.5692 5.16803 12.569 5.14672V2.39555C12.569 2.36523 12.5811 2.33616 12.6025 2.31473C12.6239 2.29329 12.653 2.28125 12.6833 2.28125H13.5977C13.6281 2.28125 13.6571 2.29329 13.6786 2.31473C13.7 2.33616 13.712 2.36523 13.712 2.39555V27.7448C13.712 27.7751 13.7 27.8042 13.6786 27.8256C13.6571 27.847 13.6281 27.8591 13.5977 27.8591H12.6833C12.653 27.8591 12.6239 27.847 12.6025 27.8256C12.5811 27.8042 12.569 27.7751 12.569 27.7448V24.9673C12.569 24.9478 12.5639 24.9287 12.5544 24.9117C12.5449 24.8947 12.5311 24.8804 12.5145 24.8702C12.4979 24.86 12.479 24.8543 12.4595 24.8534C12.44 24.8526 12.4207 24.8568 12.4033 24.8656L6.91682 27.6087C6.89779 27.6183 6.88183 27.633 6.87072 27.6512C6.85961 27.6694 6.8538 27.6903 6.85395 27.7116V27.7448C6.85395 27.7751 6.84191 27.8042 6.82047 27.8256C6.79904 27.847 6.76997 27.8591 6.73965 27.8591H5.82524C5.79492 27.8591 5.76585 27.847 5.74442 27.8256C5.72298 27.8042 5.71094 27.7751 5.71094 27.7448V2.8276ZM6.85395 26.1789C6.85401 26.1984 6.85905 26.2175 6.86859 26.2345C6.87813 26.2515 6.89186 26.2657 6.90846 26.2759C6.92507 26.2861 6.944 26.2919 6.96347 26.2927C6.98294 26.2935 7.00229 26.2894 7.01969 26.2806L11.4294 24.0746C11.538 24.0209 11.498 23.8586 11.378 23.8586H6.96825C6.93794 23.8586 6.90887 23.8706 6.88743 23.8921C6.866 23.9135 6.85395 23.9426 6.85395 23.9729V26.1789ZM12.569 6.67947C12.569 6.65999 12.5639 6.64084 12.5544 6.62385C12.5449 6.60687 12.5311 6.5926 12.5145 6.58241C12.4979 6.57221 12.479 6.56644 12.4595 6.56562C12.44 6.5648 12.4207 6.56898 12.4033 6.57775L7.99354 8.78372C7.8861 8.83744 7.92496 8.99974 8.04497 8.99974H12.4547C12.485 8.99974 12.5141 8.9877 12.5356 8.96626C12.557 8.94483 12.569 8.91576 12.569 8.88544V6.67947ZM6.85395 12.463C6.85401 12.4825 6.85905 12.5016 6.86859 12.5186C6.87813 12.5356 6.89186 12.5499 6.90846 12.5601C6.92507 12.5703 6.944 12.576 6.96347 12.5769C6.98294 12.5777 7.00229 12.5735 7.01969 12.5647L11.4294 10.3588C11.538 10.305 11.498 10.1427 11.378 10.1427H6.96825C6.93794 10.1427 6.90887 10.1548 6.88743 10.1762C6.866 10.1976 6.85395 10.2267 6.85395 10.257V12.463ZM12.569 11.2514C12.569 11.2319 12.5639 11.2128 12.5544 11.1958C12.5449 11.1788 12.5311 11.1646 12.5145 11.1544C12.4979 11.1442 12.479 11.1384 12.4595 11.1376C12.44 11.1368 12.4207 11.1409 12.4033 11.1497L7.99354 13.3557C7.8861 13.4094 7.92496 13.5717 8.04497 13.5717H12.4547C12.485 13.5717 12.5141 13.5597 12.5356 13.5382C12.557 13.5168 12.569 13.4877 12.569 13.4574V11.2514ZM6.85395 17.035C6.85401 17.0544 6.85905 17.0736 6.86859 17.0906C6.87813 17.1076 6.89186 17.1218 6.90846 17.132C6.92507 17.1422 6.944 17.148 6.96347 17.1488C6.98294 17.1496 7.00229 17.1454 7.01969 17.1367L11.4294 14.9307C11.538 14.877 11.498 14.7147 11.378 14.7147H6.96825C6.93794 14.7147 6.90887 14.7267 6.88743 14.7482C6.866 14.7696 6.85395 14.7987 6.85395 14.829V17.035ZM12.569 15.8234C12.569 15.8039 12.5639 15.7848 12.5544 15.7678C12.5449 15.7508 12.5311 15.7365 12.5145 15.7263C12.4979 15.7161 12.479 15.7103 12.4595 15.7095C12.44 15.7087 12.4207 15.7129 12.4033 15.7217L7.99354 17.9276C7.8861 17.9814 7.92496 18.1437 8.04497 18.1437H12.4547C12.485 18.1437 12.5141 18.1316 12.5356 18.1102C12.557 18.0887 12.569 18.0597 12.569 18.0294V15.8234ZM6.85395 21.6069C6.85401 21.6264 6.85905 21.6455 6.86859 21.6625C6.87813 21.6795 6.89186 21.6938 6.90846 21.704C6.92507 21.7142 6.944 21.72 6.96347 21.7208C6.98294 21.7216 7.00229 21.7174 7.01969 21.7086L11.4294 19.5027C11.538 19.4489 11.498 19.2866 11.378 19.2866H6.96825C6.93794 19.2866 6.90887 19.2987 6.88743 19.3201C6.866 19.3416 6.85395 19.3706 6.85395 19.4009V21.6069ZM12.569 20.3953C12.569 20.3759 12.5639 20.3567 12.5544 20.3397C12.5449 20.3227 12.5311 20.3085 12.5145 20.2983C12.4979 20.2881 12.479 20.2823 12.4595 20.2815C12.44 20.2807 12.4207 20.2849 12.4033 20.2936L7.99354 22.4996C7.8861 22.5533 7.92496 22.7156 8.04497 22.7156H12.4547C12.485 22.7156 12.5141 22.7036 12.5356 22.6821C12.557 22.6607 12.569 22.6316 12.569 22.6013V20.3953Z" fill="#550413"/>
<path fill-rule="evenodd" clip-rule="evenodd" d="M5.71094 2.8276C5.71094 2.79728 5.72298 2.76821 5.74442 2.74678C5.76585 2.72534 5.79492 2.7133 5.82524 2.7133H6.73965C6.76997 2.7133 6.79904 2.72534 6.82047 2.74678C6.84191 2.76821 6.85395 2.79728 6.85395 2.8276V7.89104C6.85401 7.91052 6.85905 7.92967 6.86859 7.94666C6.87813 7.96365 6.89186 7.97792 6.90846 7.98811C6.92507 7.9983 6.944 8.00408 6.96347 8.00489C6.98294 8.00571 7.00229 8.00154 7.01969 7.99277L12.5062 5.24959C12.5252 5.24001 12.5412 5.2253 12.5523 5.20712C12.5634 5.18894 12.5692 5.16803 12.569 5.14672V2.39555C12.569 2.36523 12.5811 2.33616 12.6025 2.31473C12.6239 2.29329 12.653 2.28125 12.6833 2.28125H13.5977C13.6281 2.28125 13.6571 2.29329 13.6786 2.31473C13.7 2.33616 13.712 2.36523 13.712 2.39555V27.7448C13.712 27.7751 13.7 27.8042 13.6786 27.8256C13.6571 27.847 13.6281 27.8591 13.5977 27.8591H12.6833C12.653 27.8591 12.6239 27.847 12.6025 27.8256C12.5811 27.8042 12.569 27.7751 12.569 27.7448V24.9673C12.569 24.9478 12.5639 24.9287 12.5544 24.9117C12.5449 24.8947 12.5311 24.8804 12.5145 24.8702C12.4979 24.86 12.479 24.8543 12.4595 24.8534C12.44 24.8526 12.4207 24.8568 12.4033 24.8656L6.91682 27.6087C6.89779 27.6183 6.88183 27.633 6.87072 27.6512C6.85961 27.6694 6.8538 27.6903 6.85395 27.7116V27.7448C6.85395 27.7751 6.84191 27.8042 6.82047 27.8256C6.79904 27.847 6.76997 27.8591 6.73965 27.8591H5.82524C5.79492 27.8591 5.76585 27.847 5.74442 27.8256C5.72298 27.8042 5.71094 27.7751 5.71094 27.7448V2.8276ZM6.85395 26.1789C6.85401 26.1984 6.85905 26.2175 6.86859 26.2345C6.87813 26.2515 6.89186 26.2657 6.90846 26.2759C6.92507 26.2861 6.944 26.2919 6.96347 26.2927C6.98294 26.2935 7.00229 26.2894 7.01969 26.2806L11.4294 24.0746C11.538 24.0209 11.498 23.8586 11.378 23.8586H6.96825C6.93794 23.8586 6.90887 23.8706 6.88743 23.8921C6.866 23.9135 6.85395 23.9426 6.85395 23.9729V26.1789ZM12.569 6.67947C12.569 6.65999 12.5639 6.64084 12.5544 6.62385C12.5449 6.60687 12.5311 6.5926 12.5145 6.58241C12.4979 6.57221 12.479 6.56644 12.4595 6.56562C12.44 6.5648 12.4207 6.56898 12.4033 6.57775L7.99354 8.78372C7.8861 8.83744 7.92496 8.99974 8.04497 8.99974H12.4547C12.485 8.99974 12.5141 8.9877 12.5356 8.96626C12.557 8.94483 12.569 8.91576 12.569 8.88544V6.67947ZM6.85395 12.463C6.85401 12.4825 6.85905 12.5016 6.86859 12.5186C6.87813 12.5356 6.89186 12.5499 6.90846 12.5601C6.92507 12.5703 6.944 12.576 6.96347 12.5769C6.98294 12.5777 7.00229 12.5735 7.01969 12.5647L11.4294 10.3588C11.538 10.305 11.498 10.1427 11.378 10.1427H6.96825C6.93794 10.1427 6.90887 10.1548 6.88743 10.1762C6.866 10.1976 6.85395 10.2267 6.85395 10.257V12.463ZM12.569 11.2514C12.569 11.2319 12.5639 11.2128 12.5544 11.1958C12.5449 11.1788 12.5311 11.1646 12.5145 11.1544C12.4979 11.1442 12.479 11.1384 12.4595 11.1376C12.44 11.1368 12.4207 11.1409 12.4033 11.1497L7.99354 13.3557C7.8861 13.4094 7.92496 13.5717 8.04497 13.5717H12.4547C12.485 13.5717 12.5141 13.5597 12.5356 13.5382C12.557 13.5168 12.569 13.4877 12.569 13.4574V11.2514ZM6.85395 17.035C6.85401 17.0544 6.85905 17.0736 6.86859 17.0906C6.87813 17.1076 6.89186 17.1218 6.90846 17.132C6.92507 17.1422 6.944 17.148 6.96347 17.1488C6.98294 17.1496 7.00229 17.1454 7.01969 17.1367L11.4294 14.9307C11.538 14.877 11.498 14.7147 11.378 14.7147H6.96825C6.93794 14.7147 6.90887 14.7267 6.88743 14.7482C6.866 14.7696 6.85395 14.7987 6.85395 14.829V17.035ZM12.569 15.8234C12.569 15.8039 12.5639 15.7848 12.5544 15.7678C12.5449 15.7508 12.5311 15.7365 12.5145 15.7263C12.4979 15.7161 12.479 15.7103 12.4595 15.7095C12.44 15.7087 12.4207 15.7129 12.4033 15.7217L7.99354 17.9276C7.8861 17.9814 7.92496 18.1437 8.04497 18.1437H12.4547C12.485 18.1437 12.5141 18.1316 12.5356 18.1102C12.557 18.0887 12.569 18.0597 12.569 18.0294V15.8234ZM6.85395 21.6069C6.85401 21.6264 6.85905 21.6455 6.86859 21.6625C6.87813 21.6795 6.89186 21.6938 6.90846 21.704C6.92507 21.7142 6.944 21.72 6.96347 21.7208C6.98294 21.7216 7.00229 21.7174 7.01969 21.7086L11.4294 19.5027C11.538 19.4489 11.498 19.2866 11.378 19.2866H6.96825C6.93794 19.2866 6.90887 19.2987 6.88743 19.3201C6.866 19.3416 6.85395 19.3706 6.85395 19.4009V21.6069ZM12.569 20.3953C12.569 20.3759 12.5639 20.3567 12.5544 20.3397C12.5449 20.3227 12.5311 20.3085 12.5145 20.2983C12.4979 20.2881 12.479 20.2823 12.4595 20.2815C12.44 20.2807 12.4207 20.2849 12.4033 20.2936L7.99354 22.4996C7.8861 22.5533 7.92496 22.7156 8.04497 22.7156H12.4547C12.485 22.7156 12.5141 22.7036 12.5356 22.6821C12.557 22.6607 12.569 22.6316 12.569 22.6013V20.3953Z" fill="#550413"/>
</g>
<g filter="url(#filter4_f_1797_4373)">
<path d="M13.1992 2.76172V27.7806" stroke="#550413" stroke-width="0.443965" stroke-linecap="round"/>
</g>
<g filter="url(#filter5_f_1797_4373)">
<path d="M6.27734 2.76172V27.7806" stroke="#550413" stroke-width="0.443965" stroke-linecap="round"/>
</g>
<path d="M3.42578 28.7178C3.42578 27.9291 4.06587 27.2891 4.85455 27.2891H14.5702C15.3589 27.2891 15.9989 27.9291 15.9989 28.7178V29.575H3.42578V28.7178Z" fill="#550413"/>
<path d="M3.42578 28.7178C3.42578 27.9291 4.06587 27.2891 4.85455 27.2891H14.5702C15.3589 27.2891 15.9989 27.9291 15.9989 28.7178V29.575H3.42578V28.7178Z" fill="#550413"/>
<path d="M3.42578 28.7178C3.42578 27.9291 4.06587 27.2891 4.85455 27.2891H14.5702C15.3589 27.2891 15.9989 27.9291 15.9989 28.7178V29.575H3.42578V28.7178Z" fill="#550413"/>
<path d="M28.5706 1H3.42427C2.793 1 2.28125 1.51173 2.28125 2.14299C2.28125 2.77425 2.793 3.28598 3.42427 3.28598H28.5706C29.2019 3.28598 29.7136 2.77425 29.7136 2.14299C29.7136 1.51173 29.2019 1 28.5706 1Z" fill="#550413"/>
<path d="M28.5706 1H3.42427C2.793 1 2.28125 1.51173 2.28125 2.14299C2.28125 2.77425 2.793 3.28598 3.42427 3.28598H28.5706C29.2019 3.28598 29.7136 2.77425 29.7136 2.14299C29.7136 1.51173 29.2019 1 28.5706 1Z" fill="#550413"/>
<path d="M28.5706 1H3.42427C2.793 1 2.28125 1.51173 2.28125 2.14299C2.28125 2.77425 2.793 3.28598 3.42427 3.28598H28.5706C29.2019 3.28598 29.7136 2.77425 29.7136 2.14299C29.7136 1.51173 29.2019 1 28.5706 1Z" fill="#550413"/>
<path d="M28.5706 1H3.42427C2.793 1 2.28125 1.51173 2.28125 2.14299C2.28125 2.77425 2.793 3.28598 3.42427 3.28598H28.5706C29.2019 3.28598 29.7136 2.77425 29.7136 2.14299C29.7136 1.51173 29.2019 1 28.5706 1Z" fill="#550413"/>
<g filter="url(#filter6_f_1797_4373)">
<path d="M15.1611 28.1484H5.12891" stroke="#550413" stroke-width="0.665947" stroke-linecap="round"/>
</g>
<g filter="url(#filter7_f_1797_4373)">
<path d="M12.924 5.61719L6.51172 8.92386" stroke="#550413" stroke-width="0.665947" stroke-linecap="round"/>
</g>
<g filter="url(#filter8_f_1797_4373)">
<path d="M12.924 10.1836L6.51172 13.4891" stroke="#550413" stroke-width="0.665947" stroke-linecap="round"/>
</g>
<g filter="url(#filter9_f_1797_4373)">
<path d="M12.924 14.7148L6.51172 18.0204" stroke="#550413" stroke-width="0.665947" stroke-linecap="round"/>
</g>
<g filter="url(#filter10_f_1797_4373)">
<path d="M12.924 23.8633L6.51172 27.1699" stroke="#550413" stroke-width="0.665947" stroke-linecap="round"/>
</g>
<g filter="url(#filter11_f_1797_4373)">
<path d="M12.924 19.25L6.51172 22.5567" stroke="#550413" stroke-width="0.665947" stroke-linecap="round"/>
</g>
<g filter="url(#filter12_f_1797_4373)">
<path d="M13.1939 9.50781H6.98047" stroke="#550413" stroke-width="0.665947" stroke-linecap="round"/>
</g>
<g filter="url(#filter13_f_1797_4373)">
<path d="M13.1939 14.1445H6.98047" stroke="#550413" stroke-width="0.665947" stroke-linecap="round"/>
</g>
<g filter="url(#filter14_f_1797_4373)">
<path d="M13.1939 18.6016H6.98047" stroke="#550413" stroke-width="0.665947" stroke-linecap="round"/>
</g>
<g filter="url(#filter15_f_1797_4373)">
<path d="M13.1939 23.1953H6.98047" stroke="#550413" stroke-width="0.665947" stroke-linecap="round"/>
</g>
<g filter="url(#filter16_f_1797_4373)">
<path d="M4.74609 1.92969H28.4465" stroke="url(#paint0_linear_1797_4373)" stroke-width="0.665947" stroke-linecap="round"/>
</g>
<g filter="url(#filter17_f_1797_4373)">
<path d="M23.0117 4.88281V8.33807C23.4049 8.38379 24.3971 8.79298 24.6165 9.62736C24.8908 10.6698 24.3833 11.2173 23.9993 11.4916" stroke="#550413" stroke-width="0.443965" stroke-linecap="round"/>
</g>
<g filter="url(#filter18_f_1797_4373)">
<path d="M22.9062 11.1992L17.2266 19.3076" stroke="#550413" stroke-width="0.665947" stroke-linecap="round"/>
</g>
<defs>
<filter id="filter0_i_1797_4373" x="20.5508" y="1.98438" width="5.12527" height="11.0364" filterUnits="userSpaceOnUse" color-interpolation-filters="sRGB">
<feFlood flood-opacity="0" result="BackgroundImageFix"/>
<feBlend mode="normal" in="SourceGraphic" in2="BackgroundImageFix" result="shape"/>
<feColorMatrix in="SourceAlpha" type="matrix" values="0 0 0 0 0 0 0 0 0 0 0 0 0 0 0 0 0 0 127 0" result="hardAlpha"/>
<feOffset dx="0.554956" dy="0.554956"/>
<feGaussianBlur stdDeviation="0.554956"/>
<feComposite in2="hardAlpha" operator="arithmetic" k2="-1" k3="1"/>
<feColorMatrix type="matrix" values="0 0 0 0 0.439216 0 0 0 0 0.376471 0 0 0 0 0.443137 0 0 0 1 0"/>
<feBlend mode="normal" in2="shape" result="effect1_innerShadow_1797_4373"/>
</filter>
<filter id="filter1_i_1797_4373" x="20.5742" y="1.47858" width="4.57031" height="2.95208" filterUnits="userSpaceOnUse" color-interpolation-filters="sRGB">
<feFlood flood-opacity="0" result="BackgroundImageFix"/>
<feBlend mode="normal" in="SourceGraphic" in2="BackgroundImageFix" result="shape"/>
<feColorMatrix in="SourceAlpha" type="matrix" values="0 0 0 0 0 0 0 0 0 0 0 0 0 0 0 0 0 0 127 0" result="hardAlpha"/>
<feOffset dy="-0.665947"/>
<feGaussianBlur stdDeviation="0.554956"/>
<feComposite in2="hardAlpha" operator="arithmetic" k2="-1" k3="1"/>
<feColorMatrix type="matrix" values="0 0 0 0 0.619608 0 0 0 0 0.129412 0 0 0 0 0.247059 0 0 0 1 0"/>
<feBlend mode="normal" in2="shape" result="effect1_innerShadow_1797_4373"/>
</filter>
<filter id="filter2_f_1797_4373" x="20.6576" y="9.48279" width="2.53246" height="2.65941" filterUnits="userSpaceOnUse" color-interpolation-filters="sRGB">
<feFlood flood-opacity="0" result="BackgroundImageFix"/>
<feBlend mode="normal" in="SourceGraphic" in2="BackgroundImageFix" result="shape"/>
<feGaussianBlur stdDeviation="0.221982" result="effect1_foregroundBlur_1797_4373"/>
</filter>
<filter id="filter3_i_1797_4373" x="5.71094" y="2.05927" width="8" height="25.8001" filterUnits="userSpaceOnUse" color-interpolation-filters="sRGB">
<feFlood flood-opacity="0" result="BackgroundImageFix"/>
<feBlend mode="normal" in="SourceGraphic" in2="BackgroundImageFix" result="shape"/>
<feColorMatrix in="SourceAlpha" type="matrix" values="0 0 0 0 0 0 0 0 0 0 0 0 0 0 0 0 0 0 127 0" result="hardAlpha"/>
<feOffset dy="-0.221982"/>
<feGaussianBlur stdDeviation="0.443965"/>
<feComposite in2="hardAlpha" operator="arithmetic" k2="-1" k3="1"/>
<feColorMatrix type="matrix" values="0 0 0 0 0.631373 0 0 0 0 0.415686 0 0 0 0 0.227451 0 0 0 1 0"/>
<feBlend mode="normal" in2="shape" result="effect1_innerShadow_1797_4373"/>
</filter>
<filter id="filter4_f_1797_4373" x="12.0886" y="1.65211" width="2.22117" height="27.2387" filterUnits="userSpaceOnUse" color-interpolation-filters="sRGB">
<feFlood flood-opacity="0" result="BackgroundImageFix"/>
<feBlend mode="normal" in="SourceGraphic" in2="BackgroundImageFix" result="shape"/>
<feGaussianBlur stdDeviation="0.443965" result="effect1_foregroundBlur_1797_4373"/>
</filter>
<filter id="filter5_f_1797_4373" x="5.16676" y="1.65211" width="2.22117" height="27.2387" filterUnits="userSpaceOnUse" color-interpolation-filters="sRGB">
<feFlood flood-opacity="0" result="BackgroundImageFix"/>
<feBlend mode="normal" in="SourceGraphic" in2="BackgroundImageFix" result="shape"/>
<feGaussianBlur stdDeviation="0.443965" result="effect1_foregroundBlur_1797_4373"/>
</filter>
<filter id="filter6_f_1797_4373" x="3.68696" y="26.7055" width="12.9151" height="2.88584" filterUnits="userSpaceOnUse" color-interpolation-filters="sRGB">
<feFlood flood-opacity="0" result="BackgroundImageFix"/>
<feBlend mode="normal" in="SourceGraphic" in2="BackgroundImageFix" result="shape"/>
<feGaussianBlur stdDeviation="0.554956" result="effect1_foregroundBlur_1797_4373"/>
</filter>
<filter id="filter7_f_1797_4373" x="5.51374" y="4.61823" width="8.41002" height="5.30455" filterUnits="userSpaceOnUse" color-interpolation-filters="sRGB">
<feFlood flood-opacity="0" result="BackgroundImageFix"/>
<feBlend mode="normal" in="SourceGraphic" in2="BackgroundImageFix" result="shape"/>
<feGaussianBlur stdDeviation="0.332973" result="effect1_foregroundBlur_1797_4373"/>
</filter>
<filter id="filter8_f_1797_4373" x="5.51374" y="9.18464" width="8.41002" height="5.30357" filterUnits="userSpaceOnUse" color-interpolation-filters="sRGB">
<feFlood flood-opacity="0" result="BackgroundImageFix"/>
<feBlend mode="normal" in="SourceGraphic" in2="BackgroundImageFix" result="shape"/>
<feGaussianBlur stdDeviation="0.332973" result="effect1_foregroundBlur_1797_4373"/>
</filter>
<filter id="filter9_f_1797_4373" x="5.51374" y="13.7159" width="8.41002" height="5.30357" filterUnits="userSpaceOnUse" color-interpolation-filters="sRGB">
<feFlood flood-opacity="0" result="BackgroundImageFix"/>
<feBlend mode="normal" in="SourceGraphic" in2="BackgroundImageFix" result="shape"/>
<feGaussianBlur stdDeviation="0.332973" result="effect1_foregroundBlur_1797_4373"/>
</filter>
<filter id="filter10_f_1797_4373" x="5.51374" y="22.8643" width="8.41002" height="5.30455" filterUnits="userSpaceOnUse" color-interpolation-filters="sRGB">
<feFlood flood-opacity="0" result="BackgroundImageFix"/>
<feBlend mode="normal" in="SourceGraphic" in2="BackgroundImageFix" result="shape"/>
<feGaussianBlur stdDeviation="0.332973" result="effect1_foregroundBlur_1797_4373"/>
</filter>
<filter id="filter11_f_1797_4373" x="5.51374" y="18.251" width="8.41002" height="5.30455" filterUnits="userSpaceOnUse" color-interpolation-filters="sRGB">
<feFlood flood-opacity="0" result="BackgroundImageFix"/>
<feBlend mode="normal" in="SourceGraphic" in2="BackgroundImageFix" result="shape"/>
<feGaussianBlur stdDeviation="0.332973" result="effect1_foregroundBlur_1797_4373"/>
</filter>
<filter id="filter12_f_1797_4373" x="5.98249" y="8.50886" width="8.2108" height="1.99791" filterUnits="userSpaceOnUse" color-interpolation-filters="sRGB">
<feFlood flood-opacity="0" result="BackgroundImageFix"/>
<feBlend mode="normal" in="SourceGraphic" in2="BackgroundImageFix" result="shape"/>
<feGaussianBlur stdDeviation="0.332973" result="effect1_foregroundBlur_1797_4373"/>
</filter>
<filter id="filter13_f_1797_4373" x="5.98249" y="13.1456" width="8.2108" height="1.99791" filterUnits="userSpaceOnUse" color-interpolation-filters="sRGB">
<feFlood flood-opacity="0" result="BackgroundImageFix"/>
<feBlend mode="normal" in="SourceGraphic" in2="BackgroundImageFix" result="shape"/>
<feGaussianBlur stdDeviation="0.332973" result="effect1_foregroundBlur_1797_4373"/>
</filter>
<filter id="filter14_f_1797_4373" x="5.98249" y="17.6026" width="8.2108" height="1.99791" filterUnits="userSpaceOnUse" color-interpolation-filters="sRGB">
<feFlood flood-opacity="0" result="BackgroundImageFix"/>
<feBlend mode="normal" in="SourceGraphic" in2="BackgroundImageFix" result="shape"/>
<feGaussianBlur stdDeviation="0.332973" result="effect1_foregroundBlur_1797_4373"/>
</filter>
<filter id="filter15_f_1797_4373" x="5.98249" y="22.1964" width="8.2108" height="1.99791" filterUnits="userSpaceOnUse" color-interpolation-filters="sRGB">
<feFlood flood-opacity="0" result="BackgroundImageFix"/>
<feBlend mode="normal" in="SourceGraphic" in2="BackgroundImageFix" result="shape"/>
<feGaussianBlur stdDeviation="0.332973" result="effect1_foregroundBlur_1797_4373"/>
</filter>
<filter id="filter16_f_1797_4373" x="3.30415" y="0.486768" width="26.587" height="2.88584" filterUnits="userSpaceOnUse" color-interpolation-filters="sRGB">
<feFlood flood-opacity="0" result="BackgroundImageFix"/>
<feBlend mode="normal" in="SourceGraphic" in2="BackgroundImageFix" result="shape"/>
<feGaussianBlur stdDeviation="0.554956" result="effect1_foregroundBlur_1797_4373"/>
</filter>
<filter id="filter17_f_1797_4373" x="22.3451" y="4.21717" width="3.01684" height="7.94066" filterUnits="userSpaceOnUse" color-interpolation-filters="sRGB">
<feFlood flood-opacity="0" result="BackgroundImageFix"/>
<feBlend mode="normal" in="SourceGraphic" in2="BackgroundImageFix" result="shape"/>
<feGaussianBlur stdDeviation="0.221982" result="effect1_foregroundBlur_1797_4373"/>
</filter>
<filter id="filter18_f_1797_4373" x="16.2286" y="10.2003" width="7.67564" height="10.1063" filterUnits="userSpaceOnUse" color-interpolation-filters="sRGB">
<feFlood flood-opacity="0" result="BackgroundImageFix"/>
<feBlend mode="normal" in="SourceGraphic" in2="BackgroundImageFix" result="shape"/>
<feGaussianBlur stdDeviation="0.332973" result="effect1_foregroundBlur_1797_4373"/>
</filter>
<linearGradient id="paint0_linear_1797_4373" x1="-nan" y1="-nan" x2="-nan" y2="-nan" gradientUnits="userSpaceOnUse">
<stop stop-color="#FCD85C" stop-opacity="0"/>
<stop offset="0.448" stop-color="#FCD85C"/>
<stop offset="1" stop-color="#FCD85C" stop-opacity="0"/>
</linearGradient>
</defs>
</svg>
