<svg width="33" height="35" viewBox="0 0 33 35" fill="none" xmlns="http://www.w3.org/2000/svg">
<path fill-rule="evenodd" clip-rule="evenodd" d="M5.19453 11.2C5.19453 8.22958 6.37453 5.38081 8.47494 3.2804C10.5753 1.18 13.4241 0 16.3945 0C19.365 0 22.2137 1.18 24.3141 3.2804C26.4145 5.38081 27.5945 8.22958 27.5945 11.2V12.856C30.3081 13.2448 32.3945 15.5792 32.3945 18.4V18.8C32.3943 19.4938 32.2553 20.1805 31.9856 20.8197C31.7159 21.459 31.3211 22.0378 30.8243 22.522C30.3274 23.0063 29.7388 23.3863 29.0929 23.6396C28.447 23.8928 27.7569 24.0143 27.0633 23.9968C25.8793 27.3888 22.8681 29.6752 19.6185 30.2544C18.8665 30.5296 17.9769 30.4 17.1945 30.4C16.558 30.4 15.9476 30.1471 15.4975 29.6971C15.0474 29.247 14.7945 28.6365 14.7945 28C14.7945 27.3635 15.0474 26.753 15.4975 26.3029C15.9476 25.8529 16.558 25.6 17.1945 25.6H18.7945C19.1702 25.5999 19.5407 25.6881 19.8761 25.8573C20.2116 26.0265 20.5026 26.2722 20.7257 26.5744C22.7993 25.5872 24.3945 23.5024 24.3945 20.8V11.2C24.3945 9.07827 23.5517 7.04344 22.0514 5.54315C20.5511 4.04285 18.5163 3.2 16.3945 3.2C14.2728 3.2 12.238 4.04285 10.7377 5.54315C9.23739 7.04344 8.39453 9.07827 8.39453 11.2V21.2C8.39453 21.9426 8.09953 22.6548 7.57443 23.1799C7.04933 23.705 6.33714 24 5.59453 24C4.21541 24 2.89277 23.4521 1.91758 22.477C0.942387 21.5018 0.394531 20.1791 0.394531 18.8V18.4C0.394186 17.0531 0.879266 15.7513 1.76086 14.733C2.64245 13.7148 3.86149 13.0484 5.19453 12.856V11.2ZM5.19453 16.136C4.72641 16.3015 4.32114 16.6081 4.03458 17.0136C3.74802 17.4191 3.59427 17.9035 3.59453 18.4V18.8C3.59453 19.768 4.28253 20.576 5.19453 20.76V16.136ZM27.5945 16.136V20.76C28.5065 20.5744 29.1945 19.768 29.1945 18.8V18.4C29.1948 17.9035 29.041 17.4191 28.7545 17.0136C28.4679 16.6081 28.0627 16.3015 27.5945 16.136Z" fill="black"/>
</svg>
