<svg width="21" height="22" viewBox="0 0 21 22" fill="none" xmlns="http://www.w3.org/2000/svg">
<path d="M8.33594 11.917C8.7296 12.4432 9.23185 12.8787 9.80861 13.1938C10.3854 13.5089 11.0232 13.6963 11.6787 13.7433C12.3342 13.7902 12.9922 13.6956 13.608 13.4659C14.2238 13.2362 14.783 12.8768 15.2476 12.412L17.9976 9.66196C18.8325 8.79753 19.2945 7.63977 19.284 6.43804C19.2736 5.2363 18.7916 4.08675 17.9418 3.23696C17.092 2.38717 15.9424 1.90515 14.7407 1.8947C13.539 1.88426 12.3812 2.34624 11.5168 3.18113L9.9401 4.74863" stroke="black" stroke-width="1.83333" stroke-linecap="round" stroke-linejoin="round"/>
<path d="M11.999 10.0841C11.6054 9.55782 11.1031 9.12236 10.5264 8.80725C9.94961 8.49214 9.31183 8.30475 8.65628 8.2578C8.00073 8.21085 7.34276 8.30544 6.72698 8.53514C6.1112 8.76485 5.55202 9.1243 5.08738 9.58911L2.33738 12.3391C1.50249 13.2035 1.04051 14.3613 1.05095 15.563C1.0614 16.7648 1.54342 17.9143 2.39321 18.7641C3.243 19.6139 4.39255 20.0959 5.59429 20.1064C6.79602 20.1168 7.95378 19.6548 8.81821 18.8199L10.3857 17.2524" stroke="black" stroke-width="1.83333" stroke-linecap="round" stroke-linejoin="round"/>
</svg>
