<svg width="32" height="41" viewBox="0 0 32 41" fill="none" xmlns="http://www.w3.org/2000/svg">
<path d="M16 36.25C19.2333 35.25 21.9333 33.2753 24.1 30.326C26.2667 27.3767 27.5333 24.0847 27.9 20.45H16V4.7L4 9.2V19.55C4 19.7833 4.03333 20.0833 4.1 20.45H16V36.25ZM16 40.25C15.7667 40.25 15.55 40.2333 15.35 40.2C15.15 40.1667 14.95 40.1167 14.75 40.05C10.25 38.55 6.66667 35.7753 4 31.726C1.33333 27.6767 0 23.318 0 18.65V9.2C0 8.36666 0.242 7.61666 0.726 6.95C1.21 6.28333 1.83467 5.8 2.6 5.5L14.6 1C15.0667 0.833333 15.5333 0.75 16 0.75C16.4667 0.75 16.9333 0.833333 17.4 1L29.4 5.5C30.1667 5.8 30.792 6.28333 31.276 6.95C31.76 7.61666 32.0013 8.36666 32 9.2V18.65C32 23.3167 30.6667 27.6753 28 31.726C25.3333 35.7767 21.75 38.5513 17.25 40.05C17.05 40.1167 16.85 40.1667 16.65 40.2C16.45 40.2333 16.2333 40.25 16 40.25Z" fill="#550413"/>
</svg>
