<svg width="32" height="37" viewBox="0 0 32 37" fill="none" xmlns="http://www.w3.org/2000/svg">
<path d="M24.9595 24.3316C23.8741 24.3316 22.9943 23.4517 22.9943 22.3663V10.9225C22.9943 7.06557 19.8564 3.92758 15.9995 3.92758C12.1426 3.92758 9.00465 7.06549 9.00465 10.9225V17.5785C9.00465 18.6639 8.1248 19.5437 7.03944 19.5437C5.95407 19.5437 5.07422 18.6639 5.07422 17.5785V10.9225C5.07422 4.89817 9.97523 -0.00292969 15.9995 -0.00292969C22.0237 -0.00292969 26.9247 4.89817 26.9247 10.9225V22.3663C26.9247 23.4517 26.0449 24.3316 24.9595 24.3316Z" fill="#550413"/>
<path d="M27.9573 36.2294H4.04273C1.81 36.2294 0 34.4194 0 32.1866V18.3602C0 16.1274 1.81 14.3174 4.04273 14.3174H27.9573C30.19 14.3174 32 16.1274 32 18.3602V32.1865C32 34.4194 30.19 36.2294 27.9573 36.2294Z" fill="#550413"/>
<path d="M3.50604 32.9748H3.3035C2.66557 32.9748 2.14844 32.4577 2.14844 31.8197V18.7342C2.14844 18.0962 2.66557 17.5791 3.3035 17.5791H3.50604C4.14398 17.5791 4.66111 18.0962 4.66111 18.7342V31.8197C4.66111 32.4577 4.14398 32.9748 3.50604 32.9748Z" fill="#550413"/>
</svg>
