<svg width="90" height="91" viewBox="0 0 90 91" fill="none" xmlns="http://www.w3.org/2000/svg">
<rect x="0.785156" y="0.914062" width="89.1714" height="89.1714" rx="44.5857" fill="#380B2A" fill-opacity="0.04"/>
<path d="M63.7751 33.955C63.7751 44.6481 55.5156 46.3088 55.5156 56.2746C55.5156 61.4194 50.3568 61.8528 46.4303 61.8528C43.0389 61.8528 35.551 60.5592 35.551 56.2713C35.551 46.3105 27.4336 44.6498 27.4336 33.955C27.4336 23.9394 36.1638 15.8203 45.7414 15.8203C55.3224 15.8203 63.7751 23.9394 63.7751 33.955Z" fill="#550413"/>
<path d="M52.8725 70.0131C52.8725 71.3225 48.9759 73.9666 45.6042 73.9666C42.2326 73.9666 38.3359 71.3225 38.3359 70.0131C38.3359 68.7038 42.2308 69.2225 45.6042 69.2225C48.9776 69.2225 52.8725 68.7038 52.8725 70.0131Z" fill="#CCD6DD"/>
<path d="M53.5878 33.2612C53.2697 32.954 52.8384 32.7814 52.3887 32.7814C51.939 32.7814 51.5077 32.954 51.1896 33.2612L45.6047 38.6583L40.0198 33.2612C39.8623 33.109 39.6754 32.9883 39.4697 32.906C39.2639 32.8236 39.0434 32.7813 38.8207 32.7812C38.5981 32.7812 38.3775 32.8236 38.1718 32.906C37.9661 32.9883 37.7791 33.109 37.6217 33.2612C37.4642 33.4134 37.3393 33.594 37.2541 33.7928C37.1689 33.9917 37.125 34.2047 37.125 34.4199C37.125 34.6351 37.1689 34.8482 37.2541 35.047C37.3393 35.2459 37.4642 35.4265 37.6217 35.5787L43.9087 41.6542V59.0041C43.9087 59.4388 44.0874 59.8556 44.4055 60.163C44.7235 60.4704 45.1549 60.643 45.6047 60.643C46.0545 60.643 46.4859 60.4704 46.804 60.163C47.122 59.8556 47.3007 59.4388 47.3007 59.0041V41.6542L53.5878 35.5787C53.9057 35.2713 54.0843 34.8545 54.0843 34.4199C54.0843 33.9854 53.9057 33.5686 53.5878 33.2612Z" fill="#550413"/>
<path d="M55.2966 67.0017C55.2966 67.8852 54.935 68.7326 54.2913 69.3573C53.6477 69.982 52.7747 70.333 51.8644 70.333H38.1354C37.2251 70.333 36.3521 69.982 35.7084 69.3573C35.0647 68.7326 34.7031 67.8852 34.7031 67.0017V57.0078H55.2966V67.0017Z" fill="#99AAB5"/>
<path d="M35.1305 69.1221C34.7187 69.1205 34.3225 68.9626 34.0202 68.6794C33.7178 68.3962 33.5314 68.0084 33.4977 67.5927C33.464 67.177 33.5855 66.7637 33.8382 66.4343C34.0909 66.105 34.4564 65.8837 34.8625 65.8142L54.5952 62.483C54.8083 62.4459 55.0265 62.4519 55.2372 62.5008C55.448 62.5496 55.647 62.6404 55.8229 62.7677C55.9988 62.8951 56.148 63.0565 56.2619 63.2426C56.3757 63.4287 56.452 63.6359 56.4863 63.8521C56.5576 64.2877 56.4553 64.734 56.2018 65.0932C55.9484 65.4524 55.5645 65.6949 55.1346 65.7676L35.4018 69.0988C35.3122 69.1141 35.2214 69.1219 35.1305 69.1221ZM35.1305 62.4597C34.7187 62.4581 34.3225 62.3002 34.0202 62.017C33.7178 61.7338 33.5314 61.346 33.4977 60.9303C33.464 60.5146 33.5855 60.1013 33.8382 59.7719C34.0909 59.4426 34.4564 59.2213 34.8625 59.1518L54.5952 55.8206C54.8083 55.7837 55.0264 55.7899 55.237 55.8389C55.4477 55.8878 55.6467 55.9786 55.8225 56.1059C55.9983 56.2332 56.1475 56.3945 56.2615 56.5805C56.3754 56.7666 56.4518 56.9736 56.4863 57.1897C56.5576 57.6253 56.4553 58.0716 56.2018 58.4308C55.9484 58.79 55.5645 59.0325 55.1346 59.1052L35.4018 62.4364C35.3122 62.4517 35.2214 62.4595 35.1305 62.4597Z" fill="#CCD6DD"/>
</svg>
