<svg width="23" height="22" viewBox="0 0 23 22" fill="none" xmlns="http://www.w3.org/2000/svg">
<g clip-path="url(#clip0_2521_2859)">
<path d="M1.13861 10.9496C1.1381 12.7981 1.62108 14.6029 2.53945 16.1938L1.05078 21.6291L6.6132 20.1706C8.1517 21.0082 9.87546 21.447 11.6272 21.4471H11.6318C17.4144 21.4471 22.1217 16.7416 22.1241 10.9579C22.1252 8.15531 21.0348 5.51991 19.0536 3.53719C17.0728 1.55463 14.4383 0.462217 11.6313 0.460938C5.84798 0.460938 1.14108 5.16621 1.1387 10.9496" fill="url(#paint0_linear_2521_2859)"/>
<path d="M0.767022 10.947C0.766425 12.8619 1.26671 14.7313 2.21783 16.3791L0.675781 22.0093L6.43765 20.4985C8.02523 21.3641 9.81269 21.8205 11.6315 21.8212H11.6362C17.6264 21.8212 22.5027 16.9464 22.5052 10.9557C22.5063 8.05234 21.3766 5.32221 19.3246 3.26845C17.2724 1.21495 14.5437 0.083225 11.6362 0.0820312C5.64505 0.0820312 0.769409 4.95614 0.767022 10.947ZM4.19842 16.0953L3.98328 15.7538C3.0789 14.3158 2.60155 12.654 2.60223 10.9476C2.60411 5.96823 6.65654 1.91707 11.6396 1.91707C14.0528 1.91809 16.3207 2.85881 18.0264 4.5656C19.7321 6.27256 20.6707 8.54163 20.6701 10.955C20.6679 15.9344 16.6154 19.9861 11.6362 19.9861H11.6326C10.0114 19.9852 8.42132 19.5498 7.03463 18.727L6.70463 18.5313L3.28542 19.4278L4.19842 16.0953Z" fill="url(#paint1_linear_2521_2859)"/>
<path d="M8.91956 6.40525C8.7161 5.95306 8.50199 5.94394 8.30851 5.93601C8.15007 5.92918 7.96896 5.9297 7.78801 5.9297C7.60689 5.9297 7.31262 5.99783 7.06389 6.26942C6.81489 6.54126 6.11328 7.19819 6.11328 8.53431C6.11328 9.87042 7.08648 11.1618 7.22215 11.3431C7.35799 11.5242 9.10093 14.3538 11.8613 15.4424C14.1555 16.347 14.6223 16.1671 15.1202 16.1217C15.6182 16.0766 16.7271 15.465 16.9533 14.8308C17.1797 14.1968 17.1797 13.6532 17.1118 13.5396C17.044 13.4265 16.8628 13.3585 16.5912 13.2228C16.3197 13.087 14.9844 12.4299 14.7355 12.3393C14.4865 12.2487 14.3055 12.2035 14.1244 12.4755C13.9432 12.747 13.4232 13.3585 13.2646 13.5396C13.1063 13.7212 12.9478 13.7438 12.6763 13.608C12.4045 13.4717 11.5299 13.1853 10.4922 12.2602C9.68487 11.5403 9.13982 10.6513 8.98138 10.3794C8.82295 10.1079 8.96441 9.96073 9.10059 9.8254C9.22261 9.70372 9.37227 9.50828 9.50819 9.34976C9.6436 9.19115 9.68879 9.078 9.77935 8.89688C9.86999 8.7156 9.82463 8.55699 9.75684 8.42115C9.68879 8.28532 9.16105 6.94221 8.91956 6.40525Z" fill="white"/>
</g>
<defs>
<linearGradient id="paint0_linear_2521_2859" x1="1054.72" y1="2117.28" x2="1054.72" y2="0.460938" gradientUnits="userSpaceOnUse">
<stop stop-color="#1FAF38"/>
<stop offset="1" stop-color="#60D669"/>
</linearGradient>
<linearGradient id="paint1_linear_2521_2859" x1="1092.15" y1="2192.81" x2="1092.15" y2="0.0820312" gradientUnits="userSpaceOnUse">
<stop stop-color="#F9F9F9"/>
<stop offset="1" stop-color="white"/>
</linearGradient>
<clipPath id="clip0_2521_2859">
<rect width="21.835" height="21.835" fill="white" transform="translate(0.667969 0.0820312)"/>
</clipPath>
</defs>
</svg>
