<svg width="73" height="73" viewBox="0 0 73 73" fill="none" xmlns="http://www.w3.org/2000/svg">
<g filter="url(#filter0_i_1819_2706)">
<path d="M16.5234 23.5823H27.5822C27.992 23.5821 28.396 23.4848 28.761 23.2984C29.126 23.1121 29.4417 22.842 29.6823 22.5102L36.8991 12.5547" stroke="#D2C2D4" stroke-width="3.63433"/>
<path d="M16.5234 23.5823H27.5822C27.992 23.5821 28.396 23.4848 28.761 23.2984C29.126 23.1121 29.4417 22.842 29.6823 22.5102L36.8991 12.5547" stroke="url(#paint0_radial_1819_2706)" stroke-width="3.63433"/>
</g>
<path d="M16.5234 23.5823H27.5822C27.992 23.5821 28.396 23.4848 28.761 23.2984C29.126 23.1121 29.4417 22.842 29.6823 22.5102L36.8991 12.5547" stroke="url(#paint1_radial_1819_2706)" stroke-width="3.63433"/>
<g filter="url(#filter1_i_1819_2706)">
<path d="M56.7259 23.5823H45.6671C45.2569 23.5825 44.8524 23.4854 44.4869 23.299C44.1214 23.1127 43.8052 22.8423 43.5644 22.5102L36.3477 12.5547" stroke="#D2C2D4" stroke-width="3.63433"/>
<path d="M56.7259 23.5823H45.6671C45.2569 23.5825 44.8524 23.4854 44.4869 23.299C44.1214 23.1127 43.8052 22.8423 43.5644 22.5102L36.3477 12.5547" stroke="url(#paint2_radial_1819_2706)" stroke-width="3.63433"/>
</g>
<path d="M15.9219 26.6172V49.3266" stroke="url(#paint3_linear_1819_2706)" stroke-width="2.59595"/>
<path d="M30.0302 48.0987L16.5234 26.6172" stroke="url(#paint4_linear_1819_2706)" stroke-width="2.59595"/>
<path d="M30.0302 48.0987L16.5234 26.6172" stroke="url(#paint5_linear_1819_2706)" stroke-width="2.59595"/>
<path d="M57.2578 26.6172V49.3266" stroke="url(#paint6_linear_1819_2706)" stroke-width="2.59595"/>
<path d="M43.2969 48.0987L56.8062 26.6172" stroke="url(#paint7_linear_1819_2706)" stroke-width="2.59595"/>
<g filter="url(#filter2_f_1819_2706)">
<path d="M43.2969 48.0987L56.8062 26.6172" stroke="#F8DDE7" stroke-width="0.648988"/>
</g>
<path d="M71.3687 48.0987L57.8594 26.6172" stroke="url(#paint8_linear_1819_2706)" stroke-width="2.59595"/>
<path d="M71.3687 48.0987L57.8594 26.6172" stroke="url(#paint9_linear_1819_2706)" stroke-width="2.59595"/>
<path d="M57.333 27.7441C59.6656 27.7441 61.5566 25.8531 61.5566 23.5205C61.5566 21.1879 59.6656 19.2969 57.333 19.2969C55.0004 19.2969 53.1094 21.1879 53.1094 23.5205C53.1094 25.8531 55.0004 27.7441 57.333 27.7441Z" fill="url(#paint10_radial_1819_2706)"/>
<path d="M57.333 27.7441C59.6656 27.7441 61.5566 25.8531 61.5566 23.5205C61.5566 21.1879 59.6656 19.2969 57.333 19.2969C55.0004 19.2969 53.1094 21.1879 53.1094 23.5205C53.1094 25.8531 55.0004 27.7441 57.333 27.7441Z" fill="#550413"/>
<path d="M57.333 27.7441C59.6656 27.7441 61.5566 25.8531 61.5566 23.5205C61.5566 21.1879 59.6656 19.2969 57.333 19.2969C55.0004 19.2969 53.1094 21.1879 53.1094 23.5205C53.1094 25.8531 55.0004 27.7441 57.333 27.7441Z" fill="url(#paint11_radial_1819_2706)"/>
<path d="M43.3404 46.8691C42.2657 46.8691 41.461 47.866 41.8218 48.881C42.9601 52.0844 45.0622 54.8567 47.8395 56.8173C50.6168 58.7778 53.933 59.8304 57.3326 59.8304C60.7322 59.8304 64.0484 58.7778 66.8257 56.8173C69.603 54.8567 71.7052 52.0844 72.8434 48.881C73.2043 47.8686 72.3995 46.8691 71.3248 46.8691H43.3404Z" fill="url(#paint12_radial_1819_2706)"/>
<path d="M43.3404 46.8691C42.2657 46.8691 41.461 47.866 41.8218 48.881C42.9601 52.0844 45.0622 54.8567 47.8395 56.8173C50.6168 58.7778 53.933 59.8304 57.3326 59.8304C60.7322 59.8304 64.0484 58.7778 66.8257 56.8173C69.603 54.8567 71.7052 52.0844 72.8434 48.881C73.2043 47.8686 72.3995 46.8691 71.3248 46.8691H43.3404Z" fill="url(#paint13_linear_1819_2706)"/>
<path d="M43.3404 46.8691C42.2657 46.8691 41.461 47.866 41.8218 48.881C42.9601 52.0844 45.0622 54.8567 47.8395 56.8173C50.6168 58.7778 53.933 59.8304 57.3326 59.8304C60.7322 59.8304 64.0484 58.7778 66.8257 56.8173C69.603 54.8567 71.7052 52.0844 72.8434 48.881C73.2043 47.8686 72.3995 46.8691 71.3248 46.8691H43.3404Z" fill="url(#paint14_radial_1819_2706)"/>
<path d="M43.3404 46.8691C42.2657 46.8691 41.461 47.866 41.8218 48.881C42.9601 52.0844 45.0622 54.8567 47.8395 56.8173C50.6168 58.7778 53.933 59.8304 57.3326 59.8304C60.7322 59.8304 64.0484 58.7778 66.8257 56.8173C69.603 54.8567 71.7052 52.0844 72.8434 48.881C73.2043 47.8686 72.3995 46.8691 71.3248 46.8691H43.3404Z" fill="url(#paint15_radial_1819_2706)"/>
<path d="M43.3404 46.8691C42.2657 46.8691 41.461 47.866 41.8218 48.881C42.9601 52.0844 45.0622 54.8567 47.8395 56.8173C50.6168 58.7778 53.933 59.8304 57.3326 59.8304C60.7322 59.8304 64.0484 58.7778 66.8257 56.8173C69.603 54.8567 71.7052 52.0844 72.8434 48.881C73.2043 47.8686 72.3995 46.8691 71.3248 46.8691H43.3404Z" fill="url(#paint16_radial_1819_2706)"/>
<path d="M43.3404 46.8691C42.2657 46.8691 41.461 47.866 41.8218 48.881C42.9601 52.0844 45.0622 54.8567 47.8395 56.8173C50.6168 58.7778 53.933 59.8304 57.3326 59.8304C60.7322 59.8304 64.0484 58.7778 66.8257 56.8173C69.603 54.8567 71.7052 52.0844 72.8434 48.881C73.2043 47.8686 72.3995 46.8691 71.3248 46.8691H43.3404Z" fill="#550413"/>
<path d="M1.96094 48.0987L15.4703 26.6172" stroke="url(#paint17_linear_1819_2706)" stroke-width="2.59595"/>
<g filter="url(#filter3_f_1819_2706)">
<path d="M2.36719 48.0987L15.8739 26.6172" stroke="#F8DDE7" stroke-width="0.648988"/>
</g>
<path d="M1.8851 46.8691C0.807783 46.8691 0.00563368 47.866 0.363875 48.881C1.50214 52.0844 3.6043 54.8567 6.3816 56.8173C9.15891 58.7778 12.4751 59.8304 15.8747 59.8304C19.2743 59.8304 22.5905 58.7778 25.3678 56.8173C28.1451 54.8567 30.2472 52.0844 31.3855 48.881C31.7463 47.8686 30.9442 46.8691 29.8669 46.8691H1.8851Z" fill="#550413"/>
<path d="M1.8851 46.8691C0.807783 46.8691 0.00563368 47.866 0.363875 48.881C1.50214 52.0844 3.6043 54.8567 6.3816 56.8173C9.15891 58.7778 12.4751 59.8304 15.8747 59.8304C19.2743 59.8304 22.5905 58.7778 25.3678 56.8173C28.1451 54.8567 30.2472 52.0844 31.3855 48.881C31.7463 47.8686 30.9442 46.8691 29.8669 46.8691H1.8851Z" fill="#550413"/>
<path d="M1.8851 46.8691C0.807783 46.8691 0.00563368 47.866 0.363875 48.881C1.50214 52.0844 3.6043 54.8567 6.3816 56.8173C9.15891 58.7778 12.4751 59.8304 15.8747 59.8304C19.2743 59.8304 22.5905 58.7778 25.3678 56.8173C28.1451 54.8567 30.2472 52.0844 31.3855 48.881C31.7463 47.8686 30.9442 46.8691 29.8669 46.8691H1.8851Z" fill="url(#paint18_radial_1819_2706)"/>
<path d="M1.8851 46.8691C0.807783 46.8691 0.00563368 47.866 0.363875 48.881C1.50214 52.0844 3.6043 54.8567 6.3816 56.8173C9.15891 58.7778 12.4751 59.8304 15.8747 59.8304C19.2743 59.8304 22.5905 58.7778 25.3678 56.8173C28.1451 54.8567 30.2472 52.0844 31.3855 48.881C31.7463 47.8686 30.9442 46.8691 29.8669 46.8691H1.8851Z" fill="#550413"/>
<path d="M1.8851 46.8691C0.807783 46.8691 0.00563368 47.866 0.363875 48.881C1.50214 52.0844 3.6043 54.8567 6.3816 56.8173C9.15891 58.7778 12.4751 59.8304 15.8747 59.8304C19.2743 59.8304 22.5905 58.7778 25.3678 56.8173C28.1451 54.8567 30.2472 52.0844 31.3855 48.881C31.7463 47.8686 30.9442 46.8691 29.8669 46.8691H1.8851Z" fill="url(#paint19_radial_1819_2706)"/>
<path d="M1.8851 46.8691C0.807783 46.8691 0.00563368 47.866 0.363875 48.881C1.50214 52.0844 3.6043 54.8567 6.3816 56.8173C9.15891 58.7778 12.4751 59.8304 15.8747 59.8304C19.2743 59.8304 22.5905 58.7778 25.3678 56.8173C28.1451 54.8567 30.2472 52.0844 31.3855 48.881C31.7463 47.8686 30.9442 46.8691 29.8669 46.8691H1.8851Z" fill="url(#paint20_radial_1819_2706)"/>
<path d="M15.876 27.7441C18.2086 27.7441 20.0996 25.8531 20.0996 23.5205C20.0996 21.1879 18.2086 19.2969 15.876 19.2969C13.5433 19.2969 11.6523 21.1879 11.6523 23.5205C11.6523 25.8531 13.5433 27.7441 15.876 27.7441Z" fill="url(#paint21_radial_1819_2706)"/>
<path d="M15.876 27.7441C18.2086 27.7441 20.0996 25.8531 20.0996 23.5205C20.0996 21.1879 18.2086 19.2969 15.876 19.2969C13.5433 19.2969 11.6523 21.1879 11.6523 23.5205C11.6523 25.8531 13.5433 27.7441 15.876 27.7441Z" fill="#550413"/>
<path d="M15.876 27.7441C18.2086 27.7441 20.0996 25.8531 20.0996 23.5205C20.0996 21.1879 18.2086 19.2969 15.876 19.2969C13.5433 19.2969 11.6523 21.1879 11.6523 23.5205C11.6523 25.8531 13.5433 27.7441 15.876 27.7441Z" fill="url(#paint22_radial_1819_2706)"/>
<g filter="url(#filter4_f_1819_2706)">
<path d="M37.7891 13.0039L44.9695 22.9023" stroke="url(#paint23_linear_1819_2706)" stroke-width="1.03838" stroke-linecap="round"/>
</g>
<path d="M36.6016 6.31445V64.1627" stroke="url(#paint24_linear_1819_2706)" stroke-width="3.89393"/>
<path d="M36.6016 6.31445V64.1627" stroke="url(#paint25_radial_1819_2706)" stroke-width="3.89393"/>
<path d="M36.6016 6.31445V64.1627" stroke="url(#paint26_linear_1819_2706)" stroke-width="3.89393"/>
<path d="M36.6016 6.31445V64.1627" stroke="url(#paint27_linear_1819_2706)" stroke-width="3.89393"/>
<path d="M36.6016 6.31445V64.1627" stroke="url(#paint28_radial_1819_2706)" stroke-width="3.89393"/>
<path d="M55.27 72.7369C56.9314 72.7369 57.7803 70.8237 56.529 69.7256C51.0279 64.8715 43.9416 62.1967 36.6051 62.2051C29.2684 62.1946 22.1811 64.8676 16.6785 69.7204C15.4325 70.8211 16.2762 72.7317 17.9402 72.7317L55.27 72.7369Z" fill="url(#paint29_linear_1819_2706)"/>
<path d="M55.27 72.7369C56.9314 72.7369 57.7803 70.8237 56.529 69.7256C51.0279 64.8715 43.9416 62.1967 36.6051 62.2051C29.2684 62.1946 22.1811 64.8676 16.6785 69.7204C15.4325 70.8211 16.2762 72.7317 17.9402 72.7317L55.27 72.7369Z" fill="#550413"/>
<path d="M55.27 72.7369C56.9314 72.7369 57.7803 70.8237 56.529 69.7256C51.0279 64.8715 43.9416 62.1967 36.6051 62.2051C29.2684 62.1946 22.1811 64.8676 16.6785 69.7204C15.4325 70.8211 16.2762 72.7317 17.9402 72.7317L55.27 72.7369Z" fill="url(#paint30_linear_1819_2706)"/>
<path d="M55.27 72.7369C56.9314 72.7369 57.7803 70.8237 56.529 69.7256C51.0279 64.8715 43.9416 62.1967 36.6051 62.2051C29.2684 62.1946 22.1811 64.8676 16.6785 69.7204C15.4325 70.8211 16.2762 72.7317 17.9402 72.7317L55.27 72.7369Z" fill="url(#paint31_radial_1819_2706)"/>
<path d="M55.27 72.7369C56.9314 72.7369 57.7803 70.8237 56.529 69.7256C51.0279 64.8715 43.9416 62.1967 36.6051 62.2051C29.2684 62.1946 22.1811 64.8676 16.6785 69.7204C15.4325 70.8211 16.2762 72.7317 17.9402 72.7317L55.27 72.7369Z" fill="url(#paint32_radial_1819_2706)"/>
<g filter="url(#filter5_f_1819_2706)">
<path d="M37.625 7.69141V52.1471" stroke="url(#paint33_linear_1819_2706)" stroke-width="1.03838"/>
</g>
<path d="M36.6025 8.69528C38.9352 8.69528 40.8261 6.8043 40.8261 4.47166C40.8261 2.13902 38.9352 0.248047 36.6025 0.248047C34.2699 0.248047 32.3789 2.13902 32.3789 4.47166C32.3789 6.8043 34.2699 8.69528 36.6025 8.69528Z" fill="url(#paint34_radial_1819_2706)"/>
<path d="M36.6025 8.69528C38.9352 8.69528 40.8261 6.8043 40.8261 4.47166C40.8261 2.13902 38.9352 0.248047 36.6025 0.248047C34.2699 0.248047 32.3789 2.13902 32.3789 4.47166C32.3789 6.8043 34.2699 8.69528 36.6025 8.69528Z" fill="#550413"/>
<path d="M36.6025 8.69528C38.9352 8.69528 40.8261 6.8043 40.8261 4.47166C40.8261 2.13902 38.9352 0.248047 36.6025 0.248047C34.2699 0.248047 32.3789 2.13902 32.3789 4.47166C32.3789 6.8043 34.2699 8.69528 36.6025 8.69528Z" fill="url(#paint35_radial_1819_2706)"/>
<defs>
<filter id="filter0_i_1819_2706" x="15.2255" y="10.1903" width="23.1456" height="15.2091" filterUnits="userSpaceOnUse" color-interpolation-filters="sRGB">
<feFlood flood-opacity="0" result="BackgroundImageFix"/>
<feBlend mode="normal" in="SourceGraphic" in2="BackgroundImageFix" result="shape"/>
<feColorMatrix in="SourceAlpha" type="matrix" values="0 0 0 0 0 0 0 0 0 0 0 0 0 0 0 0 0 0 127 0" result="hardAlpha"/>
<feOffset dx="-1.29798" dy="-1.29798"/>
<feGaussianBlur stdDeviation="1.29798"/>
<feComposite in2="hardAlpha" operator="arithmetic" k2="-1" k3="1"/>
<feColorMatrix type="matrix" values="0 0 0 0 0.682353 0 0 0 0 0.588235 0 0 0 0 0.694118 0 0 0 1 0"/>
<feBlend mode="normal" in2="shape" result="effect1_innerShadow_1819_2706"/>
</filter>
<filter id="filter1_i_1819_2706" x="34.875" y="10.1903" width="23.1495" height="15.2091" filterUnits="userSpaceOnUse" color-interpolation-filters="sRGB">
<feFlood flood-opacity="0" result="BackgroundImageFix"/>
<feBlend mode="normal" in="SourceGraphic" in2="BackgroundImageFix" result="shape"/>
<feColorMatrix in="SourceAlpha" type="matrix" values="0 0 0 0 0 0 0 0 0 0 0 0 0 0 0 0 0 0 127 0" result="hardAlpha"/>
<feOffset dx="1.29798" dy="-1.29798"/>
<feGaussianBlur stdDeviation="1.29798"/>
<feComposite in2="hardAlpha" operator="arithmetic" k2="-1" k3="1"/>
<feColorMatrix type="matrix" values="0 0 0 0 0.682353 0 0 0 0 0.588235 0 0 0 0 0.694118 0 0 0 1 0"/>
<feBlend mode="normal" in2="shape" result="effect1_innerShadow_1819_2706"/>
</filter>
<filter id="filter2_f_1819_2706" x="41.9851" y="25.406" width="16.1354" height="23.9039" filterUnits="userSpaceOnUse" color-interpolation-filters="sRGB">
<feFlood flood-opacity="0" result="BackgroundImageFix"/>
<feBlend mode="normal" in="SourceGraphic" in2="BackgroundImageFix" result="shape"/>
<feGaussianBlur stdDeviation="0.51919" result="effect1_foregroundBlur_1819_2706"/>
</filter>
<filter id="filter3_f_1819_2706" x="1.05537" y="25.406" width="16.1314" height="23.9039" filterUnits="userSpaceOnUse" color-interpolation-filters="sRGB">
<feFlood flood-opacity="0" result="BackgroundImageFix"/>
<feBlend mode="normal" in="SourceGraphic" in2="BackgroundImageFix" result="shape"/>
<feGaussianBlur stdDeviation="0.51919" result="effect1_foregroundBlur_1819_2706"/>
</filter>
<filter id="filter4_f_1819_2706" x="36.2312" y="11.446" width="10.2955" height="13.0143" filterUnits="userSpaceOnUse" color-interpolation-filters="sRGB">
<feFlood flood-opacity="0" result="BackgroundImageFix"/>
<feBlend mode="normal" in="SourceGraphic" in2="BackgroundImageFix" result="shape"/>
<feGaussianBlur stdDeviation="0.51919" result="effect1_foregroundBlur_1819_2706"/>
</filter>
<filter id="filter5_f_1819_2706" x="36.0671" y="6.65303" width="3.11582" height="46.5328" filterUnits="userSpaceOnUse" color-interpolation-filters="sRGB">
<feFlood flood-opacity="0" result="BackgroundImageFix"/>
<feBlend mode="normal" in="SourceGraphic" in2="BackgroundImageFix" result="shape"/>
<feGaussianBlur stdDeviation="0.51919" result="effect1_foregroundBlur_1819_2706"/>
</filter>
<radialGradient id="paint0_radial_1819_2706" cx="0" cy="0" r="1" gradientUnits="userSpaceOnUse" gradientTransform="translate(19.0753 23.5823) scale(3.65056 6.41608)">
<stop offset="0.289" stop-color="#BDAAB9"/>
<stop offset="1" stop-color="#BDAAB9" stop-opacity="0"/>
</radialGradient>
<radialGradient id="paint1_radial_1819_2706" cx="0" cy="0" r="1" gradientUnits="userSpaceOnUse" gradientTransform="translate(22.2916 25.9446) rotate(-38.8298) scale(17.0784 13.2243)">
<stop offset="0.726" stop-color="#99839C" stop-opacity="0"/>
<stop offset="0.988" stop-color="#99839C"/>
</radialGradient>
<radialGradient id="paint2_radial_1819_2706" cx="0" cy="0" r="1" gradientUnits="userSpaceOnUse" gradientTransform="translate(54.1715 23.5823) rotate(180) scale(3.65056 6.41608)">
<stop offset="0.289" stop-color="#BDAAB9"/>
<stop offset="1" stop-color="#BDAAB9" stop-opacity="0"/>
</radialGradient>
<linearGradient id="paint3_linear_1819_2706" x1="-nan" y1="-nan" x2="-nan" y2="-nan" gradientUnits="userSpaceOnUse">
<stop offset="0.188" stop-color="#BBA1B3"/>
<stop offset="1" stop-color="#D7B7C8"/>
</linearGradient>
<linearGradient id="paint4_linear_1819_2706" x1="22.3332" y1="37.3566" x2="24.2386" y2="36.0042" gradientUnits="userSpaceOnUse">
<stop offset="0.175" stop-color="#D0B6C3"/>
<stop offset="1" stop-color="#E6D2E4"/>
</linearGradient>
<linearGradient id="paint5_linear_1819_2706" x1="21.8867" y1="37.515" x2="22.4033" y2="37.1801" gradientUnits="userSpaceOnUse">
<stop stop-color="#C2A6B1"/>
<stop offset="1" stop-color="#C2A6B1" stop-opacity="0"/>
</linearGradient>
<linearGradient id="paint6_linear_1819_2706" x1="-nan" y1="-nan" x2="-nan" y2="-nan" gradientUnits="userSpaceOnUse">
<stop offset="0.188" stop-color="#BBA1B3"/>
<stop offset="1" stop-color="#D7B7C8"/>
</linearGradient>
<linearGradient id="paint7_linear_1819_2706" x1="48.2162" y1="37.3566" x2="50.7317" y2="39.166" gradientUnits="userSpaceOnUse">
<stop stop-color="#C1AFC0"/>
<stop offset="1" stop-color="#F6D6DE"/>
</linearGradient>
<linearGradient id="paint8_linear_1819_2706" x1="63.6691" y1="37.3566" x2="65.5745" y2="36.0042" gradientUnits="userSpaceOnUse">
<stop offset="0.175" stop-color="#D0B6C3"/>
<stop offset="1" stop-color="#E6D2E4"/>
</linearGradient>
<linearGradient id="paint9_linear_1819_2706" x1="63.2226" y1="37.515" x2="63.7392" y2="37.1801" gradientUnits="userSpaceOnUse">
<stop stop-color="#C2A6B1"/>
<stop offset="1" stop-color="#C2A6B1" stop-opacity="0"/>
</linearGradient>
<radialGradient id="paint10_radial_1819_2706" cx="0" cy="0" r="1" gradientUnits="userSpaceOnUse" gradientTransform="translate(59.7112 21.4044) rotate(110.554) scale(6.77261 7.05006)">
<stop offset="0.319" stop-color="#FFC539"/>
<stop offset="1" stop-color="#F6973E"/>
</radialGradient>
<radialGradient id="paint11_radial_1819_2706" cx="0" cy="0" r="1" gradientUnits="userSpaceOnUse" gradientTransform="translate(57.333 28.2711) rotate(-90) scale(3.55918 3.0796)">
<stop stop-color="#E98856"/>
<stop offset="1" stop-color="#E98856" stop-opacity="0"/>
</radialGradient>
<radialGradient id="paint12_radial_1819_2706" cx="0" cy="0" r="1" gradientUnits="userSpaceOnUse" gradientTransform="translate(57.3326 47.3624) rotate(90) scale(12.4675 23.1928)">
<stop offset="0.482" stop-color="#FFB85E"/>
<stop offset="1" stop-color="#FF9D5B"/>
</radialGradient>
<linearGradient id="paint13_linear_1819_2706" x1="57.3326" y1="46.8691" x2="57.3326" y2="49.8753" gradientUnits="userSpaceOnUse">
<stop stop-color="#FFCF4D"/>
<stop offset="1" stop-color="#FFCF4D" stop-opacity="0"/>
</linearGradient>
<radialGradient id="paint14_radial_1819_2706" cx="0" cy="0" r="1" gradientUnits="userSpaceOnUse" gradientTransform="translate(69.5102 45.4154) rotate(126.87) scale(14.1966 9.42657)">
<stop stop-color="#FFC635"/>
<stop offset="1" stop-color="#FFC635" stop-opacity="0"/>
</radialGradient>
<radialGradient id="paint15_radial_1819_2706" cx="0" cy="0" r="1" gradientUnits="userSpaceOnUse" gradientTransform="translate(57.3326 48.1723) rotate(90) scale(11.6563 22.4627)">
<stop offset="0.592" stop-color="#FD9860" stop-opacity="0"/>
<stop offset="1" stop-color="#F18E9D"/>
</radialGradient>
<radialGradient id="paint16_radial_1819_2706" cx="0" cy="0" r="1" gradientUnits="userSpaceOnUse" gradientTransform="translate(53.9332 45.6572) rotate(52.677) scale(18.4643 25.7531)">
<stop offset="0.827" stop-color="#FFB651" stop-opacity="0"/>
<stop offset="1" stop-color="#E29471"/>
</radialGradient>
<linearGradient id="paint17_linear_1819_2706" x1="6.88027" y1="37.3566" x2="9.39315" y2="39.166" gradientUnits="userSpaceOnUse">
<stop stop-color="#C1AFC0"/>
<stop offset="1" stop-color="#F6D6DE"/>
</linearGradient>
<radialGradient id="paint18_radial_1819_2706" cx="0" cy="0" r="1" gradientUnits="userSpaceOnUse" gradientTransform="translate(28.0523 45.4154) rotate(126.87) scale(14.1966 9.42657)">
<stop stop-color="#FFC635"/>
<stop offset="1" stop-color="#FFC635" stop-opacity="0"/>
</radialGradient>
<radialGradient id="paint19_radial_1819_2706" cx="0" cy="0" r="1" gradientUnits="userSpaceOnUse" gradientTransform="translate(15.8747 48.1723) rotate(90) scale(11.6563 22.4627)">
<stop offset="0.592" stop-color="#FD9860" stop-opacity="0"/>
<stop offset="1" stop-color="#F18E9D"/>
</radialGradient>
<radialGradient id="paint20_radial_1819_2706" cx="0" cy="0" r="1" gradientUnits="userSpaceOnUse" gradientTransform="translate(12.4755 45.6573) rotate(52.677) scale(18.4643 25.7531)">
<stop offset="0.827" stop-color="#FFB651" stop-opacity="0"/>
<stop offset="1" stop-color="#E29471"/>
</radialGradient>
<radialGradient id="paint21_radial_1819_2706" cx="0" cy="0" r="1" gradientUnits="userSpaceOnUse" gradientTransform="translate(18.2538 21.4037) rotate(110.554) scale(6.77261 7.05006)">
<stop offset="0.319" stop-color="#FFC539"/>
<stop offset="1" stop-color="#F6973E"/>
</radialGradient>
<radialGradient id="paint22_radial_1819_2706" cx="0" cy="0" r="1" gradientUnits="userSpaceOnUse" gradientTransform="translate(15.876 28.2711) rotate(-90) scale(3.55918 3.0796)">
<stop stop-color="#E98856"/>
<stop offset="1" stop-color="#E98856" stop-opacity="0"/>
</radialGradient>
<linearGradient id="paint23_linear_1819_2706" x1="37.545" y1="15.0911" x2="45.4861" y2="26.0564" gradientUnits="userSpaceOnUse">
<stop stop-color="#FDEBFF"/>
<stop offset="1" stop-color="#FDEBFF" stop-opacity="0"/>
</linearGradient>
<linearGradient id="paint24_linear_1819_2706" x1="-nan" y1="-nan" x2="-nan" y2="-nan" gradientUnits="userSpaceOnUse">
<stop stop-color="#C3AEC2"/>
<stop offset="1" stop-color="#E7D3E6"/>
</linearGradient>
<radialGradient id="paint25_radial_1819_2706" cx="0" cy="0" r="1" gradientUnits="userSpaceOnUse" gradientTransform="translate(-nan -nan) rotate(-nan) scale(-nan -nan)">
<stop stop-color="#B59CAD"/>
<stop offset="1" stop-color="#B59CAD" stop-opacity="0"/>
</radialGradient>
<linearGradient id="paint26_linear_1819_2706" x1="-nan" y1="-nan" x2="-nan" y2="-nan" gradientUnits="userSpaceOnUse">
<stop stop-color="#BC9EA3"/>
<stop offset="1" stop-color="#BC9EA3" stop-opacity="0"/>
</linearGradient>
<linearGradient id="paint27_linear_1819_2706" x1="-nan" y1="-nan" x2="-nan" y2="-nan" gradientUnits="userSpaceOnUse">
<stop stop-color="#A38B8F"/>
<stop offset="1" stop-color="#CBB6CA" stop-opacity="0"/>
</linearGradient>
<radialGradient id="paint28_radial_1819_2706" cx="0" cy="0" r="1" gradientUnits="userSpaceOnUse" gradientTransform="translate(-nan -nan) rotate(-nan) scale(-nan -nan)">
<stop offset="0.922" stop-color="#92767E" stop-opacity="0"/>
<stop offset="1" stop-color="#92767E"/>
</radialGradient>
<linearGradient id="paint29_linear_1819_2706" x1="36.6051" y1="62.2077" x2="36.6051" y2="72.1035" gradientUnits="userSpaceOnUse">
<stop offset="0.254" stop-color="#F9C63C"/>
<stop offset="0.754" stop-color="#FFCE37"/>
</linearGradient>
<linearGradient id="paint30_linear_1819_2706" x1="40.9533" y1="72.7369" x2="40.9533" y2="70.8055" gradientUnits="userSpaceOnUse">
<stop stop-color="#FA8694"/>
<stop offset="1" stop-color="#FFA166" stop-opacity="0"/>
</linearGradient>
<radialGradient id="paint31_radial_1819_2706" cx="0" cy="0" r="1" gradientUnits="userSpaceOnUse" gradientTransform="translate(34.9489 75.3484) rotate(-107.43) scale(14.6248 42.2894)">
<stop offset="0.57" stop-color="#EB9E40" stop-opacity="0"/>
<stop offset="1" stop-color="#EB9E40"/>
</radialGradient>
<radialGradient id="paint32_radial_1819_2706" cx="0" cy="0" r="1" gradientUnits="userSpaceOnUse" gradientTransform="translate(36.6051 71.2105) rotate(-89.9995) scale(9.73482 33.3897)">
<stop offset="0.685" stop-color="#DDB761" stop-opacity="0"/>
<stop offset="1" stop-color="#D29F5F"/>
</radialGradient>
<linearGradient id="paint33_linear_1819_2706" x1="-nan" y1="-nan" x2="-nan" y2="-nan" gradientUnits="userSpaceOnUse">
<stop stop-color="#EDD9EE"/>
<stop offset="1" stop-color="#EDD9EE" stop-opacity="0"/>
</linearGradient>
<radialGradient id="paint34_radial_1819_2706" cx="0" cy="0" r="1" gradientUnits="userSpaceOnUse" gradientTransform="translate(38.9798 2.35575) rotate(110.554) scale(6.77261 7.05006)">
<stop offset="0.319" stop-color="#FFC539"/>
<stop offset="1" stop-color="#F6973E"/>
</radialGradient>
<radialGradient id="paint35_radial_1819_2706" cx="0" cy="0" r="1" gradientUnits="userSpaceOnUse" gradientTransform="translate(36.6025 9.22226) rotate(-90) scale(3.55918 3.07961)">
<stop stop-color="#E98856"/>
<stop offset="1" stop-color="#E98856" stop-opacity="0"/>
</radialGradient>
</defs>
</svg>
